<svg width="282" height="282" viewBox="0 0 282 282" fill="none" xmlns="http://www.w3.org/2000/svg">
<path d="M155.462 26.519H37.6311C35.3884 26.519 33.5703 28.3371 33.5703 30.5798V194.918C33.5703 197.161 35.3884 198.979 37.6311 198.979H155.462C157.705 198.979 159.523 197.161 159.523 194.918V30.5798C159.523 28.3371 157.705 26.519 155.462 26.519Z" fill="#E6E6E6"/>
<path d="M251.117 36.795L251.348 37.9907L248.979 50.8217C248.141 51.4374 247.186 51.8755 246.172 52.1092C245.159 52.3429 244.109 52.3673 243.085 52.1809L229.662 49.6993C229.662 49.6993 227.525 49.2199 228.122 46.4507C228.122 46.4507 228.224 44.9899 229.476 44.894C229.476 44.894 226.876 43.8337 227.164 41.8315C227.451 39.8293 228.929 39.8519 228.929 39.8519C228.929 39.8519 226.492 39.2371 226.746 36.9811C227 34.7251 228.314 34.7251 228.314 34.7251C228.314 34.7251 225.494 34.037 226.188 31.5385C226.268 31.2066 226.414 30.8939 226.616 30.6188C226.818 30.3436 227.073 30.1113 227.366 29.9355C227.659 29.7597 227.984 29.6439 228.322 29.5947C228.66 29.5456 229.004 29.564 229.335 29.6491L238.884 31.4144L247.253 32.9598C248.206 33.1414 249.083 33.6035 249.771 34.2868C250.46 34.9701 250.928 35.8436 251.117 36.795Z" fill="#E6E6E6"/>
<path d="M248.725 33.5127C248.725 33.5127 245.787 30.8506 244.777 27.9573C244.309 26.5148 244.073 25.007 244.078 23.4904C244.078 23.3776 244.269 22.3624 244.41 21.539C244.464 21.2131 244.391 20.8791 244.205 20.6061C244.019 20.3331 243.735 20.142 243.412 20.0726C242.399 19.9267 241.368 20.1565 240.513 20.7186C239.658 21.2807 239.038 22.1362 238.77 23.1238C237.642 26.9703 238.607 29.5929 238.641 30.7604L238.669 31.9335L248.725 33.5127Z" fill="#E6E6E6"/>
<path d="M246.904 52.7503L256.277 54.4824L259.798 35.4316L250.425 33.6995L246.904 52.7503Z" fill="#E6E6E6"/>
<path d="M246.908 52.7396C246.908 52.7396 247.658 48.4702 248.628 43.2137C249.598 37.9572 250.416 33.6877 250.416 33.6934C250.416 33.699 249.666 37.9628 248.69 43.225C247.715 48.4871 246.925 52.7453 246.908 52.7396Z" fill="#E6E6E6"/>
<path d="M256.281 54.4767C256.281 54.4767 257.031 50.2016 258.007 44.9451C258.983 39.6886 259.784 35.4248 259.801 35.4248C259.818 35.4248 259.05 39.6999 258.08 44.9564C257.11 50.2129 256.304 54.4767 256.281 54.4767Z" fill="#E6E6E6"/>
<path d="M252.931 38.6677C252.87 39.0144 252.913 39.3714 253.055 39.6937C253.196 40.016 253.43 40.2892 253.727 40.4788C254.023 40.6683 254.369 40.7658 254.721 40.759C255.073 40.7521 255.415 40.6411 255.704 40.4401C255.993 40.2391 256.216 39.957 256.345 39.6294C256.474 39.3018 256.503 38.9434 256.428 38.5994C256.354 38.2553 256.179 37.9411 255.926 37.6963C255.673 37.4515 255.353 37.2871 255.007 37.2238C254.776 37.1816 254.538 37.1855 254.309 37.2353C254.079 37.2851 253.862 37.3798 253.669 37.514C253.476 37.6482 253.311 37.8192 253.185 38.0172C253.058 38.2152 252.972 38.4363 252.931 38.6677Z" fill="white"/>
<path d="M236.66 31.02C236.66 31.02 237.692 31.1723 238.95 31.4035C240.208 31.6348 241.234 31.8435 241.206 31.8604C241.178 31.8773 240.174 31.7081 238.916 31.4769C237.658 31.2456 236.66 31.02 236.66 31.02Z" fill="#E6E6E6"/>
<path d="M228.697 39.9087C228.697 39.9087 229.357 39.9933 230.164 40.1399C230.654 40.219 231.139 40.3225 231.619 40.4501C231.619 40.4501 230.959 40.3655 230.152 40.2133C229.662 40.1376 229.177 40.0359 228.697 39.9087Z" fill="#E6E6E6"/>
<path d="M228.115 34.6406C228.115 34.6406 229.046 34.776 230.191 34.9847C231.336 35.1933 232.261 35.3851 232.255 35.4077C232.249 35.4302 231.324 35.2723 230.18 35.058C229.035 34.8437 228.11 34.6632 228.115 34.6406Z" fill="#E6E6E6"/>
<path d="M228.865 44.8096C228.865 44.8096 229.796 44.9449 230.941 45.1536C232.086 45.3623 233.011 45.5541 233.005 45.571C232.999 45.5879 232.074 45.4413 230.93 45.2269C229.785 45.0126 228.86 44.8265 228.865 44.8096Z" fill="#E6E6E6"/>
<path d="M252.537 34.6406C252.537 34.6406 253.857 34.8493 255.47 35.1482C257.083 35.4471 258.391 35.7122 258.391 35.7122C258.391 35.7122 257.072 35.5092 255.459 35.2103C253.846 34.9113 252.537 34.6632 252.537 34.6406Z" fill="white"/>
<path d="M227.62 37.946C227.599 37.9131 227.584 37.8768 227.575 37.8388C227.546 37.7372 227.525 37.6335 227.513 37.5286C227.498 37.3729 227.498 37.2162 227.513 37.0605C227.534 36.8686 227.575 36.6795 227.637 36.4965C227.702 36.3147 227.787 36.1406 227.891 35.9776C227.974 35.8464 228.073 35.7253 228.184 35.6166C228.257 35.5407 228.339 35.4727 228.426 35.4136L228.522 35.3516C228.522 35.3516 228.398 35.4587 228.223 35.6505C228.119 35.7631 228.027 35.886 227.947 36.0171C227.849 36.1748 227.77 36.3432 227.71 36.519C227.647 36.7019 227.604 36.891 227.58 37.083C227.567 37.235 227.567 37.3879 227.58 37.5399C227.586 37.788 227.631 37.9403 227.62 37.946Z" fill="white"/>
<path d="M227.123 32.8641C227.042 32.7997 226.978 32.7164 226.937 32.6215C226.819 32.4015 226.758 32.155 226.762 31.9053C226.77 31.6561 226.838 31.4124 226.959 31.1946C227.006 31.1032 227.074 31.024 227.157 30.9634C227.157 30.9634 227.089 31.0593 227.01 31.2228C226.903 31.4357 226.845 31.6697 226.841 31.9077C226.836 32.1458 226.884 32.3819 226.982 32.599C227.033 32.6849 227.08 32.7734 227.123 32.8641Z" fill="white"/>
<path d="M228.319 43.4277C228.213 43.3709 228.123 43.2897 228.054 43.1908C227.878 42.9615 227.785 42.6792 227.789 42.3899C227.796 42.1023 227.897 41.825 228.077 41.6003C228.218 41.4311 228.342 41.3635 228.348 41.3747C228.267 41.4543 228.192 41.5391 228.122 41.6285C227.961 41.8517 227.874 42.1201 227.874 42.3956C227.874 42.671 227.961 42.9395 228.122 43.1626C228.218 43.3205 228.325 43.4277 228.319 43.4277Z" fill="white"/>
<path d="M229.391 48.2836C229.313 48.2133 229.252 48.1266 229.211 48.0298C229.099 47.7996 229.041 47.5469 229.041 47.291C229.041 47.035 229.099 46.7824 229.211 46.5521C229.254 46.4565 229.315 46.3702 229.391 46.2983C229.391 46.2983 229.329 46.4055 229.256 46.5747C229.161 46.8016 229.112 47.045 229.112 47.291C229.112 47.5369 229.161 47.7804 229.256 48.0073C229.329 48.1821 229.403 48.278 229.391 48.2836Z" fill="white"/>
<path d="M238.872 27.6018C238.844 27.5346 238.823 27.4646 238.81 27.3931C238.784 27.3099 238.763 27.2252 238.747 27.1393C238.747 27.0378 238.702 26.925 238.685 26.7953C238.64 26.5003 238.616 26.2026 238.612 25.9042C238.607 25.527 238.629 25.15 238.68 24.7762C238.736 24.4134 238.819 24.0552 238.928 23.7046C239.017 23.417 239.126 23.1361 239.255 22.8642C239.306 22.7514 239.362 22.6499 239.407 22.5597L239.537 22.3341C239.574 22.2693 239.616 22.2071 239.661 22.1479C239.638 22.2175 239.605 22.2838 239.565 22.3453L239.447 22.5766C239.402 22.6668 239.351 22.7684 239.3 22.8868C239.199 23.118 239.092 23.4057 238.99 23.7215C238.891 24.0721 238.812 24.428 238.753 24.7875C238.705 25.1483 238.68 25.5119 238.68 25.876C238.682 26.172 238.701 26.4676 238.736 26.7615C238.736 26.8912 238.77 27.004 238.787 27.0999C238.804 27.1957 238.821 27.286 238.838 27.3537C238.859 27.4348 238.87 27.5181 238.872 27.6018Z" fill="white"/>
<path d="M236.598 154.136L237.235 154.863L240.687 164.603C240.354 165.359 239.871 166.039 239.265 166.6C238.66 167.162 237.946 167.594 237.168 167.869L226.982 171.456C226.982 171.456 225.329 171.975 224.641 169.843C224.641 169.843 224.134 168.8 224.957 168.236C224.957 168.236 222.752 168.54 222.137 167.051C221.522 165.562 222.566 164.998 222.566 164.998C222.566 164.998 220.648 165.562 219.932 163.87C219.215 162.178 220.112 161.699 220.112 161.699C220.112 161.699 217.896 162.347 217.394 160.356C217.317 160.097 217.293 159.825 217.323 159.556C217.353 159.287 217.435 159.026 217.567 158.79C217.698 158.553 217.875 158.345 218.087 158.177C218.299 158.009 218.543 157.886 218.804 157.813L226.046 155.247L232.396 152.991C233.13 152.733 233.925 152.704 234.675 152.909C235.426 153.113 236.096 153.541 236.598 154.136Z" fill="#E6E6E6"/>
<path d="M233.682 152.844C233.682 152.844 230.614 152.184 228.758 150.588C227.862 149.785 227.101 148.845 226.502 147.802L225.938 146.33C225.847 146.084 225.665 145.883 225.43 145.768C225.194 145.654 224.924 145.635 224.675 145.715C223.922 146.02 223.306 146.59 222.944 147.317C222.581 148.044 222.497 148.878 222.706 149.663C223.468 152.742 225.154 154.175 225.639 154.953L226.124 155.743L233.682 152.844Z" fill="#E6E6E6"/>
<path d="M240.024 166.752L247.137 164.23L242.013 149.777L234.9 152.298L240.024 166.752Z" fill="#E6E6E6"/>
<path d="M240.028 166.735C240.028 166.735 238.854 163.509 237.439 159.516C236.023 155.523 234.89 152.28 234.906 152.28C234.923 152.28 236.08 155.506 237.495 159.499C238.911 163.492 240.044 166.729 240.028 166.735Z" fill="#E6E6E6"/>
<path d="M247.139 164.214C247.139 164.214 245.966 160.988 244.55 156.995C243.134 153.002 242.001 149.764 242.018 149.759C242.035 149.753 243.191 152.985 244.607 156.978C246.022 160.971 247.156 164.208 247.139 164.214Z" fill="#E6E6E6"/>
<path d="M238.573 154.699C238.667 154.962 238.837 155.19 239.061 155.356C239.284 155.522 239.552 155.618 239.831 155.632C240.109 155.646 240.385 155.577 240.624 155.434C240.863 155.291 241.055 155.081 241.174 154.829C241.294 154.577 241.336 154.296 241.296 154.02C241.256 153.744 241.134 153.487 240.948 153.28C240.761 153.073 240.518 152.926 240.248 152.857C239.978 152.789 239.693 152.802 239.43 152.895C239.078 153.021 238.79 153.282 238.629 153.62C238.468 153.958 238.448 154.346 238.573 154.699Z" fill="white"/>
<path d="M224.398 155.884C224.398 155.884 225.165 155.579 226.124 155.241C227.083 154.902 227.861 154.637 227.867 154.677C227.873 154.716 227.1 154.981 226.141 155.32C225.182 155.658 224.404 155.895 224.398 155.884Z" fill="#E6E6E6"/>
<path d="M222.465 165.139C222.465 165.139 222.95 164.936 223.565 164.722C223.933 164.578 224.31 164.456 224.693 164.355C224.333 164.515 223.966 164.656 223.593 164.778C223.224 164.918 222.847 165.039 222.465 165.139Z" fill="#E6E6E6"/>
<path d="M219.961 161.761C219.961 161.761 220.655 161.484 221.523 161.197C222.392 160.909 223.097 160.633 223.102 160.666C223.108 160.7 222.409 160.943 221.54 161.23C220.672 161.518 219.989 161.777 219.961 161.761Z" fill="#E6E6E6"/>
<path d="M224.518 168.433C224.518 168.433 225.211 168.156 226.08 167.869C226.948 167.581 227.653 167.305 227.659 167.344C227.665 167.384 226.965 167.62 226.097 167.908C225.228 168.196 224.523 168.45 224.518 168.433Z" fill="#E6E6E6"/>
<path d="M236.729 152.1C236.729 152.1 237.71 151.716 238.939 151.282C240.169 150.847 241.162 150.509 241.195 150.526C241.229 150.543 240.214 150.904 238.985 151.338C237.755 151.772 236.734 152.111 236.729 152.1Z" fill="white"/>
<path d="M220.949 164.22L220.875 164.163C220.816 164.106 220.761 164.044 220.712 163.977C220.638 163.877 220.576 163.769 220.526 163.656C220.462 163.517 220.415 163.371 220.385 163.222C220.357 163.073 220.346 162.922 220.351 162.77C220.36 162.646 220.381 162.524 220.413 162.404C220.433 162.322 220.461 162.243 220.497 162.167C220.497 162.116 220.537 162.088 220.543 162.088C220.548 162.088 220.497 162.212 220.452 162.409C220.427 162.528 220.412 162.649 220.407 162.77C220.405 162.918 220.416 163.065 220.441 163.21C220.472 163.355 220.515 163.496 220.571 163.633C220.622 163.744 220.68 163.852 220.746 163.955C220.864 164.124 220.954 164.214 220.949 164.22Z" fill="white"/>
<path d="M218.595 160.932C218.516 160.92 218.44 160.889 218.375 160.842C218.208 160.737 218.07 160.591 217.975 160.419C217.877 160.247 217.827 160.052 217.828 159.855C217.821 159.774 217.834 159.692 217.868 159.618C217.868 159.618 217.868 159.708 217.868 159.855C217.882 160.042 217.936 160.225 218.025 160.39C218.118 160.555 218.245 160.697 218.398 160.808C218.516 160.892 218.601 160.926 218.595 160.932Z" fill="white"/>
<path d="M223.593 167.694C223.497 167.695 223.402 167.674 223.317 167.632C223.105 167.545 222.929 167.39 222.815 167.192C222.706 166.99 222.667 166.758 222.702 166.532C222.712 166.439 222.745 166.35 222.798 166.272C222.798 166.272 222.764 166.374 222.747 166.538C222.722 166.754 222.765 166.973 222.871 167.164C222.978 167.351 223.139 167.503 223.334 167.598C223.486 167.666 223.593 167.682 223.593 167.694Z" fill="white"/>
<path d="M226.255 170.61C226.173 170.591 226.097 170.557 226.029 170.508C225.859 170.396 225.718 170.245 225.617 170.069C225.516 169.897 225.456 169.704 225.442 169.505C225.423 169.423 225.423 169.338 225.442 169.256C225.442 169.256 225.442 169.352 225.442 169.499C225.466 169.697 225.529 169.889 225.629 170.063C225.728 170.23 225.858 170.377 226.012 170.497C226.095 170.529 226.176 170.567 226.255 170.61Z" fill="white"/>
<path d="M224.574 152.68L224.444 152.556C224.395 152.51 224.348 152.461 224.303 152.41C224.247 152.348 224.185 152.28 224.123 152.201C223.977 152.022 223.843 151.834 223.722 151.637C223.575 151.387 223.445 151.127 223.333 150.859C223.227 150.588 223.142 150.308 223.079 150.024C223.026 149.792 222.99 149.556 222.972 149.319C222.972 149.223 222.972 149.127 222.972 149.048C222.972 148.969 222.972 148.902 222.972 148.845C222.968 148.787 222.968 148.729 222.972 148.67C222.981 148.728 222.981 148.787 222.972 148.845C222.972 148.902 222.972 148.969 222.972 149.048C222.972 149.127 222.972 149.217 222.972 149.319C222.972 149.516 223.034 149.753 223.091 150.013C223.279 150.803 223.628 151.546 224.117 152.195C224.179 152.28 224.236 152.348 224.286 152.41L224.422 152.568C224.476 152.6 224.527 152.638 224.574 152.68Z" fill="white"/>
<path d="M148.542 223.479H121.081C116.935 223.479 113.574 226.84 113.574 230.986V258.447C113.574 262.593 116.935 265.954 121.081 265.954H148.542C152.688 265.954 156.049 262.593 156.049 258.447V230.986C156.049 226.84 152.688 223.479 148.542 223.479Z" fill="#E6E6E6"/>
<path d="M140.909 223.479H113.448C109.302 223.479 105.941 226.84 105.941 230.986V258.447C105.941 262.593 109.302 265.954 113.448 265.954H140.909C145.055 265.954 148.416 262.593 148.416 258.447V230.986C148.416 226.84 145.055 223.479 140.909 223.479Z" fill="#E6E6E6"/>
<path d="M112.52 245.328L116.795 241.048L125.046 248.385L138.83 234.55L142.801 238.825L124.437 256.637L112.52 245.328Z" fill="#71717A"/>
<path d="M50.4614 232.593H32.5205C28.3746 232.593 25.0137 235.954 25.0137 240.1V258.041C25.0137 262.187 28.3746 265.548 32.5205 265.548H50.4614C54.6073 265.548 57.9682 262.187 57.9682 258.041V240.1C57.9682 235.954 54.6073 232.593 50.4614 232.593Z" fill="#E6E6E6"/>
<path d="M44.5453 232.593H26.6045C22.4586 232.593 19.0977 235.954 19.0977 240.1V258.041C19.0977 262.187 22.4586 265.548 26.6045 265.548H44.5453C48.6912 265.548 52.0522 262.187 52.0522 258.041V240.1C52.0522 235.954 48.6912 232.593 44.5453 232.593Z" fill="#E6E6E6"/>
<path d="M24.1953 249.547L27.5173 246.225L33.9187 251.916L44.6065 241.183L47.6916 244.505L33.4449 258.317L24.1953 249.547Z" fill="#71717A"/>
<path d="M252.058 264.578C252.058 264.657 201.298 264.725 138.751 264.725C76.2029 264.725 25.4316 264.657 25.4316 264.578C25.4316 264.499 76.1578 264.432 138.751 264.432C201.343 264.432 252.058 264.516 252.058 264.578Z" fill="#232323"/>
<path d="M229.344 248.42C229.344 248.42 226.992 232.261 227.19 222.854C227.387 213.446 227.19 202.871 227.19 202.871H228.272C228.272 202.871 227.539 221.539 228.34 232.797C229.141 244.054 231.239 248.42 231.239 248.42H229.355" fill="#232323"/>
<path d="M236.35 184.688C236.18 184.115 235.835 183.61 235.363 183.244C234.675 182.809 233.772 182.99 233.005 183.244C229.734 184.4 226.83 190.502 225.51 193.712L229.853 208.376C237.698 201.094 239.057 191.551 236.35 184.688Z" fill="#455A64"/>
<path d="M235.109 183.864C235.095 183.93 235.074 183.994 235.047 184.056L234.833 184.586C234.641 185.049 234.376 185.714 234.054 186.549C233.417 188.241 232.599 190.536 231.872 193.159C231.144 195.782 230.648 198.19 230.337 199.927C230.18 200.807 230.067 201.517 229.993 202.008C229.954 202.239 229.926 202.426 229.898 202.572C229.89 202.64 229.875 202.706 229.852 202.77C229.846 202.702 229.846 202.634 229.852 202.566C229.852 202.414 229.886 202.228 229.909 202.002C229.965 201.506 230.061 200.79 230.202 199.904C230.57 197.608 231.065 195.333 231.685 193.091C232.316 190.85 233.069 188.645 233.941 186.487C234.28 185.658 234.562 184.998 234.776 184.547C234.872 184.332 234.951 184.163 235.019 184.022C235.043 183.966 235.073 183.913 235.109 183.864Z" fill="#232323"/>
<path d="M227.923 211.884C225.945 210.758 224.29 209.143 223.117 207.193C221.943 205.244 221.291 203.025 221.222 200.751C221.07 197.502 222.068 194.315 223.196 191.264C223.265 190.988 223.429 190.744 223.659 190.576C223.846 190.505 224.048 190.484 224.245 190.513C224.442 190.543 224.629 190.623 224.787 190.745C227.742 192.437 229.536 195.646 230.495 198.918C231.176 201.085 231.402 203.37 231.16 205.629C230.787 208.006 229.658 210.2 227.94 211.884" fill="#455A64"/>
<path d="M227.923 211.884C227.916 211.818 227.916 211.752 227.923 211.686C227.923 211.54 227.923 211.354 227.923 211.122C227.923 210.637 227.923 209.932 227.861 209.058C227.746 206.789 227.493 204.529 227.105 202.29C226.654 199.667 226.107 197.321 225.701 195.624L225.221 193.61C225.171 193.39 225.125 193.21 225.097 193.046C225.071 192.996 225.05 192.943 225.035 192.888C225.064 192.948 225.087 193.01 225.103 193.074C225.142 193.215 225.193 193.396 225.261 193.61C225.396 194.084 225.577 194.738 225.825 195.607C226.259 197.299 226.829 199.645 227.286 202.279C227.674 204.516 227.909 206.777 227.991 209.047C227.991 209.915 227.991 210.626 227.991 211.111L227.962 211.675C227.957 211.746 227.944 211.816 227.923 211.884Z" fill="#232323"/>
<g opacity="0.3">
<path d="M227.923 211.884C225.945 210.758 224.29 209.143 223.117 207.193C221.943 205.244 221.291 203.025 221.222 200.751C221.07 197.502 222.068 194.315 223.196 191.264C223.265 190.988 223.429 190.744 223.659 190.576C223.846 190.505 224.048 190.484 224.245 190.513C224.442 190.543 224.629 190.623 224.787 190.745C227.742 192.437 229.536 195.646 230.495 198.918C231.176 201.085 231.402 203.37 231.16 205.629C230.787 208.006 229.658 210.2 227.94 211.884" fill="#232323"/>
</g>
<path d="M232.52 236.61C236.524 237.495 239.852 240.321 243.692 241.686C246.253 242.594 249.146 242.915 251.188 244.703C250.697 243.468 249.535 242.644 248.407 241.939C245.217 239.947 241.812 238.324 238.255 237.1C236.434 236.474 234.46 235.972 232.615 236.463" fill="#455A64"/>
<path d="M226.727 240.185C221.708 240.101 216.423 235.826 211.426 235.572C216.654 233.88 224.138 235.262 226.727 240.185Z" fill="#455A64"/>
<path d="M228.686 228.138C231.272 227.283 234.031 227.089 236.711 227.574C239.377 228.063 241.998 228.775 244.545 229.701C244.286 227.958 242.853 226.649 241.55 225.493C240.583 224.588 239.531 223.777 238.409 223.074C237.279 222.366 235.969 221.996 234.636 222.008C233.836 222.059 233.054 222.272 232.338 222.632C231.622 222.993 230.986 223.494 230.468 224.106C229.454 225.214 228.829 226.621 228.686 228.116" fill="#455A64"/>
<path d="M218.381 222.6C215.222 219.898 210.434 220.163 206.277 220.259C212.95 223.439 219.242 227.361 225.036 231.951C225.216 229.012 222.374 226.006 218.381 222.6Z" fill="#455A64"/>
<g opacity="0.3">
<path d="M218.381 222.6C215.222 219.898 210.434 220.163 206.277 220.259C212.95 223.439 219.242 227.361 225.036 231.951C225.216 229.012 222.374 226.006 218.381 222.6Z" fill="#232323"/>
</g>
<path d="M230.113 218.872C231.656 217.803 233.281 216.86 234.975 216.052C236.633 215.296 238.189 214.095 239.791 213.232C241.878 212.104 243.683 210.536 245.595 209.137C247.507 207.738 249.605 206.475 251.945 206.103C250.019 205.761 248.038 205.877 246.164 206.441C244.298 207.003 242.478 207.71 240.722 208.556C238.257 209.684 235.753 210.812 233.734 212.606C231.715 214.399 229.899 216.187 230.113 218.883" fill="#455A64"/>
<path d="M243.603 240.185L243.445 240.118L243.005 239.886C242.627 239.689 242.085 239.39 241.403 239.046C241.065 238.865 240.687 238.679 240.275 238.482C239.863 238.285 239.435 238.087 238.972 237.884C237.974 237.439 236.94 237.078 235.881 236.807C234.831 236.517 233.725 236.49 232.661 236.728C232.196 236.829 231.74 236.965 231.296 237.134C230.355 237.512 229.506 238.089 228.809 238.826C228.521 239.136 228.38 239.328 228.363 239.317C228.389 239.265 228.419 239.216 228.454 239.17C228.548 239.035 228.65 238.905 228.758 238.781C229.156 238.317 229.617 237.913 230.129 237.58C230.484 237.344 230.862 237.144 231.257 236.982C231.705 236.801 232.167 236.656 232.638 236.547C233.727 236.295 234.861 236.318 235.938 236.615C237.008 236.889 238.052 237.257 239.057 237.715C239.519 237.924 239.959 238.127 240.36 238.335C240.76 238.544 241.138 238.724 241.488 238.899C242.164 239.26 242.7 239.57 243.067 239.796L243.49 240.05C243.557 240.146 243.608 240.18 243.603 240.185Z" fill="#232323"/>
<path d="M222.977 237.698C223.086 237.71 223.193 237.74 223.293 237.788C223.572 237.889 223.846 238.008 224.11 238.143C225.876 239.042 227.336 240.443 228.307 242.17C228.452 242.43 228.58 242.7 228.69 242.977C228.74 243.075 228.776 243.179 228.797 243.287C228.769 243.287 228.583 242.875 228.194 242.238C227.688 241.412 227.08 240.654 226.383 239.982C225.681 239.32 224.896 238.751 224.048 238.29C223.4 237.895 222.965 237.726 222.977 237.698Z" fill="#232323"/>
<path d="M211.873 222.346L212.087 222.408L212.685 222.622L213.638 222.972C214.011 223.113 214.411 223.316 214.862 223.536C217.217 224.627 219.416 226.029 221.399 227.704C222.49 228.624 223.517 229.617 224.473 230.676C225.241 231.551 225.962 232.466 226.633 233.417C227.197 234.229 227.642 234.906 227.941 235.368L228.285 235.932C228.326 235.994 228.362 236.058 228.393 236.124C228.34 236.073 228.293 236.016 228.252 235.955C228.167 235.837 228.037 235.662 227.879 235.43C227.564 234.974 227.118 234.302 226.531 233.513C225.945 232.723 225.212 231.787 224.349 230.806C223.401 229.75 222.386 228.757 221.309 227.833C219.334 226.171 217.159 224.764 214.834 223.643C214.383 223.44 213.988 223.226 213.621 223.079L212.685 222.701L212.065 222.442C211.997 222.417 211.933 222.385 211.873 222.346Z" fill="#232323"/>
<path d="M236.214 225.318C236.079 225.317 235.945 225.3 235.814 225.267L235.357 225.183C235.177 225.149 234.968 225.143 234.737 225.121C233.547 225.019 232.352 225.256 231.291 225.803C230.708 226.107 230.177 226.501 229.717 226.971C229.334 227.346 228.995 227.764 228.708 228.217C228.447 228.638 228.217 229.077 228.02 229.531C228.034 229.397 228.068 229.266 228.121 229.142C228.248 228.796 228.409 228.464 228.6 228.149C228.88 227.678 229.215 227.243 229.599 226.852C230.065 226.365 230.608 225.957 231.206 225.645C232.294 225.077 233.529 224.851 234.748 224.997C234.979 225.03 235.194 225.036 235.374 225.081L235.831 225.2C235.963 225.225 236.091 225.264 236.214 225.318Z" fill="#232323"/>
<path d="M241.263 209.667C241.204 209.713 241.14 209.751 241.071 209.78L240.507 210.084C240.022 210.349 239.317 210.739 238.465 211.241C237.614 211.743 236.621 212.369 235.561 213.13C234.401 213.94 233.314 214.85 232.312 215.848C231.796 216.361 231.35 216.939 230.987 217.569C230.654 218.2 230.344 218.809 230.05 219.396C229.532 220.43 229.067 221.49 228.657 222.571C228.386 223.309 228.16 224.062 227.981 224.827C227.851 225.363 227.806 225.668 227.789 225.662C227.772 225.656 227.789 225.589 227.789 225.442C227.789 225.295 227.84 225.081 227.896 224.81C228.049 224.044 228.259 223.29 228.522 222.554C228.914 221.461 229.37 220.391 229.887 219.351C230.174 218.759 230.485 218.144 230.812 217.512C231.182 216.866 231.638 216.272 232.165 215.747C233.176 214.741 234.274 213.827 235.448 213.017C236.519 212.261 237.529 211.647 238.386 211.15C239.244 210.654 239.96 210.293 240.456 210.022L241.02 209.752C241.097 209.714 241.179 209.685 241.263 209.667Z" fill="#232323"/>
<path d="M227.184 224.867C227.138 224.729 227.104 224.588 227.083 224.444C227.026 224.134 226.953 223.745 226.863 223.282C226.625 222.008 226.309 220.75 225.915 219.515C225.509 218.284 225.03 217.079 224.483 215.905L223.992 214.828C223.925 214.7 223.872 214.566 223.834 214.427C223.922 214.542 223.996 214.667 224.054 214.799C224.189 215.042 224.375 215.403 224.618 215.849C225.8 218.178 226.609 220.679 227.015 223.259C227.094 223.756 227.15 224.156 227.179 224.433C227.194 224.577 227.196 224.722 227.184 224.867Z" fill="#232323"/>
<path d="M226.824 213.446C226.664 211.545 226.107 209.698 225.188 208.026C223.948 205.728 222.22 203.729 220.125 202.17C218.031 200.611 215.62 199.53 213.062 199.002L224.292 215.736L225.741 218.725C226.658 217.127 227.037 215.276 226.824 213.446Z" fill="#455A64"/>
<path d="M242.926 246.423H216.818V251.048H242.926V246.423Z" fill="#FFD43C"/>
<path d="M218.77 250.134L220.992 264.488H238.323L240.974 250.134H218.77Z" fill="#FFD43C"/>
<path d="M242.914 251.054C242.914 251.104 237.021 251.149 229.762 251.149C222.503 251.149 216.609 251.104 216.609 251.054C216.609 251.003 222.498 250.963 229.762 250.963C237.026 250.963 242.914 250.98 242.914 251.054Z" fill="#232323"/>
<path d="M80.7311 226.401H57.5732C53.4273 226.401 50.0664 229.762 50.0664 233.908V257.066C50.0664 261.211 53.4273 264.572 57.5732 264.572H80.7311C84.877 264.572 88.2379 261.211 88.2379 257.066V233.908C88.2379 229.762 84.877 226.401 80.7311 226.401Z" fill="#FFD43C"/>
<g opacity="0.3">
<path d="M80.7311 226.401H57.5732C53.4273 226.401 50.0664 229.762 50.0664 233.908V257.066C50.0664 261.211 53.4273 264.572 57.5732 264.572H80.7311C84.877 264.572 88.2379 261.211 88.2379 257.066V233.908C88.2379 229.762 84.877 226.401 80.7311 226.401Z" fill="#232323"/>
</g>
<path d="M73.8776 226.401H50.7197C46.5738 226.401 43.2129 229.762 43.2129 233.908V257.066C43.2129 261.211 46.5738 264.572 50.7197 264.572H73.8776C78.0235 264.572 81.3844 261.211 81.3844 257.066V233.908C81.3844 229.762 78.0235 226.401 73.8776 226.401Z" fill="#FFD43C"/>
<path d="M49.1172 246.039L52.9637 242.193L60.3803 248.786L72.7601 236.355L76.3302 240.196L59.8275 256.203L49.1172 246.039Z" fill="white"/>
<path d="M100.774 240.157H85.6417C83.0782 240.157 81 242.235 81 244.798V259.931C81 262.494 83.0782 264.572 85.6417 264.572H100.774C103.337 264.572 105.416 262.494 105.416 259.931V244.798C105.416 242.235 103.337 240.157 100.774 240.157Z" fill="#BE5B13"/>
<path d="M96.393 240.157H81.2609C78.6973 240.157 76.6191 242.235 76.6191 244.798V259.931C76.6191 262.494 78.6973 264.572 81.2609 264.572H96.393C98.9565 264.572 101.035 262.494 101.035 259.931V244.798C101.035 242.235 98.9565 240.157 96.393 240.157Z" fill="#FF8227"/>
<path d="M80.3965 252.717L82.8555 250.258L87.5988 254.477L95.523 246.524L97.8072 248.983L87.2491 259.22L80.3965 252.717Z" fill="white"/>
<path d="M161.13 18.9844H43.2991C41.0564 18.9844 39.2383 20.8025 39.2383 23.0452V187.383C39.2383 189.626 41.0564 191.444 43.2991 191.444H161.13C163.373 191.444 165.191 189.626 165.191 187.383V23.0452C165.191 20.8025 163.373 18.9844 161.13 18.9844Z" fill="white"/>
<path d="M161.129 191.444C161.638 191.435 162.14 191.334 162.612 191.145C163.195 190.911 163.713 190.542 164.124 190.068C164.699 189.422 165.055 188.611 165.139 187.75C165.167 183.802 165.139 178.027 165.139 170.565C165.139 155.641 165.111 134.046 165.094 107.363C165.094 94.0188 165.094 79.4056 165.094 63.7151C165.094 55.8718 165.094 47.7652 165.094 39.3954V23.4624C165.171 22.3933 164.822 21.3371 164.124 20.524C163.784 20.1177 163.364 19.7852 162.891 19.5466C162.418 19.3081 161.901 19.1685 161.372 19.1366C160.294 19.1366 159.183 19.1366 158.084 19.1366H43.2983C42.6839 19.1385 42.0785 19.2838 41.5302 19.5609C40.9819 19.838 40.5058 20.2392 40.1399 20.7327C39.7682 21.2301 39.5241 21.811 39.4292 22.4247C39.3678 23.0468 39.3489 23.6724 39.3728 24.2972V46.812C39.3728 56.7272 39.3728 66.49 39.3728 76.1006C39.3728 95.2766 39.3728 113.821 39.3728 131.463C39.3728 149.105 39.3728 165.867 39.3728 181.569V187.4C39.3817 188.341 39.7234 189.248 40.3373 189.961C40.9446 190.667 41.7852 191.131 42.7061 191.269C43.1684 191.322 43.634 191.341 44.0991 191.326H53.8112H74.7525L137.954 191.371L155.139 191.399H159.606H161.129H159.606H155.139H137.954L74.7525 191.45H44.0822C43.606 191.466 43.1292 191.449 42.6553 191.399C41.6742 191.246 40.7795 190.749 40.1315 189.997C39.4836 189.245 39.1246 188.286 39.119 187.293C39.119 185.364 39.119 183.42 39.119 181.461C39.119 165.765 39.119 149.003 39.119 131.356C39.119 113.708 39.119 95.192 39.119 75.9934V24.252C39.095 23.6122 39.1158 22.9714 39.1811 22.3344C39.2855 21.6819 39.5468 21.0646 39.9425 20.5353C40.3352 20.0086 40.8459 19.5813 41.4336 19.2875C42.0212 18.9936 42.6695 18.8415 43.3265 18.8433H158.112C159.24 18.8433 160.306 18.8433 161.417 18.8433C161.981 18.88 162.532 19.0303 163.037 19.2852C163.542 19.5401 163.99 19.8943 164.355 20.3266C165.077 21.1964 165.431 22.3132 165.342 23.4399V26.6772C165.342 30.9749 165.342 35.2124 165.342 39.3898C165.342 47.7483 165.342 55.8548 165.342 63.7095C165.342 79.4 165.342 94.0132 165.342 107.357C165.342 134.04 165.303 155.636 165.291 170.559C165.291 178.027 165.291 183.813 165.246 187.75C165.16 188.624 164.794 189.447 164.203 190.096C163.783 190.565 163.257 190.927 162.669 191.151C162.308 191.294 161.928 191.381 161.541 191.41L161.129 191.444Z" fill="#232323"/>
<path d="M142.157 70.2803H86.3208C84.3584 70.2803 82.7676 71.8711 82.7676 73.8335V74.1775C82.7676 76.1399 84.3584 77.7307 86.3208 77.7307H142.157C144.119 77.7307 145.71 76.1399 145.71 74.1775V73.8335C145.71 71.8711 144.119 70.2803 142.157 70.2803Z" fill="#E6E6E6"/>
<path d="M73.0782 65.8359H61.6177C60.0167 65.8359 58.7188 67.1338 58.7188 68.7349V80.1954C58.7188 81.7964 60.0167 83.0943 61.6177 83.0943H73.0782C74.6792 83.0943 75.9772 81.7964 75.9772 80.1954V68.7349C75.9772 67.1338 74.6792 65.8359 73.0782 65.8359Z" fill="#FFD43C"/>
<path d="M61.3848 74.7131L63.1275 72.9759L66.4777 75.9595L72.0782 70.3364L73.6912 72.0735L66.2295 79.3097L61.3848 74.7131Z" fill="white"/>
<path d="M142.157 97.0532H86.3208C84.3584 97.0532 82.7676 98.644 82.7676 100.606V100.95C82.7676 102.913 84.3584 104.504 86.3208 104.504H142.157C144.119 104.504 145.71 102.913 145.71 100.95V100.606C145.71 98.644 144.119 97.0532 142.157 97.0532Z" fill="#E6E6E6"/>
<path d="M73.0782 92.6143H61.6177C60.0167 92.6143 58.7188 93.9122 58.7188 95.5132V106.974C58.7188 108.575 60.0167 109.873 61.6177 109.873H73.0782C74.6792 109.873 75.9772 108.575 75.9772 106.974V95.5132C75.9772 93.9122 74.6792 92.6143 73.0782 92.6143Z" fill="#FFD43C"/>
<path d="M61.3848 101.492L63.1275 99.7548L66.4777 102.733L72.0782 97.1152L73.6912 98.8524L66.2295 106.088L61.3848 101.492Z" fill="white"/>
<path d="M142.157 123.832H86.3208C84.3584 123.832 82.7676 125.423 82.7676 127.385V127.729C82.7676 129.692 84.3584 131.282 86.3208 131.282H142.157C144.119 131.282 145.71 129.692 145.71 127.729V127.385C145.71 125.423 144.119 123.832 142.157 123.832Z" fill="#E6E6E6"/>
<path d="M73.0782 119.388H61.6177C60.0167 119.388 58.7188 120.686 58.7188 122.287V133.747C58.7188 135.348 60.0167 136.646 61.6177 136.646H73.0782C74.6792 136.646 75.9772 135.348 75.9772 133.747V122.287C75.9772 120.686 74.6792 119.388 73.0782 119.388Z" fill="#FFD43C"/>
<path d="M61.3848 128.265L63.1275 126.528L66.4777 129.511L72.0782 123.888L73.6912 125.625L66.2295 132.861L61.3848 128.265Z" fill="white"/>
<path d="M142.157 150.605H86.3208C84.3584 150.605 82.7676 152.196 82.7676 154.158V154.502C82.7676 156.465 84.3584 158.055 86.3208 158.055H142.157C144.119 158.055 145.71 156.465 145.71 154.502V154.158C145.71 152.196 144.119 150.605 142.157 150.605Z" fill="#E6E6E6"/>
<path d="M73.0782 146.167H61.6177C60.0167 146.167 58.7188 147.464 58.7188 149.065V160.526C58.7188 162.127 60.0167 163.425 61.6177 163.425H73.0782C74.6792 163.425 75.9772 162.127 75.9772 160.526V149.065C75.9772 147.464 74.6792 146.167 73.0782 146.167Z" fill="#FFD43C"/>
<path d="M61.3848 155.043L63.1275 153.306L66.4777 156.284L72.0782 150.661L73.6912 152.404L66.2295 159.64L61.3848 155.043Z" fill="white"/>
<path d="M187.365 244.658L186.88 257.387C186.88 257.387 199.655 262.159 199.802 264.516L175.076 264.465L175.02 244.596L187.365 244.658Z" fill="#232323"/>
<path d="M179.238 256.299C179.005 256.371 178.806 256.524 178.677 256.732C178.548 256.939 178.499 257.186 178.539 257.427C178.6 257.667 178.752 257.874 178.962 258.005C179.172 258.136 179.424 258.182 179.667 258.132C179.918 258.056 180.132 257.889 180.268 257.664C180.403 257.439 180.45 257.171 180.4 256.914C180.308 256.67 180.126 256.472 179.892 256.36C179.658 256.247 179.389 256.229 179.142 256.31" fill="#E6E6E6"/>
<path d="M175.076 264.466L175.149 262.463L198.837 263.264C198.837 263.264 199.965 263.744 199.813 264.516L175.076 264.466Z" fill="#455A64"/>
<path d="M187.282 257.263C187.282 257.381 186.673 257.438 186.08 257.827C185.488 258.216 185.167 258.718 185.054 258.667C184.941 258.617 185.127 257.923 185.855 257.472C186.582 257.02 187.31 257.15 187.282 257.263Z" fill="white"/>
<path d="M189.869 258.341C189.897 258.459 189.379 258.662 188.967 259.17C188.555 259.677 188.437 260.224 188.313 260.219C188.189 260.213 188.121 259.531 188.64 258.905C189.159 258.279 189.869 258.228 189.869 258.341Z" fill="white"/>
<path d="M191.336 261.448C191.229 261.448 191.059 260.884 191.375 260.207C191.691 259.53 192.249 259.288 192.3 259.389C192.351 259.491 192.001 259.841 191.736 260.388C191.471 260.935 191.46 261.437 191.336 261.448Z" fill="white"/>
<path d="M187.073 254.364C187.022 254.477 186.464 254.308 185.782 254.364C185.099 254.42 184.569 254.624 184.507 254.522C184.445 254.42 184.958 253.958 185.759 253.958C186.56 253.958 187.13 254.257 187.073 254.364Z" fill="white"/>
<path d="M157.102 242.92L155.765 258.312L158.207 270.72C158.249 270.933 158.247 271.152 158.2 271.363C158.154 271.575 158.065 271.775 157.938 271.951C157.811 272.126 157.649 272.274 157.462 272.384C157.276 272.495 157.069 272.566 156.854 272.592C156.604 272.625 156.35 272.597 156.113 272.51C155.877 272.424 155.664 272.282 155.494 272.096C153.295 269.693 145.23 260.816 145.393 259.688C145.579 258.391 145.731 243.394 145.731 243.394L157.102 242.92Z" fill="#232323"/>
<path d="M156.853 272.604L145.46 258.673L145.415 259.328C145.38 259.89 145.544 260.447 145.877 260.901C146.785 262.108 149.351 265.413 155.465 272.108C155.641 272.299 155.861 272.445 156.105 272.531C156.35 272.618 156.613 272.643 156.87 272.604H156.853Z" fill="#455A64"/>
<g opacity="0.6">
<path d="M148.935 253.913C149.115 254.065 149.233 254.277 149.266 254.51C149.3 254.743 149.246 254.98 149.116 255.176C148.971 255.361 148.76 255.484 148.528 255.52C148.295 255.556 148.058 255.501 147.864 255.368C147.674 255.206 147.55 254.979 147.517 254.731C147.484 254.484 147.543 254.232 147.683 254.026C147.854 253.848 148.087 253.744 148.333 253.735C148.579 253.725 148.819 253.811 149.003 253.975" fill="white"/>
</g>
<path d="M153.767 265.644C154.168 265.182 154.652 264.8 155.194 264.516C155.772 264.325 156.381 264.248 156.988 264.291C156.988 264.251 156.813 264.122 156.458 264.048C155.988 263.965 155.504 264.019 155.063 264.201C154.623 264.384 154.244 264.689 153.97 265.08C153.767 265.419 153.733 265.644 153.767 265.644Z" fill="white"/>
<path d="M154.733 267.787C155.19 267.574 155.659 267.385 156.137 267.223C156.641 267.164 157.147 267.132 157.654 267.127C157.427 266.965 157.164 266.86 156.887 266.82C156.611 266.779 156.328 266.806 156.064 266.896C155.139 267.094 154.654 267.742 154.733 267.787Z" fill="white"/>
<path d="M151.902 262.886C151.964 262.965 152.771 262.237 154.006 261.854C155.241 261.47 156.313 261.572 156.324 261.47C156.335 261.369 155.224 261.098 153.905 261.532C153.097 261.73 152.387 262.21 151.902 262.886Z" fill="white"/>
<path d="M151.918 258.183C151.952 258.279 152.82 257.98 153.931 258.008C155.043 258.036 155.9 258.363 155.939 258.267C155.339 257.891 154.648 257.685 153.94 257.67C153.232 257.655 152.533 257.832 151.918 258.183Z" fill="white"/>
<path d="M152.195 253.665C152.878 253.489 153.582 253.409 154.288 253.428C155.455 253.529 156.239 254.155 156.295 254.071C156.352 253.986 156.166 253.834 155.827 253.608C155.373 253.319 154.857 253.141 154.321 253.089C153.787 253.034 153.248 253.107 152.748 253.304C152.364 253.462 152.173 253.631 152.195 253.665Z" fill="white"/>
<path d="M154.316 252.565C154.378 252.384 154.399 252.191 154.378 252.001C154.359 251.465 154.234 250.938 154.011 250.45C153.879 250.076 153.627 249.757 153.295 249.542C153.179 249.483 153.048 249.461 152.919 249.478C152.79 249.495 152.669 249.551 152.573 249.638C152.397 249.823 152.295 250.065 152.285 250.32C152.292 250.838 152.477 251.337 152.809 251.735C153.141 252.132 153.599 252.403 154.107 252.503C154.612 252.587 155.131 252.519 155.598 252.309C156.065 252.098 156.459 251.753 156.729 251.318C156.797 251.208 156.841 251.085 156.856 250.956C156.872 250.828 156.859 250.697 156.82 250.574C156.768 250.454 156.68 250.353 156.567 250.286C156.455 250.219 156.324 250.19 156.194 250.202C155.809 250.26 155.447 250.42 155.145 250.664C154.704 250.97 154.322 251.352 154.017 251.792C153.891 251.942 153.799 252.117 153.746 252.305C154.185 251.753 154.702 251.267 155.28 250.862C155.55 250.66 155.866 250.53 156.199 250.484C156.27 250.474 156.343 250.489 156.405 250.524C156.467 250.56 156.516 250.615 156.543 250.681C156.563 250.764 156.565 250.849 156.551 250.932C156.536 251.016 156.505 251.095 156.459 251.166C156.213 251.535 155.867 251.826 155.461 252.004C155.055 252.182 154.607 252.24 154.169 252.17C153.738 252.088 153.348 251.861 153.062 251.528C152.776 251.196 152.612 250.776 152.595 250.337C152.597 250.161 152.661 249.991 152.776 249.858C152.827 249.806 152.894 249.771 152.966 249.76C153.038 249.749 153.112 249.761 153.176 249.796C153.455 249.978 153.672 250.242 153.797 250.551C154.087 251.187 154.263 251.868 154.316 252.565Z" fill="white"/>
<path d="M199.272 137.317C200.465 142.592 200.868 148.015 200.467 153.408C200.219 156.837 188.657 251.488 188.657 251.488H173.068L177.451 162.528L176.176 162.804C176.176 162.804 167.665 200.745 166.971 206.887C166.351 212.408 159.171 252.526 159.171 252.526L144.947 252.672L149.459 199.656L154.755 148.744L156.791 133.899L199.272 137.317Z" fill="#232323"/>
<path d="M176.887 156.493C176.887 156.493 176.915 156.539 176.988 156.601C177.101 156.684 177.23 156.744 177.366 156.775C177.623 156.83 177.889 156.827 178.144 156.767C178.4 156.706 178.639 156.59 178.844 156.426C179.138 156.175 179.379 155.867 179.553 155.521C179.726 155.175 179.828 154.798 179.853 154.412C179.966 153.566 179.983 152.658 180.045 151.694C180.152 149.765 180.231 148.022 180.271 146.759C180.319 146.077 180.319 145.393 180.271 144.711C180.144 145.383 180.071 146.064 180.051 146.747C179.955 148.011 179.842 149.748 179.735 151.677C179.673 152.636 179.662 153.566 179.571 154.373C179.538 155.089 179.229 155.764 178.708 156.257C178.528 156.412 178.318 156.528 178.091 156.598C177.864 156.668 177.625 156.69 177.389 156.663C177.216 156.622 177.048 156.565 176.887 156.493Z" fill="#455A64"/>
<path d="M153.971 147.34C154.105 147.418 154.252 147.471 154.405 147.498C154.813 147.604 155.231 147.674 155.651 147.706C157.05 147.826 158.458 147.616 159.76 147.093C161.063 146.57 162.225 145.748 163.153 144.695C163.432 144.377 163.684 144.038 163.908 143.679C164.002 143.551 164.074 143.408 164.123 143.256C164.078 143.256 163.728 143.787 162.995 144.542C162.052 145.526 160.91 146.297 159.646 146.805C158.382 147.312 157.024 147.545 155.663 147.486C154.602 147.453 153.971 147.289 153.971 147.34Z" fill="#455A64"/>
<path d="M193.063 143.38C193.058 143.91 193.138 144.438 193.3 144.943C193.958 147.441 195.425 149.65 197.473 151.225C197.879 151.57 198.336 151.849 198.827 152.055C198.894 151.97 196.746 150.746 195.121 148.264C193.497 145.783 193.164 143.346 193.063 143.38Z" fill="#455A64"/>
<path d="M240.681 116.601L244.256 117.729L250.754 114.137L254.442 124.407L245.599 126.511L238.898 125.772L240.681 116.601Z" fill="#F3BDAB"/>
<path d="M199.092 75.373C199.092 75.373 202.747 77.567 205.775 85.0231C211.72 99.6871 215.459 107.583 215.459 107.583L242.734 116.184L240.551 127.126C240.551 127.126 212.882 123.268 209.176 121.88C204.1 119.98 200.344 109.98 200.344 109.98L199.092 75.373Z" fill="#E6E6E6"/>
<path d="M191.567 42.5201C192.267 42.5459 192.953 42.3157 193.496 41.8725C194.039 41.4292 194.402 40.8034 194.516 40.112C194.631 39.4206 194.49 38.7112 194.119 38.1163C193.749 37.5214 193.174 37.082 192.503 36.8801C192.92 36.4081 193.178 35.8166 193.239 35.1898C193.301 34.563 193.163 33.9328 192.846 33.3887C192.528 32.8447 192.048 32.4145 191.472 32.1594C190.896 31.9043 190.254 31.8372 189.638 31.9677C189.581 31.3503 189.365 30.7583 189.011 30.2494C188.657 29.7404 188.177 29.332 187.618 29.0638C187.059 28.7957 186.44 28.677 185.821 28.7194C185.203 28.7617 184.606 28.9637 184.088 29.3056C183.362 28.7746 182.48 28.5012 181.581 28.5288C180.681 28.5563 179.817 28.8833 179.125 29.4579C178.518 29.3824 177.903 29.503 177.37 29.802C176.837 30.1011 176.413 30.5629 176.161 31.1199C175.909 31.677 175.842 32.3001 175.969 32.8981C176.097 33.4961 176.412 34.0377 176.869 34.4436" fill="#232323"/>
<path d="M178.651 32.3119H179.283C182.35 32.157 185.363 33.1635 187.721 35.1306C190.079 37.0978 191.609 39.8813 192.007 42.9264C192.774 48.8033 193.547 55.3006 193.665 58.4646C193.913 65.0183 187.41 66.3606 187.41 66.3606L188.358 74.2002L172.436 74.4991L169.616 46.0284C168.686 39.2322 171.855 33.0508 178.651 32.3119Z" fill="#F3BDAB"/>
<path d="M187.467 66.3265C184.434 66.4726 181.422 65.7486 178.787 64.2397C178.787 64.2397 181.043 68.8533 187.546 67.9396L187.467 66.3265Z" fill="#6F4439"/>
<path d="M189.65 48.9439C189.666 49.1871 189.586 49.4268 189.426 49.6114C189.267 49.796 189.042 49.9107 188.799 49.9309C188.563 49.9562 188.326 49.8866 188.141 49.7375C187.956 49.5884 187.837 49.3719 187.812 49.1356C187.799 48.8921 187.881 48.6532 188.041 48.4692C188.201 48.2851 188.426 48.1702 188.669 48.1486C188.786 48.1361 188.904 48.1468 189.016 48.18C189.129 48.2133 189.234 48.2684 189.325 48.3423C189.416 48.4162 189.492 48.5074 189.548 48.6106C189.604 48.7139 189.638 48.8271 189.65 48.9439Z" fill="#232323"/>
<path d="M190.761 46.175C190.648 46.3047 189.915 45.814 188.905 45.8648C187.896 45.9155 187.213 46.457 187.072 46.3442C186.931 46.2314 187.123 46.0622 187.433 45.814C187.854 45.4909 188.364 45.3057 188.894 45.2838C189.418 45.2558 189.937 45.3939 190.378 45.6786C190.699 45.9042 190.812 46.1186 190.761 46.175Z" fill="#232323"/>
<path d="M180.48 49.1981C180.489 49.3208 180.474 49.4441 180.435 49.5609C180.396 49.6777 180.334 49.7856 180.254 49.8785C180.173 49.9713 180.074 50.0472 179.964 50.1018C179.854 50.1563 179.734 50.1885 179.611 50.1963C179.493 50.212 179.372 50.2038 179.257 50.172C179.142 50.1403 179.034 50.0857 178.94 50.0115C178.847 49.9373 178.769 49.845 178.712 49.7402C178.654 49.6353 178.619 49.52 178.607 49.4011C178.593 49.1582 178.674 48.9193 178.833 48.735C178.992 48.5508 179.216 48.4357 179.459 48.4141C179.578 48.3959 179.699 48.4019 179.815 48.4318C179.932 48.4617 180.041 48.5149 180.136 48.5882C180.232 48.6614 180.311 48.7532 180.37 48.858C180.429 48.9628 180.466 49.0785 180.48 49.1981Z" fill="#232323"/>
<path d="M180.875 46.8572C180.762 46.9813 180.029 46.4906 179.025 46.547C178.021 46.6034 177.305 47.111 177.186 47.0208C177.068 46.9305 177.237 46.7444 177.547 46.4906C177.968 46.1675 178.478 45.9823 179.008 45.9604C179.533 45.9329 180.052 46.0731 180.491 46.3609C180.813 46.5808 180.926 46.8121 180.875 46.8572Z" fill="#232323"/>
<path d="M184.896 54.1441C185.419 53.9517 185.965 53.8247 186.52 53.7662C186.774 53.7267 187.016 53.6647 187.05 53.4899C187.057 53.2228 186.984 52.9598 186.841 52.7341C186.565 52.125 186.277 51.482 185.984 50.8165C184.789 48.0811 183.909 45.8251 184.021 45.78C184.134 45.7349 185.189 47.9119 186.385 50.6473C186.672 51.3185 186.949 51.9614 187.208 52.5762C187.386 52.8784 187.452 53.234 187.394 53.5801C187.362 53.6728 187.308 53.7566 187.237 53.8251C187.167 53.8936 187.082 53.9448 186.988 53.9749C186.848 54.0216 186.702 54.0501 186.554 54.0595C186.007 54.1583 185.45 54.1867 184.896 54.1441Z" fill="#232323"/>
<path d="M181.556 42.9376C181.432 43.2027 180.557 42.9658 179.491 42.9827C178.425 42.9996 177.546 43.2252 177.433 42.9827C177.388 42.8586 177.562 42.6161 177.935 42.4187C178.416 42.1452 178.96 42.0014 179.514 42.0013C180.059 41.9929 180.596 42.1292 181.071 42.3961C181.437 42.5766 181.606 42.8135 181.556 42.9376Z" fill="#232323"/>
<path d="M190.632 42.0238C190.429 42.2607 189.588 42.0633 188.584 42.1028C187.58 42.1423 186.751 42.351 186.543 42.1028C186.452 41.99 186.571 41.7531 186.932 41.5388C187.428 41.2422 187.995 41.0844 188.573 41.082C189.148 41.0555 189.719 41.1862 190.226 41.4598C190.564 41.6742 190.688 41.9054 190.632 42.0238Z" fill="#232323"/>
<path d="M191.229 39.9256C191.229 39.9256 189.295 35.9099 187.281 35.0526C184.828 34.0149 183.931 36.6939 181.641 36.1806C179.351 35.6674 176.983 34.6578 174.738 36.5359C172.284 38.5945 173.548 39.8861 173.531 42.802C173.48 54.6178 171.495 58.0582 170.604 52.5366C170.508 51.9331 168.793 51.5327 168.415 48.9778C167.93 45.6615 167.598 41.6458 168.224 39.2206C168.754 37.1958 169.82 35.7633 171.783 34.1446C174.879 31.5897 179.295 31.3246 182.312 31.4712C185.33 31.6179 191.246 34.7763 191.229 39.9256Z" fill="#232323"/>
<path d="M170.981 52.3282C170.961 52.0879 170.892 51.8542 170.779 51.6412C170.666 51.4282 170.511 51.2404 170.323 51.0891C170.136 50.9377 169.919 50.8261 169.687 50.7608C169.455 50.6956 169.212 50.6781 168.973 50.7095C167.755 50.8843 166.435 51.6457 166.638 54.1668C167.005 58.6393 171.415 57.3478 171.415 57.2237C171.415 57.0996 171.15 54.195 170.981 52.3282Z" fill="#F3BDAB"/>
<path d="M170.327 55.6164C170.327 55.6164 170.253 55.6785 170.129 55.7518C169.954 55.8392 169.754 55.8593 169.565 55.8082C169.074 55.6728 168.618 54.9565 168.527 54.1556C168.486 53.7747 168.53 53.3893 168.657 53.0276C168.688 52.8843 168.752 52.7505 168.845 52.6376C168.939 52.5246 169.058 52.4359 169.193 52.3791C169.281 52.349 169.376 52.3499 169.464 52.3818C169.551 52.4136 169.624 52.4743 169.672 52.5539C169.74 52.678 169.717 52.7682 169.746 52.7739C169.774 52.7795 169.836 52.6892 169.785 52.5088C169.746 52.4019 169.675 52.3095 169.582 52.2437C169.518 52.2012 169.446 52.1724 169.37 52.1588C169.295 52.1452 169.217 52.1472 169.142 52.1647C168.961 52.2161 168.797 52.3131 168.665 52.4464C168.532 52.5798 168.436 52.745 168.386 52.9261C168.228 53.3291 168.17 53.7647 168.217 54.1951C168.319 55.0919 168.849 55.8871 169.514 56.0338C169.637 56.0592 169.764 56.0562 169.885 56.0249C170.006 55.9936 170.119 55.9349 170.214 55.8533C170.327 55.7292 170.327 55.6277 170.327 55.6164Z" fill="#6F4439"/>
<path d="M170.638 43.6484C171.211 44.0665 171.88 44.3341 172.584 44.4267C172.938 44.4617 173.292 44.3665 173.581 44.1588C173.87 43.9512 174.073 43.6453 174.152 43.2987C174.191 42.9828 174.095 42.6275 174.287 42.3737C174.479 42.1199 174.975 42.1425 175.353 42.1651C176.662 42.2384 178.111 40.7212 178.376 39.4409C178.56 39.6734 178.825 39.8276 179.118 39.8726C179.411 39.9176 179.71 39.85 179.955 39.6834C180.355 39.4094 180.705 39.0677 180.987 38.6739C181.15 38.4218 181.372 38.213 181.633 38.0656C181.895 37.9183 182.188 37.8367 182.488 37.8279C182.807 37.9202 183.137 37.9751 183.469 37.9914C184.033 37.9125 184.309 37.2075 184.371 36.6209C184.434 36.0344 184.467 35.3463 184.935 35.0079C185.404 34.6695 185.99 34.8274 186.537 34.8838C187.084 34.9402 187.772 34.7766 187.885 34.2352C187.902 34.0922 187.89 33.9472 187.848 33.8094C187.806 33.6716 187.736 33.5439 187.643 33.4343C187.252 32.9125 186.696 32.5375 186.066 32.3697C185.436 32.2019 184.767 32.2511 184.168 32.5094C183.901 31.782 183.426 31.1494 182.802 30.6902C182.178 30.2311 181.432 29.9657 180.659 29.9272C179.885 29.8888 179.117 30.0788 178.45 30.4738C177.783 30.8688 177.248 31.4512 176.91 32.1484C176.412 31.7415 175.824 31.4604 175.195 31.329C174.566 31.1975 173.915 31.2196 173.296 31.3934C172.678 31.5672 172.11 31.8875 171.641 32.3272C171.173 32.7669 170.817 33.313 170.604 33.9194C170.048 33.8037 169.471 33.8537 168.943 34.0633C168.416 34.2728 167.961 34.6327 167.636 35.0982C167.312 35.5636 167.13 36.1143 167.116 36.6817C167.101 37.2492 167.253 37.8085 167.553 38.2904C167.148 38.5168 166.806 38.8426 166.562 39.2373C166.317 39.632 166.177 40.0825 166.154 40.5464C166.154 41.4713 167.13 42.3512 168.015 42.0635C167.921 42.2524 167.864 42.4581 167.849 42.6689C167.833 42.8796 167.86 43.0914 167.926 43.2919C167.993 43.4925 168.098 43.678 168.236 43.8379C168.375 43.9978 168.543 44.1288 168.732 44.2237C168.921 44.3185 169.126 44.3751 169.337 44.3904C169.548 44.4058 169.76 44.3794 169.96 44.3129C170.161 44.2464 170.346 44.141 170.506 44.0028C170.666 43.8646 170.797 43.6962 170.892 43.5074" fill="#232323"/>
<path d="M184.568 33.8403C184.568 33.8403 184.568 33.8685 184.568 33.9249C184.568 33.9813 184.568 34.0603 184.568 34.1675C184.521 34.4719 184.426 34.7669 184.286 35.0417C184.064 35.4854 183.741 35.8716 183.344 36.1697C182.825 36.5684 182.189 36.7845 181.534 36.7844L181.607 36.6603C181.761 37.0616 181.751 37.5073 181.579 37.9011C181.395 38.308 181.156 38.6876 180.868 39.0291C180.729 39.2338 180.569 39.4229 180.389 39.5931C180.186 39.749 179.948 39.8518 179.695 39.8921C179.433 39.9432 179.162 39.9293 178.907 39.8517C178.651 39.774 178.418 39.6349 178.229 39.4465L178.392 39.3901C178.353 39.8543 178.218 40.3052 177.994 40.7141C177.771 41.1229 177.465 41.4807 177.095 41.7645C176.685 42.1037 176.177 42.3015 175.646 42.3285C175.149 42.3302 174.655 42.2482 174.185 42.086L174.298 42.024C174.084 42.5689 173.736 43.0516 173.288 43.4283C173.085 43.6209 172.841 43.7658 172.575 43.8526C172.309 43.9395 172.026 43.966 171.748 43.9303C171.277 43.8518 170.839 43.6386 170.487 43.3163C170.135 42.9939 169.883 42.5764 169.763 42.1142L169.865 42.1593C169.407 42.4332 168.869 42.5389 168.342 42.4583C167.947 42.4072 167.57 42.2621 167.242 42.0353C167.037 41.8919 166.858 41.7145 166.712 41.5107C166.66 41.4418 166.618 41.3658 166.588 41.2851C166.778 41.5544 167.015 41.7874 167.287 41.9732C167.607 42.1824 167.973 42.312 168.353 42.3511C168.854 42.4182 169.363 42.3085 169.791 42.0409L169.876 41.9901V42.086C169.993 42.5197 170.234 42.9101 170.568 43.2103C170.902 43.5105 171.316 43.7077 171.76 43.778C172.014 43.8099 172.271 43.7838 172.514 43.7018C172.756 43.6197 172.976 43.4838 173.158 43.3043C173.576 42.9347 173.896 42.4678 174.089 41.945L174.117 41.8604H174.208C174.657 42.0183 175.13 42.0984 175.606 42.0973C176.096 42.0743 176.566 41.8921 176.943 41.5784C177.296 41.3101 177.588 40.9705 177.801 40.5818C178.013 40.1932 178.142 39.7641 178.178 39.3224V39.1137L178.33 39.266C178.497 39.4321 178.702 39.5549 178.927 39.6237C179.152 39.6925 179.391 39.7053 179.622 39.6608C179.847 39.6265 180.06 39.5374 180.242 39.4014C180.408 39.2481 180.557 39.0779 180.688 38.8938C180.973 38.567 181.208 38.2003 181.387 37.8053C181.469 37.6295 181.515 37.4391 181.522 37.2453C181.529 37.0515 181.496 36.8583 181.427 36.6773L181.387 36.5701H181.5C182.125 36.5766 182.735 36.3786 183.237 36.0061C183.632 35.7368 183.962 35.3821 184.202 34.9683C184.388 34.6163 184.512 34.2347 184.568 33.8403Z" fill="#455A64"/>
<path d="M184.851 57.5959C184.817 57.4267 183.723 57.7143 182.707 56.9868C181.692 56.2592 181.501 55.0635 181.348 55.0974C181.196 55.1312 181.202 55.4076 181.32 55.9039C181.48 56.543 181.86 57.1057 182.392 57.4944C182.904 57.8672 183.541 58.0269 184.168 57.9399C184.636 57.861 184.873 57.6692 184.851 57.5959Z" fill="#232323"/>
<path d="M211.432 99.0047C211.331 98.6494 205.499 82.7785 203.644 79.3042C201.416 75.1475 196.735 73.3089 193.83 73.1002C190.925 72.8915 159.849 75.4013 159.849 75.4013C159.849 75.4013 150.565 77.4769 149.381 85.4631C148.016 94.6563 146.826 115.699 146.826 115.699L160.971 108.446L162.804 103.833L192.076 110.364L199.222 99.8282L211.432 99.0047Z" fill="#E6E6E6"/>
<path d="M157.796 76.3319L169.933 70.9795L171.292 65.7456L185.465 72.4459L188.432 69.1634L189.678 72.8633L192.78 73.8785L200.039 86.6418V113.838L201.506 137.3L199.909 141L186.909 142.918C185.488 143.126 184.044 143.126 182.623 142.918L156.228 138.614L155.551 130.848L158.371 109.478L157.796 76.3319Z" fill="#E6E6E6"/>
<path d="M171.292 65.7456C171.292 65.7456 172.877 66.2024 176.932 68.3738C180.92 70.5001 185.449 72.4459 185.449 72.4459L185.105 78.8417L170.023 71.2728" fill="#E6E6E6"/>
<path d="M188.431 69.1636L185.465 72.4461L187.05 79.3043L189.695 73.1059" fill="#E6E6E6"/>
<g opacity="0.3">
<path d="M185.521 73.151C185.651 73.2525 186.475 81.047 186.475 81.047L171.359 71.9102L185.121 78.8192L185.521 73.151Z" fill="#232323"/>
</g>
<path d="M185.419 102.327C185.188 96.3484 186.13 81.0978 186.13 81.0978L188.104 80.7764C190.618 91.6341 192.314 102.665 193.18 113.776C193.744 121.108 193.744 129.653 193.744 129.653L189.796 138.146L185.419 129.686C185.419 129.686 185.696 109.597 185.419 102.327Z" fill="#455A64"/>
<path d="M156.892 77.2681C156.864 77.2963 157.298 77.6347 157.913 78.2663C159.51 79.92 160.619 81.9832 161.116 84.2278C161.302 85.0851 161.348 85.6322 161.381 85.6266C161.402 85.4996 161.402 85.37 161.381 85.243C161.361 84.8928 161.317 84.5443 161.252 84.1996C161.051 83.0548 160.67 81.9489 160.124 80.9228C159.573 79.8978 158.865 78.9654 158.026 78.1592C157.775 77.915 157.507 77.6888 157.225 77.4824C157.122 77.3985 157.011 77.3266 156.892 77.2681Z" fill="#232323"/>
<path d="M185.42 75.503L186.768 74.9785L188.048 77.1725L188.279 80.7764L186.475 81.0697L185.121 78.8419L185.42 75.503Z" fill="#455A64"/>
<path d="M200.015 86.23C199.959 86.23 199.908 94.0357 199.908 103.658C199.908 113.279 199.959 121.091 200.015 121.091C200.072 121.091 200.123 113.291 200.123 103.658C200.123 94.0245 200.072 86.23 200.015 86.23Z" fill="#232323"/>
<path d="M185.324 72.3895C185.558 72.8363 185.814 73.2711 186.091 73.6923C186.709 74.7348 187.274 75.8078 187.783 76.9071C187.834 77.0143 187.885 77.1158 187.93 77.2173L188.026 77.4204L188.122 77.2173C188.614 76.1816 189.034 75.1131 189.379 74.0194C189.509 73.6077 189.605 73.2693 189.661 73.0324C189.707 72.9137 189.73 72.7874 189.729 72.6602C189.701 72.6602 189.543 73.1622 189.244 73.9743C188.859 75.0467 188.421 76.0989 187.93 77.1271H188.122L187.975 76.8169C187.456 75.7098 186.863 74.6395 186.198 73.6134C185.939 73.2242 185.719 72.914 185.561 72.6997C185.403 72.4854 185.335 72.3782 185.324 72.3895Z" fill="#232323"/>
<path d="M169.932 70.9795C169.996 71.0285 170.066 71.0701 170.14 71.1036L170.749 71.4251L173.005 72.5925C174.906 73.5795 177.517 74.9895 180.394 76.5405C182.148 77.4768 183.812 78.3453 185.261 79.0673L185.397 79.1349V78.9601C185.397 77.082 185.43 75.5028 185.442 74.3579C185.442 73.7939 185.442 73.3878 185.442 73.0606C185.453 72.9067 185.453 72.7521 185.442 72.5982C185.415 72.7509 185.402 72.9056 185.402 73.0606C185.402 73.3821 185.374 73.8164 185.351 74.3522C185.323 75.4802 185.284 77.082 185.233 78.9545L185.368 78.8755C183.93 78.1367 182.272 77.2625 180.512 76.3262C177.63 74.7865 175.013 73.3991 173.096 72.4403C172.137 71.9665 171.353 71.5886 170.811 71.3123L170.18 71.0303C170.1 71.0012 170.016 70.9841 169.932 70.9795Z" fill="#232323"/>
<path d="M198.195 75.9145C198.161 75.9145 198.398 76.3318 198.708 77.0425C199.101 77.9333 199.39 78.8662 199.571 79.823C199.744 80.7828 199.804 81.7594 199.751 82.7332C199.712 83.4833 199.633 83.9402 199.667 83.9458C199.714 83.8458 199.746 83.7394 199.763 83.63C199.824 83.3375 199.869 83.0419 199.898 82.7445C200.1 80.7614 199.732 78.7617 198.838 76.9804C198.708 76.7107 198.559 76.4505 198.392 76.2021C198.274 75.9991 198.206 75.9032 198.195 75.9145Z" fill="#232323"/>
<path d="M186.807 81.3006C186.807 81.3513 187.18 81.1878 187.569 80.9396C187.958 80.6914 188.257 80.4546 188.223 80.4038C187.943 80.4635 187.68 80.587 187.456 80.7648C187.067 81.0129 186.774 81.2498 186.807 81.3006Z" fill="#232323"/>
<path d="M186.158 80.4209C186.523 79.8438 186.829 79.2316 187.072 78.5935C187.378 77.9888 187.625 77.3561 187.811 76.7041C187.439 77.2763 187.131 77.8871 186.891 78.5258C186.582 79.1304 186.336 79.7655 186.158 80.4209Z" fill="#232323"/>
<path d="M155.308 77.6743C155.308 77.6743 150.633 81.0583 150.046 82.9026C149.46 84.7469 146.978 114.989 146.538 118.587C146.098 122.185 145.658 128.902 148.439 131.096C151.219 133.29 157.209 134.937 157.209 134.937L162.742 123.516L159.809 117.374L162.742 94.4195L155.308 77.6743Z" fill="#E6E6E6"/>
<path d="M155.871 134.531C155.97 134.521 156.071 134.521 156.17 134.531C156.459 134.529 156.747 134.51 157.033 134.474C158.106 134.376 159.135 134.003 160.022 133.392C161.346 132.409 162.341 131.048 162.876 129.489C163.598 127.518 163.965 125.434 163.959 123.335L163.987 123.414L159.689 117.464L159.656 117.419V117.363C159.656 117.21 159.695 117.041 159.718 116.878C160.541 110.442 161.291 104.611 161.838 100.364C162.109 98.2713 162.329 96.5681 162.487 95.3611C162.56 94.7971 162.617 94.3346 162.662 93.9962C162.707 93.6578 162.724 93.5225 162.729 93.5225C162.739 93.5633 162.739 93.6057 162.729 93.6465C162.729 93.7255 162.729 93.8496 162.729 94.0019C162.695 94.3403 162.656 94.7971 162.605 95.3724C162.487 96.5568 162.295 98.2713 162.041 100.386C161.545 104.622 160.829 110.465 160.005 116.917C160.005 117.081 159.966 117.244 159.943 117.397V117.295L164.224 123.251V123.29V123.33C164.223 125.462 163.841 127.576 163.096 129.573C162.528 131.162 161.489 132.539 160.118 133.521C159.601 133.875 159.03 134.14 158.426 134.305L158.042 134.412L157.682 134.474C157.473 134.516 157.262 134.541 157.05 134.548C156.761 134.573 156.47 134.573 156.181 134.548C156.078 134.553 155.974 134.547 155.871 134.531Z" fill="#232323"/>
<path d="M150.22 119.478C150.581 119.123 150.996 118.828 151.449 118.604C153.587 117.408 156.052 116.927 158.482 117.233C158.986 117.274 159.481 117.391 159.949 117.583C156.576 117.006 153.108 117.679 150.197 119.478H150.22Z" fill="#232323"/>
<path d="M186.919 89.3827C186.919 89.3827 187.19 90.3866 187.613 92.1576C188.574 90.7779 189.801 89.6043 191.223 88.7059C191.223 88.7059 198.442 81.5318 200.749 73.9911C202.441 68.5147 202.006 62.4461 202.006 62.4461C201.939 62.1584 201.375 59.5866 200.918 57.4829C200.737 56.654 200.884 55.7874 201.328 55.0643C201.771 54.3411 202.477 53.8174 203.298 53.6025C206.868 52.6381 216.575 50.76 218.83 57.2685C222.152 66.9975 216.778 77.5049 216.84 80.511C216.84 81.075 216.84 81.5431 216.84 81.9154C219.688 81.2555 221.916 80.7874 221.916 80.8325L240.607 76.4727C240.607 76.4727 246.782 74.6003 248.903 80.934C251.024 87.2677 243.827 89.394 243.827 89.394C243.827 89.394 247.211 89.2417 248.125 95.0002C249.038 100.759 242.863 102.625 242.863 102.625C242.863 102.625 246.647 102.383 247.628 107.487C248.581 112.456 242.406 115.451 242.073 115.609C242.563 115.486 243.061 115.392 243.562 115.327C243.194 115.462 242.817 115.571 242.434 115.654C245.316 116.02 245.733 119.45 245.733 119.45C247.589 126.483 242.174 127.96 242.174 127.96L208.03 135.924C204.629 136.717 201.078 136.588 197.743 135.552C198.07 137.007 198.245 137.808 198.233 137.808L174.393 143.374C174.342 143.374 171.77 132.551 168.646 119.184C165.521 105.818 163.034 94.9325 163.085 94.9325L186.919 89.3827Z" fill="#FFD43C"/>
<g opacity="0.3">
<path d="M186.919 89.3827C186.919 89.3827 187.19 90.3866 187.613 92.1576C188.574 90.7779 189.801 89.6043 191.223 88.7059C191.223 88.7059 198.442 81.5318 200.749 73.9911C202.441 68.5147 202.006 62.4461 202.006 62.4461C201.939 62.1584 201.375 59.5866 200.918 57.4829C200.737 56.654 200.884 55.7874 201.328 55.0643C201.771 54.3411 202.477 53.8174 203.298 53.6025C206.868 52.6381 216.575 50.76 218.83 57.2685C222.152 66.9975 216.778 77.5049 216.84 80.511C216.84 81.075 216.84 81.5431 216.84 81.9154C219.688 81.2555 221.916 80.7874 221.916 80.8325L240.607 76.4727C240.607 76.4727 246.782 74.6003 248.903 80.934C251.024 87.2677 243.827 89.394 243.827 89.394C243.827 89.394 247.211 89.2417 248.125 95.0002C249.038 100.759 242.863 102.625 242.863 102.625C242.863 102.625 246.647 102.383 247.628 107.487C248.581 112.456 242.406 115.451 242.073 115.609C242.563 115.486 243.061 115.392 243.562 115.327C243.194 115.462 242.817 115.571 242.434 115.654C245.316 116.02 245.733 119.45 245.733 119.45C247.589 126.483 242.174 127.96 242.174 127.96L208.03 135.924C204.629 136.717 201.078 136.588 197.743 135.552C198.07 137.007 198.245 137.808 198.233 137.808L174.393 143.374C174.342 143.374 171.77 132.551 168.646 119.184C165.521 105.818 163.034 94.9325 163.085 94.9325L186.919 89.3827Z" fill="#232323"/>
</g>
<path d="M191.529 96.1736L191.066 99.2756L198.692 131.903C200.924 133.386 203.436 134.396 206.073 134.871C208.711 135.346 211.417 135.277 214.027 134.667L248.16 126.697C248.16 126.697 253.575 125.22 251.719 118.187C251.719 118.187 251.273 114.453 248.053 114.351C248.053 114.351 254.595 111.328 253.62 106.224C252.644 101.12 248.859 101.368 248.859 101.368C248.859 101.368 255.035 99.4956 254.116 93.7371C253.197 87.9787 249.818 88.131 249.818 88.131C249.818 88.131 257.009 86.0272 254.894 79.671C252.779 73.3147 246.598 75.2097 246.598 75.2097L222.346 80.8497L201.072 85.8186C198.624 86.3836 196.403 87.6743 194.701 89.5218C192.998 91.3693 191.893 93.6877 191.529 96.1736Z" fill="#FFD43C"/>
<path d="M197.201 87.4709C197.201 87.4709 204.42 80.2969 206.727 72.7562C208.419 67.2797 207.985 61.2167 207.985 61.2167C207.917 60.9235 207.353 58.3516 206.896 56.2479C206.716 55.419 206.863 54.5524 207.306 53.8293C207.75 53.1062 208.456 52.5824 209.276 52.3676C212.863 51.3975 219.333 53.1797 221.56 59.6996C224.882 69.4229 222.75 76.2643 222.807 79.2704L222.863 82.2765L197.201 87.4709Z" fill="#FFD43C"/>
<path d="M192.92 88.1222L169.084 93.6909L180.398 142.12L204.234 136.552L192.92 88.1222Z" fill="#FFD43C"/>
<path d="M204.229 136.573C204.28 136.573 201.792 125.71 198.668 112.321C195.543 98.9312 192.971 88.1137 192.921 88.125C192.87 88.1363 195.357 98.9876 198.482 112.377C201.606 125.766 204.167 136.584 204.229 136.573Z" fill="#232323"/>
<path d="M180.395 142.128C180.445 142.128 177.953 131.266 174.828 117.876C171.703 104.487 169.132 93.6694 169.081 93.6807C169.03 93.692 171.517 104.543 174.642 117.933C177.766 131.322 180.338 142.128 180.395 142.128Z" fill="#232323"/>
<path d="M187.094 101.193C187.3 102.075 187.24 102.998 186.921 103.846C186.602 104.694 186.04 105.428 185.304 105.956C184.568 106.484 183.692 106.781 182.787 106.811C181.882 106.842 180.988 106.603 180.219 106.125C179.449 105.647 178.839 104.952 178.464 104.128C178.09 103.303 177.968 102.386 178.115 101.492C178.262 100.599 178.67 99.7686 179.289 99.107C179.907 98.4454 180.708 97.982 181.59 97.7754C182.773 97.4997 184.017 97.7048 185.049 98.3456C186.081 98.9864 186.817 100.011 187.094 101.193Z" fill="white"/>
<path d="M227.9 79.592C227.9 79.5413 225.277 80.1053 222.074 80.8554C218.87 81.6055 216.276 82.2485 216.287 82.2992C216.298 82.35 218.91 81.786 222.113 81.0415C225.317 80.297 227.911 79.6428 227.9 79.592Z" fill="#232323"/>
<path d="M249.389 101.48C249.389 101.43 247.697 101.779 245.655 102.253C244.406 102.507 243.171 102.827 241.955 103.212C241.955 103.263 243.647 102.913 245.689 102.439C246.937 102.182 248.172 101.862 249.389 101.48Z" fill="#232323"/>
<path d="M250.258 87.8995C250.258 87.8487 247.878 88.3619 244.968 89.0275C242.058 89.693 239.711 90.2965 239.723 90.3529C239.734 90.4093 242.103 89.8904 245.013 89.2249C247.923 88.5593 250.269 87.9841 250.258 87.8995Z" fill="#232323"/>
<path d="M249.553 114.064C249.553 114.013 247.173 114.52 244.263 115.192C241.353 115.863 239.006 116.461 239.018 116.511C239.029 116.562 241.398 116.054 244.308 115.383C247.218 114.712 249.564 114.114 249.553 114.064Z" fill="#232323"/>
<g opacity="0.3">
<path d="M209.481 54.7646C209.143 55.1408 208.912 55.6011 208.813 56.0973C208.713 56.5934 208.749 57.1072 208.917 57.5846C209.274 58.5348 209.71 59.4536 210.22 60.3313C211.199 62.3707 211.48 64.6755 211.021 66.8906C210.88 67.5617 210.694 68.3344 211.122 68.8702C211.731 69.626 212.955 69.2086 213.728 68.6164C215.166 67.4621 216.247 65.9236 216.846 64.1797C217.445 62.4357 217.537 60.5576 217.112 58.7633C216.776 57.2356 215.929 55.8684 214.709 54.8887C213.463 53.9637 211.551 53.129 209.436 54.7477" fill="white"/>
</g>
<g opacity="0.3">
<path d="M248.819 76.0724C247.969 75.9754 247.109 76.0659 246.298 76.3375L231.893 79.9922C230.325 80.3927 227.381 80.748 227.347 82.3497C227.032 83.2239 227.697 84.2166 228.554 84.5719C229.447 84.8598 230.401 84.8949 231.312 84.6734C233.236 84.3689 235.136 83.9177 237.037 83.4665C240.85 82.5528 244.674 81.6165 248.317 80.0825C248.865 79.8844 249.375 79.5965 249.829 79.2308C250.054 79.0456 250.236 78.8123 250.36 78.5478C250.484 78.2833 250.547 77.9945 250.545 77.7024C250.467 77.2829 250.258 76.899 249.948 76.606C249.637 76.3131 249.242 76.1262 248.819 76.0724Z" fill="white"/>
</g>
<path d="M187.619 90.8042C187.619 90.7535 184.235 91.4923 180.157 92.4511C176.079 93.4099 172.729 94.2277 172.74 94.2785C172.752 94.3292 176.09 93.596 180.202 92.6372C184.314 91.6784 187.63 90.8832 187.619 90.8042Z" fill="white"/>
<path d="M251.927 96.3144C251.972 96.2258 252.003 96.1306 252.018 96.0324C252.087 95.7706 252.129 95.5021 252.142 95.2315C252.169 94.8308 252.156 94.4282 252.102 94.0302C252.026 93.5422 251.897 93.0638 251.719 92.6033C251.531 92.1455 251.293 91.7103 251.008 91.3061C250.774 90.9775 250.506 90.6749 250.207 90.4036C250.009 90.2195 249.794 90.0552 249.564 89.913C249.486 89.8513 249.399 89.8036 249.305 89.772C249.305 89.8058 249.637 90.0314 250.117 90.5052C250.393 90.7817 250.642 91.0839 250.861 91.4076C251.129 91.8045 251.356 92.2278 251.538 92.6709C251.711 93.1182 251.842 93.5808 251.927 94.0527C251.987 94.4408 252.013 94.8333 252.006 95.2259C251.989 95.8801 251.888 96.3031 251.927 96.3144Z" fill="white"/>
<path d="M252.587 83.224C252.784 83.0464 252.938 82.8266 253.038 82.581C253.314 82.0034 253.434 81.3639 253.388 80.7255C253.354 80.0879 253.16 79.4691 252.824 78.9263C252.691 78.7013 252.51 78.5086 252.294 78.3623C252.265 78.3623 252.474 78.5992 252.705 79.0109C253.006 79.5435 253.181 80.1376 253.219 80.748C253.259 81.3575 253.163 81.9684 252.937 82.5359C252.739 82.9589 252.559 83.2014 252.587 83.224Z" fill="white"/>
<path d="M250.788 110.414C251.047 110.257 251.266 110.04 251.426 109.783C251.858 109.176 252.069 108.44 252.023 107.697C251.978 106.954 251.68 106.249 251.177 105.699C250.989 105.457 250.745 105.264 250.467 105.135C250.467 105.135 250.738 105.355 251.076 105.773C251.516 106.323 251.78 106.993 251.832 107.696C251.868 108.401 251.687 109.099 251.313 109.698C251.031 110.166 250.76 110.392 250.788 110.414Z" fill="white"/>
<path d="M248.621 123.048C248.808 122.854 248.954 122.624 249.05 122.371C249.316 121.771 249.439 121.117 249.411 120.46C249.382 119.804 249.203 119.163 248.886 118.587C248.769 118.344 248.604 118.127 248.401 117.95C248.373 117.95 248.559 118.209 248.768 118.649C249.035 119.219 249.189 119.836 249.219 120.465C249.245 121.095 249.145 121.724 248.926 122.315C248.757 122.772 248.593 123.031 248.621 123.048Z" fill="white"/>
<path d="M221.825 71.1374C221.889 70.9539 221.936 70.7652 221.966 70.5734C222.006 70.3985 222.051 70.1786 222.091 69.9191C222.13 69.6597 222.181 69.3551 222.203 69.0393C222.287 68.2753 222.315 67.5063 222.288 66.7382C222.232 64.8487 221.872 62.9805 221.222 61.2053C220.958 60.483 220.643 59.78 220.28 59.1016C220.133 58.8027 219.976 58.5376 219.846 58.3289C219.716 58.1203 219.592 57.9172 219.485 57.7649C219.388 57.6017 219.274 57.4486 219.146 57.3081C219.225 57.4809 219.317 57.6469 219.423 57.8044C219.519 57.9623 219.632 58.1541 219.75 58.3684C219.868 58.5827 220.026 58.8535 220.162 59.1524C220.5 59.8353 220.798 60.5378 221.053 61.2561C221.359 62.1372 221.606 63.0379 221.792 63.952C221.959 64.8709 222.067 65.7997 222.113 66.7325C222.144 67.4848 222.129 68.2382 222.068 68.9885C222.068 69.3157 222.012 69.6089 221.983 69.8627C221.955 70.1165 221.921 70.3421 221.893 70.5226C221.848 70.7244 221.825 70.9306 221.825 71.1374Z" fill="white"/>
<path d="M167.4 128.282C167.4 128.282 169.273 126.827 170.666 126.77C172.059 126.714 173.869 127.25 174.23 127.069C174.591 126.889 175.443 126.094 175.984 126.765C176.526 127.436 177.197 129.85 174.292 130.515H172.296C172.296 130.515 172.538 132.512 173.023 133.296C173.508 134.08 180.282 142.607 180.282 142.607C180.282 142.607 181.128 143.459 180.705 144.299C180.282 145.14 178.449 144.66 178.449 144.66C178.449 144.66 177.18 145.788 175.73 145.264C175.01 145.021 174.319 144.698 173.672 144.299C173.203 144.658 172.629 144.852 172.039 144.852C171.449 144.852 170.875 144.658 170.406 144.299C168.714 143.03 163.074 135.952 163.074 135.952L165.093 128.056L167.4 128.282Z" fill="#F3BDAB"/>
<path d="M161.523 123.601L167.4 128.282L163.085 135.958L154.479 132.833C154.479 132.833 154.727 123.764 161.523 123.601Z" fill="#F3BDAB"/>
<path d="M253.19 113.144C253.19 113.144 253.004 111.041 251.825 111.452C250.646 111.864 250.133 114.363 250.133 114.363L253.19 113.144Z" fill="#F3BDAB"/>
<path d="M248.976 115.22C248.976 115.22 251.024 112.93 253.866 113.116C256.709 113.302 254.921 115.716 254.921 115.716C254.921 115.716 257.03 117.013 255.485 118.875L255.237 119.371C255.237 119.371 257.03 120.048 255.175 121.965C255.363 122.309 255.44 122.702 255.395 123.09C255.351 123.479 255.187 123.845 254.927 124.137C253.996 125.062 251.678 123.827 251.678 123.827C251.678 123.827 249.54 124.323 249.354 123.454C249.28 123.163 249.287 122.857 249.374 122.57C249.462 122.283 249.627 122.025 249.851 121.824C250.037 121.7 251.153 121.26 251.153 121.26C251.153 121.26 248.677 121.571 248.615 120.95C248.553 120.33 248.305 119.647 250.161 119.033L251.153 118.768C251.153 118.768 248.582 118.846 248.565 118.204C248.548 117.561 248.429 117.335 249.354 116.906C249.939 116.635 250.504 116.324 251.046 115.976C251.046 115.976 248.61 116.523 248.976 115.22Z" fill="#F3BDAB"/>
<path d="M248.525 117.639C249.453 116.952 250.488 116.422 251.588 116.071C252.709 115.796 253.867 115.705 255.017 115.801C254.697 115.668 254.354 115.595 254.007 115.586C252.318 115.441 250.634 115.916 249.27 116.923C248.977 117.11 248.724 117.354 248.525 117.639Z" fill="#6F4439"/>
<path d="M248.807 121.175C248.807 121.175 248.751 121.096 248.689 120.955C248.617 120.747 248.617 120.521 248.689 120.312C248.784 119.997 248.982 119.723 249.253 119.534C249.596 119.308 249.979 119.149 250.381 119.066C251.455 118.871 252.54 118.739 253.629 118.671C253.314 118.583 252.986 118.547 252.659 118.564C251.874 118.558 251.09 118.643 250.324 118.818C249.888 118.909 249.475 119.09 249.112 119.348C248.808 119.572 248.596 119.899 248.514 120.267C248.479 120.389 248.468 120.517 248.483 120.642C248.497 120.768 248.537 120.89 248.599 121.001C248.723 121.153 248.802 121.187 248.807 121.175Z" fill="#6F4439"/>
<path d="M249.852 123.899C249.852 123.899 249.762 123.843 249.638 123.725C249.532 123.623 249.45 123.5 249.395 123.364C249.34 123.229 249.315 123.083 249.32 122.937C249.325 122.79 249.361 122.647 249.426 122.515C249.49 122.384 249.582 122.267 249.694 122.174C250.066 121.923 250.475 121.732 250.907 121.61C251.722 121.441 252.559 121.397 253.388 121.48C253.74 121.526 254.098 121.507 254.443 121.424C254.098 121.359 253.75 121.318 253.399 121.299C252.547 121.161 251.677 121.184 250.833 121.367C250.37 121.5 249.933 121.711 249.542 121.993C249.365 122.139 249.237 122.336 249.175 122.557C249.137 122.743 249.137 122.935 249.175 123.121C249.197 123.257 249.246 123.388 249.318 123.505C249.391 123.622 249.486 123.723 249.598 123.804C249.739 123.911 249.852 123.911 249.852 123.899Z" fill="#6F4439"/>
<path d="M248.944 115.321C248.944 115.321 248.995 115.242 249.125 115.124C249.304 114.962 249.493 114.809 249.689 114.667C250.328 114.189 251.035 113.809 251.787 113.539C252.531 113.257 253.328 113.141 254.122 113.201C254.444 113.274 254.762 113.364 255.075 113.471C254.822 113.232 254.501 113.076 254.155 113.026C253.332 112.904 252.491 112.998 251.713 113.297C249.852 113.962 248.792 115.237 248.944 115.321Z" fill="#6F4439"/>
<path d="M85.5739 38.3837C85.7123 38.3837 85.8324 38.4223 85.9343 38.4995C86.0435 38.5768 86.1163 38.6786 86.1527 38.805L88.3367 45.6524H86.6332L85.0935 40.3115C85.0643 40.1921 85.0352 40.0727 85.0061 39.9533C84.977 39.8269 84.9515 39.7075 84.9297 39.5951H84.6348C84.613 39.7075 84.5875 39.8269 84.5584 39.9533C84.5365 40.0727 84.5074 40.1921 84.471 40.3115L82.9313 45.6524H81.2168L83.4117 38.805C83.4481 38.6786 83.5173 38.5768 83.6192 38.4995C83.7284 38.4223 83.8522 38.3837 83.9905 38.3837H85.5739ZM86.7315 42.5237V43.7352H82.8221V42.5237H86.7315Z" fill="#232323"/>
<path d="M90.8082 38.3837V45.6524H89.1374V38.3837H90.8082ZM93.6038 41.1753V42.3868H90.7208V41.1753H93.6038ZM95.1544 38.3837V45.6524H93.4836V38.3837H95.1544Z" fill="#232323"/>
<path d="M102.54 38.3837C102.38 38.8682 102.238 39.2931 102.114 39.6583C101.99 40.0165 101.87 40.3255 101.754 40.5854C101.637 40.8452 101.506 41.0629 101.36 41.2385C101.222 41.407 101.055 41.5405 100.858 41.6388C100.662 41.7301 100.418 41.7933 100.127 41.8284V41.8916C100.432 41.9268 100.687 41.9935 100.891 42.0918C101.102 42.1831 101.284 42.32 101.437 42.5026C101.597 42.6782 101.739 42.91 101.863 43.1979C101.994 43.4788 102.129 43.823 102.267 44.2303C102.405 44.6306 102.565 45.1047 102.747 45.6524H101C100.796 45.0274 100.625 44.5077 100.487 44.0933C100.349 43.679 100.21 43.3524 100.072 43.1136C99.9336 42.8678 99.7698 42.6923 99.5805 42.5869C99.3912 42.4816 99.1473 42.4289 98.8488 42.4289L98.8379 41.3122C99.1219 41.3122 99.3585 41.2561 99.5477 41.1437C99.737 41.0243 99.9008 40.8487 100.039 40.617C100.177 40.3782 100.305 40.0762 100.421 39.711C100.545 39.3388 100.683 38.8963 100.836 38.3837H102.54ZM98.3902 38.3837V40.4379C98.3902 40.6767 98.372 40.9154 98.3356 41.1542C98.2992 41.393 98.241 41.6213 98.1609 41.839C98.2191 42.0567 98.2701 42.2814 98.3138 42.5132C98.3647 42.7379 98.3902 42.9486 98.3902 43.1452V45.6524H96.7303V38.3837H98.3902ZM99.3184 41.3122V42.4289H97.9643V41.3122H99.3184Z" fill="#232323"/>
<path d="M105.255 38.3521C105.655 38.3521 106.063 38.3556 106.478 38.3626C106.893 38.3626 107.301 38.3696 107.701 38.3837C108.109 38.3977 108.487 38.4223 108.837 38.4574L108.76 39.6267H105.866C105.684 39.6267 105.546 39.6724 105.451 39.7637C105.364 39.855 105.32 39.9884 105.32 40.164V43.8721C105.32 44.0477 105.364 44.1811 105.451 44.2724C105.546 44.3637 105.684 44.4094 105.866 44.4094H108.76L108.837 45.5787C108.487 45.6068 108.109 45.6314 107.701 45.6524C107.301 45.6665 106.893 45.6735 106.478 45.6735C106.063 45.6805 105.655 45.6841 105.255 45.6841C104.774 45.6841 104.385 45.5506 104.086 45.2837C103.795 45.0098 103.65 44.6552 103.65 44.2198V39.8163C103.65 39.3739 103.795 39.0192 104.086 38.7524C104.385 38.4855 104.774 38.3521 105.255 38.3521ZM103.835 41.3017H108.345V42.4394H103.835V41.3017Z" fill="#232323"/>
<path d="M113.381 38.3837V45.6524H111.71V38.3837H113.381ZM115.652 38.3837V39.6478H109.449V38.3837H115.652Z" fill="#232323"/>
<path d="M120.19 38.3837C120.328 38.3837 120.448 38.4223 120.55 38.4995C120.66 38.5768 120.732 38.6786 120.769 38.805L122.953 45.6524H121.249L119.71 40.3115C119.68 40.1921 119.651 40.0727 119.622 39.9533C119.593 39.8269 119.568 39.7075 119.546 39.5951H119.251C119.229 39.7075 119.204 39.8269 119.174 39.9533C119.153 40.0727 119.123 40.1921 119.087 40.3115L117.547 45.6524H115.833L118.028 38.805C118.064 38.6786 118.133 38.5768 118.235 38.4995C118.344 38.4223 118.468 38.3837 118.607 38.3837H120.19ZM121.348 42.5237V43.7352H117.438V42.5237H121.348Z" fill="#232323"/>
</svg>
