<svg width="282" height="282" viewBox="0 0 282 282" fill="none" xmlns="http://www.w3.org/2000/svg">
<path d="M42.4688 234.821L47.2402 266.18H74.9608L81.396 235.278L42.4688 234.821Z" fill="#E6E6E6"/>
<path d="M77.5217 254.928C77.5217 255.018 70.4153 255.092 61.6563 255.092C52.8974 255.092 45.791 255.018 45.791 254.928C45.791 254.838 52.8918 254.765 61.6563 254.765C70.4209 254.765 77.5217 254.827 77.5217 254.928Z" fill="#FAFAFA"/>
<path d="M77.6286 253.377C77.6286 253.467 70.477 253.541 61.6561 253.541C52.8351 253.541 45.6836 253.467 45.6836 253.377C45.6836 253.287 52.8351 253.213 61.6561 253.213C70.477 253.213 77.6286 253.287 77.6286 253.377Z" fill="#FAFAFA"/>
<path d="M77.5719 251.634C77.5719 251.725 70.4204 251.798 61.5994 251.798C52.7785 251.798 45.627 251.725 45.627 251.634C45.627 251.544 52.7785 251.471 61.5994 251.471C70.4204 251.471 77.5719 251.544 77.5719 251.634Z" fill="#FAFAFA"/>
<path d="M50.4267 264.386C50.0336 263.096 49.7487 261.776 49.5751 260.438C49.2894 259.122 49.1121 257.785 49.0449 256.439C49.4349 257.73 49.7197 259.051 49.8966 260.387C50.1756 261.705 50.3529 263.042 50.4267 264.386Z" fill="#FAFAFA"/>
<path d="M52.3116 264.053C52.0278 261.49 51.8528 258.916 51.7871 256.338C52.0865 257.599 52.2566 258.888 52.2947 260.184C52.4375 261.47 52.4432 262.767 52.3116 264.053Z" fill="#FAFAFA"/>
<path d="M55.7455 264.054C55.0943 261.452 54.7815 258.777 54.8149 256.096C55.0775 257.4 55.2658 258.718 55.3789 260.044C55.6045 262.26 55.8358 264.037 55.7455 264.054Z" fill="#FAFAFA"/>
<path d="M58.1601 264.223C57.8984 262.9 57.77 261.555 57.7766 260.207C57.6781 258.862 57.7197 257.511 57.9007 256.174C58.0454 257.51 58.1132 258.852 58.1037 260.196C58.1989 261.536 58.2177 262.88 58.1601 264.223Z" fill="#FAFAFA"/>
<path d="M62.4281 264.053C62.2264 262.795 62.1302 261.521 62.1405 260.246C62.042 258.975 62.0533 257.698 62.1743 256.428C62.4731 258.958 62.558 261.509 62.4281 264.053Z" fill="#FAFAFA"/>
<path d="M65.5527 264.223C65.3977 262.913 65.3525 261.592 65.4173 260.275C65.3761 258.955 65.4421 257.635 65.6147 256.327C65.7659 257.637 65.8093 258.957 65.7445 260.275C65.7854 261.594 65.7213 262.914 65.5527 264.223Z" fill="#FAFAFA"/>
<path d="M68.4747 263.8C68.4453 262.423 68.5245 261.047 68.7116 259.682C68.7956 258.309 68.9841 256.944 69.2756 255.599C69.2254 258.349 68.9595 261.091 68.4804 263.8H68.4747Z" fill="#FAFAFA"/>
<path d="M72.248 263.388C72.3704 261.029 72.8751 258.705 73.7426 256.507C73.5729 257.669 73.3356 258.819 73.032 259.953C72.8326 261.112 72.5709 262.258 72.248 263.388Z" fill="#FAFAFA"/>
<path d="M69.5814 172.951L69.5475 173.109C69.508 173.227 69.4686 173.368 69.4178 173.549L68.8876 175.241C68.6508 175.974 68.3688 176.87 68.0755 177.925C67.7822 178.98 67.4043 180.181 67.0772 181.501C66.7501 182.821 66.344 184.287 65.9943 185.866C65.6446 187.445 65.2893 189.132 64.9284 190.914C64.2628 194.49 63.6537 198.443 63.2364 202.617C62.819 206.791 62.6724 210.789 62.5934 214.422C62.5934 216.243 62.5934 217.969 62.6385 219.588C62.6836 221.207 62.757 222.707 62.8359 224.1C62.9149 225.493 63.0277 226.717 63.1123 227.805C63.1969 228.894 63.2871 229.83 63.3774 230.597C63.4676 231.364 63.5184 231.928 63.5578 232.357C63.5578 232.543 63.5917 232.695 63.5973 232.819C63.606 232.872 63.606 232.925 63.5973 232.977C63.5785 232.926 63.5671 232.873 63.5635 232.819C63.5635 232.701 63.5184 232.549 63.4902 232.368C63.4281 231.939 63.3492 231.353 63.2476 230.608C63.1461 229.864 63.022 228.916 62.9262 227.822C62.8303 226.728 62.678 225.493 62.599 224.117C62.5201 222.741 62.4073 221.235 62.3678 219.605C62.3283 217.975 62.2945 216.255 62.2832 214.433C62.3227 210.789 62.5032 206.785 62.9092 202.589C63.3153 198.393 63.9526 194.445 64.6351 190.863C65.0073 189.081 65.3401 187.378 65.7631 185.787C66.1861 184.197 66.5132 182.747 66.8911 181.422C67.269 180.097 67.6243 178.901 67.9401 177.852C68.256 176.803 68.5492 175.912 68.8087 175.184C69.0681 174.457 69.2486 173.921 69.3727 173.492C69.4347 173.317 69.4855 173.176 69.5306 173.063C69.5433 173.024 69.5604 172.986 69.5814 172.951Z" fill="#E6E6E6"/>
<path d="M64.5716 192.369C65.3351 190.108 66.8602 188.182 68.8862 186.921C69.5687 186.498 70.4372 186.154 71.1422 186.504C72.1067 186.972 72.1856 188.331 71.898 189.369C71.3991 191.124 70.2862 192.641 68.7621 193.644C67.4099 194.644 65.7173 195.07 64.0527 194.828" fill="#E6E6E6"/>
<path d="M62.8912 205.477C63.6074 202.769 65.7676 198.923 68.0066 197.248C68.3495 196.967 68.7443 196.756 69.1685 196.627C69.3826 196.568 69.608 196.561 69.8253 196.608C70.0425 196.655 70.2449 196.755 70.4149 196.898C70.8718 197.338 70.8266 198.077 70.6913 198.692C70.232 200.666 69.2322 202.474 67.8038 203.912C66.3754 205.351 64.5747 206.363 62.6035 206.836" fill="#E6E6E6"/>
<path d="M62.4297 217.016C63.5409 214.431 65.3225 212.19 67.5903 210.524C67.8326 210.303 68.1165 210.133 68.4254 210.022C68.7342 209.912 69.0619 209.864 69.3894 209.881C70.3708 210.062 70.8164 211.258 70.7261 212.25C70.5513 214.292 68.989 215.927 67.3816 217.196C65.6501 218.561 62.6045 219.65 62.6045 219.65" fill="#E6E6E6"/>
<path d="M62.6875 225.312C63.7671 223.343 65.2671 221.635 67.0811 220.31C67.4699 220.023 67.9196 219.83 68.3952 219.746C68.6347 219.702 68.8817 219.725 69.1093 219.811C69.3369 219.898 69.5366 220.045 69.6867 220.236C70.1267 220.885 69.6867 221.759 69.2355 222.38C67.6898 224.54 65.4945 226.151 62.9695 226.976" fill="#E6E6E6"/>
<path d="M62.4688 221.945C60.5788 219.622 58.4773 217.479 56.1915 215.544C55.8305 215.245 55.3849 214.929 54.9394 215.07C54.7739 215.142 54.6326 215.26 54.5325 215.41C54.4325 215.56 54.3779 215.736 54.3754 215.916C54.3686 216.28 54.4499 216.64 54.6123 216.965C55.3624 218.634 56.4792 220.112 57.8794 221.29C59.2797 222.467 60.9274 223.314 62.7 223.767" fill="#E6E6E6"/>
<path d="M62.6714 211.145L57.7364 205.133C57.3046 204.526 56.7609 204.007 56.1347 203.604C55.8175 203.412 55.4537 203.311 55.0828 203.311C54.7119 203.311 54.3482 203.412 54.031 203.604C53.7456 203.84 53.5313 204.151 53.4118 204.501C53.2923 204.852 53.2724 205.228 53.3542 205.59C53.5346 206.304 53.8632 206.973 54.3186 207.552C55.2787 209.029 56.4955 210.322 57.9113 211.371C59.3608 212.369 60.6805 213.017 62.4233 212.758" fill="#E6E6E6"/>
<path d="M63.3544 198.99C62.3877 196.112 60.6751 193.541 58.3911 191.54C58.0348 191.178 57.5892 190.918 57.0996 190.784C56.1069 190.592 55.1538 191.421 54.8436 192.375C54.6884 192.921 54.6484 193.493 54.726 194.055C54.8037 194.617 54.9974 195.157 55.2948 195.64C55.8993 196.604 56.6891 197.438 57.6185 198.094C59.2793 199.365 61.1316 200.365 63.1062 201.055" fill="#E6E6E6"/>
<path d="M65.3277 188.156C64.8483 184.67 63.0322 181.766 60.9285 178.946C60.4886 178.348 59.8682 177.722 59.135 177.818C58.9035 177.868 58.6882 177.975 58.5089 178.13C58.3295 178.284 58.1919 178.482 58.1085 178.703C57.944 179.148 57.8767 179.623 57.9111 180.096C58.0022 182.209 58.7135 184.248 59.9562 185.96C61.1989 187.671 62.9181 188.978 64.8991 189.718" fill="#E6E6E6"/>
<path d="M66.7096 182.623C66.4806 180.835 66.4202 179.03 66.5291 177.231C66.6396 175.421 67.2594 173.679 68.317 172.206C68.7702 171.572 69.3914 171.078 70.1105 170.779C70.4713 170.634 70.8635 170.585 71.2489 170.636C71.6343 170.688 71.9998 170.838 72.3101 171.072C72.5721 171.318 72.7755 171.619 72.9053 171.954C73.0352 172.289 73.0881 172.649 73.0602 173.007C72.9966 173.723 72.8056 174.422 72.4962 175.071C71.1821 178.235 68.9938 181.738 66.7039 182.623" fill="#E6E6E6"/>
<path d="M45.2166 186.78C45.2299 186.926 45.2299 187.073 45.2166 187.22C45.2166 187.541 45.2166 187.964 45.2166 188.483C45.2166 189.002 45.2166 189.707 45.2504 190.485C45.2843 191.264 45.2504 192.177 45.3406 193.136C45.4309 195.093 45.617 197.428 45.9046 200.006C46.1923 202.583 46.666 205.397 47.2695 208.33C47.873 211.263 48.6231 214.021 49.3676 216.508C50.1121 218.995 50.8904 221.201 51.6236 223.028C51.962 223.953 52.3117 224.771 52.5993 225.493C52.887 226.215 53.1633 226.835 53.3776 227.337C53.592 227.839 53.7442 228.206 53.874 228.504C53.9375 228.637 53.9885 228.775 54.0262 228.916C53.9411 228.795 53.8693 228.664 53.8119 228.527L53.2479 227.399C53.0111 226.903 52.7234 226.271 52.4245 225.577C52.1256 224.884 51.7477 224.043 51.398 223.124C50.6592 221.302 49.8752 219.091 49.0912 216.604C48.3073 214.117 47.591 211.348 46.965 208.409C46.3389 205.471 45.961 202.623 45.6847 200.039C45.4083 197.456 45.2391 195.11 45.1827 193.142C45.132 192.16 45.1432 191.269 45.132 190.491C45.1207 189.713 45.132 189.036 45.132 188.483C45.132 187.93 45.1658 187.541 45.1771 187.22C45.1729 187.072 45.1862 186.924 45.2166 186.78Z" fill="#E6E6E6"/>
<path d="M45.9883 201.072C46.0199 199.371 46.642 197.734 47.748 196.441C47.9086 196.201 48.1259 196.005 48.3808 195.869C48.6356 195.733 48.92 195.663 49.2087 195.663C49.9701 195.776 50.3367 196.684 50.3367 197.451C50.3764 198.753 49.946 200.027 49.1241 201.038C48.4151 202.006 47.3571 202.659 46.1744 202.86" fill="#E6E6E6"/>
<path d="M47.6635 210.372C47.5676 208.375 48.2275 205.296 49.3555 203.672C49.5275 203.404 49.752 203.174 50.0154 202.995C50.1486 202.908 50.3008 202.855 50.459 202.841C50.6171 202.826 50.7765 202.85 50.9234 202.91C51.1057 203.044 51.2525 203.22 51.3508 203.424C51.4492 203.627 51.4961 203.852 51.4874 204.078C51.5989 205.52 51.3065 206.966 50.6431 208.252C49.9797 209.538 48.9714 210.614 47.7312 211.359" fill="#E6E6E6"/>
<path d="M49.8301 218.319C50.0313 216.318 50.7634 214.408 51.9507 212.786C52.0656 212.585 52.2189 212.409 52.4018 212.268C52.5847 212.127 52.7936 212.023 53.0167 211.962C53.7217 211.872 54.28 212.594 54.4323 213.288C54.7538 214.715 54.0432 216.164 53.2197 217.371C52.4323 218.386 51.5166 219.294 50.4956 220.073" fill="#E6E6E6"/>
<path d="M51.791 223.908C52.1003 222.334 52.7553 220.849 53.7086 219.559C53.9084 219.276 54.1709 219.042 54.4757 218.877C54.6296 218.795 54.803 218.757 54.977 218.767C55.1511 218.777 55.319 218.835 55.4627 218.933C55.9026 219.277 55.8067 219.96 55.6149 220.49C55.0264 222.293 53.8786 223.862 52.3381 224.968" fill="#E6E6E6"/>
<path d="M50.9168 221.652C49.1331 220.479 47.2451 219.473 45.2768 218.646C45.1344 218.56 44.9729 218.51 44.8066 218.501C44.6403 218.492 44.4744 218.524 44.3236 218.595C44.2251 218.679 44.1529 218.79 44.1159 218.914C44.0789 219.038 44.0785 219.17 44.1149 219.295C44.1909 219.541 44.322 219.767 44.4985 219.955C45.3687 220.929 46.4472 221.695 47.654 222.196C48.8608 222.697 50.1649 222.92 51.4695 222.848" fill="#E6E6E6"/>
<path d="M48.7341 214.269L44.0755 211.235C43.6508 210.919 43.1706 210.685 42.6598 210.547C42.4033 210.481 42.1336 210.486 41.8801 210.563C41.6265 210.639 41.3988 210.784 41.2216 210.981C41.0778 211.203 40.9985 211.461 40.9926 211.726C40.9866 211.991 41.0542 212.252 41.1878 212.481C41.4678 212.927 41.8364 213.311 42.2707 213.609C43.2409 214.411 44.3496 215.028 45.5419 215.431C46.7432 215.803 47.7979 215.955 48.9259 215.431" fill="#E6E6E6"/>
<path d="M46.5852 205.86C45.3057 204.107 43.5857 202.724 41.5994 201.85C41.2778 201.683 40.9181 201.603 40.556 201.619C40.2043 201.699 39.8916 201.899 39.6722 202.186C39.4528 202.472 39.3405 202.826 39.3547 203.186C39.3697 203.588 39.467 203.983 39.6406 204.346C39.8143 204.709 40.0606 205.032 40.3643 205.296C40.9827 205.822 41.6998 206.218 42.4736 206.463C43.8777 206.97 45.3527 207.254 46.8446 207.304" fill="#E6E6E6"/>
<path d="M45.5938 198.043C44.5165 195.787 42.6553 194.185 40.6193 192.719C40.4288 192.534 40.1931 192.402 39.9358 192.337C39.6785 192.271 39.4085 192.275 39.1529 192.346C39.0075 192.432 38.8852 192.551 38.7967 192.695C38.7082 192.839 38.6562 193.002 38.6453 193.17C38.6292 193.509 38.6849 193.847 38.8089 194.162C39.3284 195.581 40.2532 196.816 41.4685 197.713C42.6838 198.611 44.1359 199.131 45.6445 199.21" fill="#E6E6E6"/>
<path d="M45.3393 193.976C44.7984 192.809 44.3697 191.593 44.059 190.344C43.7448 189.09 43.7917 187.772 44.1944 186.543C44.3687 186.012 44.6893 185.541 45.1193 185.184C45.3344 185.008 45.5909 184.89 45.8644 184.842C46.1379 184.793 46.4193 184.816 46.6816 184.907C46.9086 185.017 47.1089 185.174 47.2687 185.369C47.4284 185.564 47.5437 185.791 47.6066 186.035C47.7194 186.537 47.7423 187.054 47.6742 187.564C47.4599 190 46.7211 192.854 45.3506 193.948" fill="#E6E6E6"/>
<path d="M80.2623 186.475C80.2891 186.62 80.3023 186.767 80.3018 186.915C80.3018 187.236 80.3018 187.654 80.3469 188.178C80.3921 188.703 80.3808 189.402 80.3469 190.186C80.3131 190.97 80.3469 191.878 80.3018 192.837C80.2454 194.805 80.0762 197.146 79.7942 199.735C79.5122 202.324 79.061 205.149 78.4519 208.093C77.8428 211.037 77.0814 213.801 76.32 216.294C75.5586 218.787 74.7521 220.986 74.0132 222.808C73.6635 223.727 73.2969 224.539 72.9924 225.261C72.6878 225.983 72.4284 226.592 72.1633 227.083C71.8982 227.574 71.7516 227.935 71.5993 228.211C71.5385 228.344 71.4688 228.472 71.3906 228.595C71.425 228.452 71.4761 228.314 71.5429 228.183C71.667 227.884 71.8305 227.5 72.0392 227.015C72.2479 226.53 72.5243 225.887 72.8119 225.171C73.0995 224.455 73.4549 223.631 73.7876 222.706C74.4983 220.879 75.2597 218.668 76.0436 216.187C76.8276 213.705 77.5157 210.941 78.1361 208.009C78.7565 205.076 79.1851 202.256 79.5009 199.684C79.8168 197.112 79.9916 194.777 80.0649 192.814C80.127 191.833 80.1326 190.948 80.1608 190.164C80.189 189.38 80.1947 188.714 80.1608 188.161C80.127 187.609 80.1608 187.22 80.1608 186.898C80.1797 186.754 80.2137 186.612 80.2623 186.475Z" fill="#E6E6E6"/>
<path d="M79.489 200.784C79.4558 199.082 78.8317 197.445 77.7237 196.153C77.5623 195.914 77.3448 195.718 77.0901 195.582C76.8355 195.447 76.5515 195.375 76.2629 195.375C75.5015 195.488 75.1349 196.396 75.1349 197.163C75.0988 198.466 75.5311 199.738 76.3531 200.75C77.0584 201.722 78.1182 202.376 79.3029 202.572" fill="#E6E6E6"/>
<path d="M77.8327 210.056C77.9229 208.059 77.2687 204.98 76.1407 203.356C75.9687 203.088 75.7442 202.858 75.4808 202.679C75.3487 202.592 75.1974 202.539 75.0401 202.525C74.8828 202.51 74.7244 202.534 74.5784 202.594C74.3953 202.727 74.248 202.903 74.1496 203.107C74.0512 203.311 74.0048 203.536 74.0144 203.762C73.9004 205.204 74.191 206.65 74.8536 207.936C75.5162 209.222 76.5244 210.298 77.765 211.043" fill="#E6E6E6"/>
<path d="M75.6428 218.014C75.4404 216.015 74.7105 214.106 73.5278 212.481C73.4099 212.279 73.2529 212.102 73.0661 211.961C72.8792 211.819 72.6662 211.716 72.4393 211.658C71.7343 211.568 71.176 212.29 71.018 212.983C70.7022 214.41 71.4128 215.86 72.2306 217.067C73.0181 218.081 73.9337 218.989 74.9548 219.768" fill="#E6E6E6"/>
<path d="M73.6801 223.609C73.3715 222.035 72.7186 220.548 71.7682 219.255C71.5667 218.971 71.3023 218.738 70.9955 218.573C70.8415 218.491 70.6681 218.453 70.4941 218.463C70.3201 218.473 70.1521 218.53 70.0085 218.629C69.5742 218.973 69.6701 219.656 69.8562 220.186C70.4448 221.989 71.5926 223.557 73.1331 224.664" fill="#E6E6E6"/>
<path d="M74.5547 221.359C76.3397 220.188 78.2275 219.181 80.1947 218.352C80.3376 218.267 80.499 218.218 80.665 218.209C80.831 218.201 80.9967 218.232 81.1478 218.302C81.2485 218.384 81.3226 218.494 81.3608 218.619C81.3989 218.743 81.3994 218.876 81.3621 219.001C81.2828 219.247 81.1499 219.472 80.973 219.661C80.1033 220.636 79.0249 221.403 77.8179 221.904C76.611 222.405 75.3067 222.627 74.002 222.554" fill="#E6E6E6"/>
<path d="M76.7425 213.965L81.3955 210.93C81.8209 210.616 82.3009 210.382 82.8112 210.242C83.0677 210.176 83.3374 210.182 83.5909 210.259C83.8445 210.335 84.0722 210.48 84.2494 210.677C84.3944 210.899 84.4745 211.157 84.4804 211.422C84.4864 211.687 84.4181 211.949 84.2832 212.177C84.0062 212.625 83.6371 213.01 83.2003 213.305C82.2301 214.105 81.124 214.724 79.9348 215.132C78.7335 215.499 77.6788 215.657 76.5508 215.132" fill="#E6E6E6"/>
<path d="M78.892 205.544C80.1719 203.792 81.8918 202.409 83.8778 201.534C84.199 201.366 84.5591 201.286 84.9212 201.303C85.2719 201.384 85.5833 201.585 85.8016 201.871C86.0199 202.158 86.1314 202.511 86.1169 202.871C86.107 203.276 86.012 203.675 85.8381 204.041C85.6642 204.408 85.4152 204.733 85.1073 204.997C84.4894 205.522 83.7747 205.92 83.0036 206.17C81.5971 206.675 80.1204 206.957 78.627 207.005" fill="#E6E6E6"/>
<path d="M79.88 197.738C80.9572 195.482 82.8184 193.886 84.8601 192.414C85.2887 192.104 85.8471 191.811 86.3209 192.042C86.475 192.126 86.6051 192.247 86.6989 192.395C86.7927 192.543 86.847 192.713 86.8567 192.888C86.8681 193.227 86.8105 193.565 86.6875 193.881C86.1702 195.3 85.2467 196.535 84.0321 197.432C82.8176 198.33 81.3657 198.85 79.8574 198.928" fill="#E6E6E6"/>
<path d="M80.1329 193.678C80.6716 192.509 81.102 191.293 81.4189 190.045C81.7287 188.788 81.6798 187.469 81.2779 186.238C81.1066 185.709 80.79 185.238 80.3642 184.879C80.1505 184.703 79.8946 184.585 79.6217 184.538C79.3488 184.49 79.0682 184.515 78.8075 184.609C78.5779 184.715 78.3752 184.872 78.2141 185.067C78.053 185.262 77.9378 185.491 77.8769 185.737C77.7675 186.238 77.7447 186.755 77.8093 187.265C78.0236 189.701 78.7624 192.555 80.1329 193.655" fill="#E6E6E6"/>
<path d="M39.2871 228.612V234.483C39.2871 234.786 39.347 235.087 39.4632 235.367C39.5795 235.647 39.7499 235.902 39.9647 236.116C40.1795 236.33 40.4345 236.5 40.715 236.616C40.9955 236.731 41.2961 236.791 41.5995 236.79H81.7394C82.3512 236.79 82.9379 236.547 83.3705 236.114C83.8031 235.682 84.0462 235.095 84.0462 234.483V228.612H39.2871Z" fill="#E6E6E6"/>
<path d="M42.7676 236.79L43.1003 238.656L80.1382 241.296L81.0801 236.79H42.7676Z" fill="#E6E6E6"/>
<path d="M49.4296 94.233L40.9696 90.7587C40.9696 90.7587 38.0481 97.8595 30.6202 94.9492C29.1774 94.4175 27.9366 93.4485 27.0711 92.1775C26.2056 90.9065 25.7586 89.3971 25.7924 87.8598C25.8004 86.5681 26.1144 85.2967 26.7084 84.1497C27.3025 83.0027 28.1598 82.0128 29.2102 81.261C31.6128 79.4844 35.7357 78.3902 41.0204 81.7404L48.7641 62.914L40.4 59.4736L35.809 70.6408C35.809 70.6408 22.837 68.853 17.5298 81.7742C12.4538 94.1371 22.7862 101.745 28.556 104.12C32.1938 105.609 43.4568 109.218 49.4296 94.233Z" fill="#F5F5F5"/>
<path d="M45.1777 47.5857L41.9199 55.5093L50.4069 58.9987L53.6646 51.0751L45.1777 47.5857Z" fill="#F5F5F5"/>
<path d="M46.5636 93.0601L38.1036 89.5859C38.1036 89.5859 35.1821 96.681 27.7542 93.7764C26.3119 93.2439 25.0716 92.2747 24.2062 91.0039C23.3408 89.7331 22.8934 88.224 22.9264 86.6869C22.9346 85.3947 23.2492 84.1228 23.8443 82.9757C24.4395 81.8286 25.2981 80.839 26.3498 80.0881C28.7525 78.3115 32.7794 77.4542 38.0641 80.8044L45.9037 61.7412L37.5452 58.3008L32.9543 69.468C32.9543 69.468 19.9823 67.6801 14.6638 80.5844C9.58775 92.9473 19.4916 100.392 24.2518 102.327C27.867 103.821 40.6078 108.023 46.5636 93.0601Z" fill="#E6E6E6"/>
<path d="M42.3164 46.3933L39.0586 54.3169L47.5455 57.8063L50.8033 49.8827L42.3164 46.3933Z" fill="#E6E6E6"/>
<path d="M249.497 238.927L244.257 239.362C244.257 239.362 244.624 243.761 240.056 244.223C239.176 244.327 238.286 244.155 237.509 243.73C236.732 243.306 236.106 242.65 235.718 241.855C235.382 241.192 235.207 240.46 235.207 239.717C235.207 238.974 235.382 238.242 235.718 237.579C236.485 236.04 238.313 234.398 241.894 234.726L240.93 223.051L235.741 223.485L236.305 230.405C236.305 230.405 229.193 232.893 229.858 240.901C230.496 248.566 237.788 249.756 241.364 249.457C243.648 249.288 250.365 248.16 249.497 238.927Z" fill="#F5F5F5"/>
<path d="M240.584 217.11L235.305 217.532L235.699 222.462L240.978 222.039L240.584 217.11Z" fill="#F5F5F5"/>
<path d="M247.72 239.062L242.475 239.502C242.475 239.502 242.842 243.902 238.273 244.358C237.395 244.465 236.506 244.294 235.729 243.87C234.953 243.447 234.328 242.791 233.942 241.995C233.605 241.333 233.43 240.601 233.43 239.858C233.43 239.115 233.605 238.382 233.942 237.72C234.709 236.18 236.547 234.686 240.146 235.013L239.164 223.169L233.981 223.603L234.545 230.524C234.545 230.524 227.433 233.005 228.099 241.02C228.736 248.684 235.758 249.897 238.696 249.649C240.963 249.485 248.589 248.306 247.72 239.062Z" fill="#E6E6E6"/>
<path d="M238.575 215.834L233.314 216.271L233.723 221.184L238.984 220.747L238.575 215.834Z" fill="#E6E6E6"/>
<path d="M219.046 48.7916L229.429 44.6914C229.429 44.6914 225.983 35.9719 234.985 32.2382C236.706 31.487 238.62 31.2919 240.458 31.6802C242.296 32.0684 243.967 33.0206 245.238 34.404C246.323 35.5459 247.122 36.9278 247.571 38.4372C248.02 39.9466 248.105 41.5407 247.821 43.0896C247.206 46.6879 244.505 51.1435 237.021 52.6776L246.152 75.8016L256.422 71.7464L250.98 58.0243C250.98 58.0243 263.952 48.6168 257.669 32.7458C251.668 17.563 236.124 19.6216 229.034 22.4246C224.579 24.1843 211.612 30.5462 219.046 48.7916Z" fill="#F5F5F5"/>
<path d="M258.451 76.5174L248.027 80.6338L251.87 90.3647L262.294 86.2483L258.451 76.5174Z" fill="#F5F5F5"/>
<path d="M214.885 50.4274L225.273 46.3271C225.273 46.3271 221.827 37.6076 230.829 33.874C232.549 33.1207 234.461 32.9229 236.299 33.3081C238.137 33.6933 239.809 34.6423 241.082 36.0228C242.168 37.1672 242.968 38.5521 243.417 40.0644C243.866 41.5768 243.951 43.1738 243.665 44.7253C243.085 48.3236 240.265 52.486 232.763 54.02L242.013 77.4317L252.278 73.3765L246.863 59.66C246.863 59.66 259.796 50.2525 253.524 34.4041C247.529 19.1761 232.521 21.0486 226.689 23.3497C222.217 25.1094 207.474 32.182 214.885 50.4274Z" fill="#E6E6E6"/>
<path d="M254.31 78.1493L243.887 82.2656L247.73 91.9965L258.153 87.8801L254.31 78.1493Z" fill="#E6E6E6"/>
<path d="M134.828 36.6327C135.783 25.8632 127.81 16.3567 117.019 15.3993C106.228 14.442 96.705 22.3962 95.7496 33.1657C94.7941 43.9352 102.768 53.4416 113.559 54.399C124.35 55.3564 133.872 47.4022 134.828 36.6327Z" fill="white"/>
<path d="M127.888 49.9196L128.13 49.7166L128.818 49.068L129.326 48.5999C129.506 48.425 129.687 48.2107 129.89 47.9851L130.538 47.2632C130.775 46.9814 130.997 46.6878 131.204 46.3834C132.335 44.8572 133.226 43.1661 133.843 41.3694C134.687 38.9938 135.061 36.4767 134.943 33.9584C134.943 33.6088 134.904 33.2534 134.887 32.8981C134.87 32.5428 134.78 32.1875 134.729 31.8209C134.678 31.4543 134.639 31.0933 134.543 30.7324C134.447 30.3714 134.357 30.0048 134.266 29.6044L133.945 28.561V28.4989C133.815 28.1323 133.68 27.7601 133.55 27.3709C133.42 26.9818 133.212 26.649 133.043 26.2824C132.878 25.9077 132.69 25.5441 132.479 25.1939C132.067 24.4648 131.607 23.7639 131.102 23.0958C130.843 22.763 130.6 22.4077 130.318 22.0806L129.106 20.7665L128.976 20.6424L128.48 20.2025C128.141 19.9148 127.814 19.6046 127.465 19.3226C126.746 18.7676 125.992 18.259 125.209 17.7998C124.401 17.3284 123.562 16.912 122.699 16.5534C122.253 16.3786 121.796 16.2432 121.345 16.0796C121.12 16.012 120.894 15.9161 120.663 15.8597L119.918 15.792C119.158 15.5982 118.386 15.4587 117.606 15.3746L116.427 15.228L115.158 15.1772H114.786L114.03 15.2167L113.274 15.2618L112.524 15.369L111.768 15.4874L111.391 15.5438L111.018 15.6341L108.249 16.4744L108.057 16.5421C106.099 17.3354 104.272 18.4192 102.637 19.7569C101.032 21.1326 99.6437 22.7431 98.5201 24.534L98.4298 24.6919C98.0689 25.4082 97.4767 26.5757 97.1101 27.292L96.9578 27.6416L96.8337 28.0026L96.5855 28.764L96.343 29.4859L96.1738 30.2248L95.999 30.958L95.9144 31.3246L95.7452 32.5823L95.638 33.761C95.5816 34.5421 95.5816 35.3262 95.638 36.1073L95.6775 36.8292C95.6775 37.0717 95.7452 37.3086 95.7734 37.5455C95.8523 38.0192 95.9087 38.493 96.0046 38.9555C96.2027 39.8713 96.4647 40.7722 96.7886 41.6514C97.1114 42.5109 97.4882 43.3492 97.9166 44.1612C98.1309 44.556 98.3791 44.9282 98.6047 45.2892L98.9487 45.8532L99.0502 45.9998L100.127 47.4211C100.404 47.7595 100.691 48.0584 100.996 48.3743C101.564 48.9796 102.172 49.545 102.818 50.0663C103.122 50.3472 103.442 50.6108 103.777 50.8559C104.109 51.0815 104.425 51.3296 104.764 51.5383L105.79 52.1305L106.805 52.6494L107.843 53.1119C108.184 53.2561 108.532 53.3822 108.886 53.4898C109.23 53.6026 109.574 53.7266 109.913 53.8282L110.951 54.0707C113.41 54.6256 115.954 54.6983 118.441 54.285C120.318 53.99 122.138 53.4079 123.838 52.5592C124.174 52.4101 124.502 52.2426 124.819 52.0572L125.643 51.5496C125.897 51.3917 126.139 51.2507 126.348 51.1097L126.912 50.6867L127.645 50.1227C127.814 49.993 127.893 49.9196 127.893 49.9196L127.634 50.1058L126.884 50.6698C126.714 50.7882 126.534 50.9292 126.32 51.0758C126.105 51.2225 125.868 51.3522 125.615 51.5101L124.786 52.0064C124.465 52.1868 124.136 52.3506 123.799 52.4971C122.106 53.3127 120.299 53.8679 118.441 54.144C115.97 54.5392 113.446 54.4549 111.007 53.8958L109.981 53.6702C109.637 53.5687 109.304 53.4446 108.96 53.3318C108.616 53.219 108.26 53.1175 107.928 52.954L106.901 52.4915L105.931 51.9952H105.886L104.876 51.4312C104.538 51.2225 104.228 50.9743 103.901 50.7487C103.564 50.5243 103.242 50.2794 102.936 50.0155C102.298 49.4942 101.697 48.9288 101.137 48.3235C100.855 48.0133 100.573 47.7144 100.28 47.3816L99.2138 45.966C99.1786 45.9213 99.1466 45.8741 99.1179 45.825L98.7739 45.261C98.5539 44.8831 98.3057 44.5165 98.0971 44.133C97.6825 43.3303 97.3207 42.5013 97.0142 41.6514C96.6879 40.7595 96.4259 39.8453 96.2302 38.916C96.1343 38.4592 96.0836 37.991 96.0046 37.5229C95.9764 37.286 95.92 37.0548 95.9088 36.8179L95.8805 36.096C95.8186 35.1288 95.8186 34.1586 95.8805 33.1914C95.9482 32.7064 96.0159 32.2213 96.078 31.7306L96.1287 31.364L96.2133 31.0031L96.3825 30.2812L96.5573 29.548L96.7942 28.8373L97.0368 28.121L97.1608 27.7657L97.3131 27.416L98.6385 24.816L98.7231 24.675C100.918 21.0864 104.225 18.3136 108.142 16.779L108.322 16.7113L111.069 15.8822L111.436 15.7864L111.808 15.73L112.558 15.6172L113.297 15.5044L114.047 15.4649L114.791 15.4254H115.164H115.53L117.002 15.4818C117.965 15.5812 118.921 15.7451 119.862 15.9725L120.561 16.136C120.792 16.1868 121.012 16.2827 121.238 16.3504C121.684 16.5083 122.14 16.6436 122.575 16.8128C123.431 17.1676 124.262 17.5803 125.062 18.048C125.847 18.4967 126.601 18.9979 127.318 19.5482C127.668 19.8246 127.989 20.1122 128.322 20.4168L128.818 20.8511L128.942 20.9695L130.144 22.2667C130.426 22.5882 130.668 22.9435 130.928 23.2706C131.428 23.9434 131.884 24.648 132.292 25.38C132.499 25.7288 132.688 26.0884 132.856 26.4572C133.02 26.8182 133.212 27.1679 133.358 27.5345L133.753 28.6343C133.821 28.8148 133.889 28.9952 133.951 29.1983V29.249C134.086 29.7848 134.221 30.315 134.357 30.8339C134.458 31.1948 134.481 31.5614 134.548 31.9168C134.616 32.2721 134.661 32.633 134.706 32.9827C134.751 33.3324 134.746 33.6877 134.763 34.0318C134.891 36.5303 134.532 39.0299 133.708 41.392C133.104 43.1812 132.231 44.8681 131.119 46.3946C130.882 46.7048 130.702 47.0263 130.465 47.2801L129.833 47.94C129.636 48.1656 129.461 48.3799 129.269 48.5604L128.773 49.0342L128.096 49.6715C127.961 49.8407 127.888 49.9196 127.888 49.9196Z" fill="#E6E6E6"/>
<path d="M132.01 60.7258C131.684 61.1589 131.252 61.5019 130.757 61.7224C130.261 61.9429 129.718 62.0337 129.177 61.9864C128.637 61.939 128.118 61.7549 127.668 61.4515C127.218 61.1481 126.853 60.7354 126.607 60.252C126.336 59.7225 126.22 59.1273 126.272 58.5347C126.324 57.9422 126.542 57.3762 126.9 56.9019C127.416 56.2492 128.167 55.8238 128.992 55.7163C129.817 55.6087 130.651 55.8274 131.317 56.3259C131.983 56.8243 132.428 57.5632 132.558 58.385C132.687 59.2068 132.491 60.0467 132.01 60.7258Z" fill="white"/>
<path d="M131.502 61.2561C131.502 61.2561 131.564 61.2223 131.665 61.1377C131.817 61.011 131.953 60.8671 132.071 60.709C132.444 60.2104 132.666 59.6148 132.709 58.9935C132.752 58.3723 132.615 57.7519 132.314 57.2066C132.027 56.6926 131.609 56.2643 131.101 55.9658C130.54 55.6324 129.891 55.4789 129.24 55.5259C128.538 55.5645 127.868 55.8293 127.329 56.2807C126.79 56.7321 126.412 57.3458 126.251 58.03C126.095 58.6638 126.132 59.3296 126.358 59.942C126.563 60.4932 126.912 60.9799 127.368 61.352C127.765 61.6732 128.233 61.8955 128.732 62.0006C129.452 62.1573 130.203 62.0597 130.859 61.7242C131.036 61.6378 131.201 61.5277 131.349 61.3971C131.457 61.3125 131.507 61.2618 131.502 61.2561C131.496 61.2505 131.27 61.431 130.819 61.6396C130.176 61.932 129.453 62.0015 128.766 61.837C128.369 61.7424 127.994 61.5701 127.663 61.3302C127.332 61.0902 127.052 60.7873 126.839 60.4387C126.626 60.0902 126.484 59.703 126.42 59.2993C126.357 58.8957 126.374 58.4835 126.471 58.0864C126.626 57.4511 126.98 56.8819 127.481 56.4619C127.982 56.0419 128.604 55.793 129.257 55.7515C129.864 55.709 130.469 55.8505 130.994 56.1576C131.463 56.4275 131.852 56.8167 132.122 57.2856C132.416 57.8013 132.557 58.3897 132.53 58.9827C132.503 59.5756 132.309 60.1487 131.97 60.6357C131.71 61.0644 131.479 61.2392 131.502 61.2561Z" fill="#E6E6E6"/>
<path d="M109.28 31.6856H112.235C112.234 31.3478 112.3 31.0131 112.43 30.7014C112.56 30.3897 112.752 30.1074 112.993 29.8712C113.235 29.635 113.521 29.4497 113.836 29.3263C114.15 29.203 114.486 29.1441 114.824 29.1532C115.323 29.1351 115.815 29.2732 116.231 29.5482C116.648 29.8233 116.968 30.2215 117.148 30.6873C117.303 31.0755 117.365 31.4949 117.327 31.9114C117.29 32.328 117.155 32.7298 116.933 33.0843C116.431 33.9134 115.332 34.6691 113.335 34.3194V41.0028H116.262V37.0548C117.465 36.7027 118.52 35.9649 119.262 34.955C120.005 33.9451 120.396 32.7191 120.374 31.4656C120.374 27.1284 116.488 26.1245 114.824 26.1245C113.555 26.1527 109.223 26.4573 109.28 31.6856Z" fill="#E6E6E6"/>
<path d="M116.302 42.3789H113.33V45.1594H116.302V42.3789Z" fill="#E6E6E6"/>
<path d="M75.2759 115.417H78.2426C78.2409 115.079 78.3072 114.744 78.4374 114.433C78.5677 114.121 78.7592 113.839 79.0007 113.603C79.2422 113.366 79.5286 113.181 79.8431 113.058C80.1576 112.934 80.4937 112.875 80.8313 112.885C81.3286 112.867 81.8188 113.005 82.2342 113.279C82.6496 113.553 82.9694 113.949 83.1494 114.413C83.3075 114.801 83.3711 115.222 83.3348 115.639C83.2985 116.057 83.1634 116.46 82.9407 116.816C82.4387 117.645 81.3333 118.4 79.3367 118.045V124.729H82.2695V120.814C83.4727 120.462 84.5269 119.724 85.2698 118.715C86.0127 117.705 86.4031 116.479 86.3811 115.225C86.3811 110.888 82.4951 109.878 80.8313 109.878C79.5567 109.878 75.2195 110.189 75.2759 115.417Z" fill="#E6E6E6"/>
<path d="M82.3043 126.11H79.332V128.891H82.3043V126.11Z" fill="#E6E6E6"/>
<path d="M208.279 137.103L204.957 134.993C204.957 134.993 203.181 137.813 200.248 135.992C199.673 135.657 199.217 135.151 198.945 134.544C198.673 133.937 198.598 133.26 198.731 132.608C198.831 132.06 199.059 131.544 199.398 131.102C199.736 130.66 200.174 130.304 200.677 130.064C201.833 129.5 203.609 129.432 205.6 131.248L210.361 123.747L207.072 121.655L204.281 126.054C204.281 126.054 198.911 124.317 195.68 129.399C192.589 134.266 196.244 138.163 198.105 139.353C199.532 140.272 204.619 143.013 208.279 137.103Z" fill="#E6E6E6"/>
<path d="M210 116.989L208.02 120.107L211.357 122.227L213.337 119.109L210 116.989Z" fill="#E6E6E6"/>
<path d="M76.5404 32.9264L73.7824 34.0149C73.9096 34.3279 73.9722 34.6634 73.9667 35.0012C73.9611 35.339 73.8873 35.6722 73.7499 35.9808C73.6124 36.2894 73.4141 36.5671 73.1667 36.7972C72.9194 37.0273 72.6281 37.2051 72.3104 37.32C71.8542 37.5218 71.3463 37.576 70.8579 37.4749C70.3694 37.3737 69.9248 37.1224 69.5863 36.756C69.2979 36.453 69.0856 36.0859 68.967 35.6849C68.8483 35.2838 68.8267 34.8603 68.9038 34.4492C69.0674 33.4904 69.8119 32.385 71.8028 31.9789L69.3437 25.7749L66.6196 26.8521L68.0578 30.4561C67.0683 31.2264 66.359 32.3003 66.0391 33.5129C65.7191 34.7254 65.8062 36.0095 66.2869 37.1677C67.8773 41.2003 71.8648 40.7096 73.4102 40.1005C74.5946 39.6493 78.5144 37.7881 76.5404 32.9264Z" fill="#E6E6E6"/>
<path d="M67.8775 21.7093L65.1133 22.8091L66.1421 25.395L68.9063 24.2952L67.8775 21.7093Z" fill="#E6E6E6"/>
<path d="M265.74 264.776C265.74 264.854 209.904 264.922 141.005 264.922C72.107 264.922 16.2598 264.854 16.2598 264.776C16.2598 264.697 72.0958 264.629 141.005 264.629C209.915 264.629 265.74 264.691 265.74 264.776Z" fill="#263238"/>
<path d="M225.601 165.342L221.264 163.402L247.089 130.882L251.302 132.049C251.932 132.223 252.494 132.583 252.915 133.081L257.112 138.022C257.401 138.364 257.543 138.806 257.507 139.252C257.471 139.698 257.26 140.111 256.92 140.402L227.93 165.009C227.613 165.28 227.226 165.455 226.814 165.514C226.401 165.572 225.981 165.513 225.601 165.342Z" fill="#455A64"/>
<path d="M254.89 163.052L250.197 167C249.941 167.219 249.631 167.366 249.299 167.425C248.966 167.485 248.625 167.455 248.308 167.339L244.777 166.081C244.337 165.917 243.972 165.598 243.751 165.184L224.541 128.97L228.873 130.227C229.431 130.39 229.929 130.714 230.305 131.158L255.093 160.362C255.422 160.746 255.585 161.245 255.547 161.749C255.509 162.253 255.273 162.722 254.89 163.052Z" fill="#455A64"/>
<g opacity="0.3">
<path d="M225.601 165.342L221.264 163.402L247.089 130.882L251.302 132.049C251.932 132.223 252.494 132.583 252.915 133.081L257.112 138.022C257.401 138.364 257.543 138.806 257.507 139.252C257.471 139.698 257.26 140.111 256.92 140.402L227.93 165.009C227.613 165.28 227.226 165.455 226.814 165.514C226.401 165.572 225.981 165.513 225.601 165.342Z" fill="black"/>
<path d="M254.89 163.052L250.197 167C249.941 167.219 249.631 167.366 249.299 167.425C248.966 167.485 248.625 167.455 248.308 167.339L244.777 166.081C244.337 165.917 243.972 165.598 243.751 165.184L224.541 128.97L228.873 130.227C229.431 130.39 229.929 130.714 230.305 131.158L255.093 160.362C255.422 160.746 255.585 161.245 255.547 161.749C255.509 162.253 255.273 162.722 254.89 163.052Z" fill="black"/>
</g>
<path d="M252.085 136.406L247.822 131.383C247.36 130.839 246.545 130.773 246.002 131.234L216.631 156.16C216.088 156.621 216.021 157.436 216.482 157.98L220.745 163.003C221.206 163.546 222.021 163.613 222.565 163.152L251.936 138.226C252.479 137.765 252.546 136.95 252.085 136.406Z" fill="#455A64"/>
<path d="M218.5 133.68L223.661 129.301C223.889 129.107 224.184 129.012 224.483 129.036C224.781 129.061 225.057 129.203 225.25 129.431L250.3 158.947C250.522 159.208 250.63 159.547 250.602 159.888C250.575 160.23 250.412 160.546 250.151 160.768L245.115 165.041C244.854 165.263 244.516 165.372 244.174 165.344C243.833 165.316 243.517 165.153 243.295 164.892L218.37 135.522C218.148 135.261 218.039 134.922 218.067 134.581C218.095 134.239 218.257 133.923 218.519 133.701L218.5 133.68Z" fill="#455A64"/>
<path d="M226.729 149.037C225.372 150.391 223.947 151.675 222.459 152.884C221.035 154.168 219.546 155.378 217.998 156.51C219.355 155.155 220.78 153.869 222.268 152.658C223.692 151.376 225.181 150.167 226.729 149.037Z" fill="white"/>
<path d="M246.181 132.405C246.237 132.467 244.083 134.373 241.381 136.663C238.68 138.953 236.446 140.752 236.395 140.69C236.345 140.628 238.488 138.727 241.195 136.437C243.902 134.148 246.13 132.343 246.181 132.405Z" fill="white"/>
<path d="M227.694 144.384C227.632 144.435 225.968 142.41 223.977 139.872C221.986 137.334 220.424 135.225 220.486 135.174C221.803 136.613 223.045 138.119 224.209 139.686C225.451 141.19 226.614 142.759 227.694 144.384Z" fill="white"/>
<path d="M242.561 161.304C241.208 160.058 239.924 158.741 238.714 157.356C237.43 156.038 236.22 154.65 235.088 153.199C236.436 154.449 237.72 155.767 238.934 157.147C240.216 158.468 241.426 159.855 242.561 161.304Z" fill="white"/>
<path d="M20.8343 159.212L19.9375 155.873L44.1162 160.689L65.4749 130.656L68.0805 135.507C68.2805 135.875 68.3852 136.288 68.3852 136.708C68.3852 137.128 68.2805 137.54 68.0805 137.909L49.5362 171.856C49.2061 172.46 48.7587 172.991 48.2203 173.418C47.6819 173.846 47.0635 174.161 46.4013 174.346C45.7391 174.531 45.0466 174.582 44.3646 174.495C43.6825 174.409 43.0247 174.186 42.4298 173.842L23.7163 162.996C23.0106 162.586 22.3927 162.04 21.8982 161.391C21.4036 160.742 21.0421 160.001 20.8343 159.212Z" fill="#FFD43B"/>
<g opacity="0.3">
<path d="M20.8343 159.212L19.9375 155.873L44.1162 160.689L65.4749 130.656L68.0805 135.507C68.2805 135.875 68.3852 136.288 68.3852 136.708C68.3852 137.128 68.2805 137.54 68.0805 137.909L49.5362 171.856C49.2061 172.46 48.7587 172.991 48.2203 173.418C47.6819 173.846 47.0635 174.161 46.4013 174.346C45.7391 174.531 45.0466 174.582 44.3646 174.495C43.6825 174.409 43.0247 174.186 42.4298 173.842L23.7163 162.996C23.0106 162.586 22.3927 162.04 21.8982 161.391C21.4036 160.742 21.0421 160.001 20.8343 159.212Z" fill="black"/>
</g>
<path d="M20.006 154.282L23.4915 148.112C23.7311 147.686 24.1247 147.368 24.5915 147.223C25.0582 147.079 25.5627 147.118 26.0013 147.334L39.9885 154.186C40.4359 154.404 40.9502 154.44 41.4235 154.286C41.8968 154.133 42.2921 153.802 42.5265 153.363L56.4009 127.329C56.5239 127.098 56.6928 126.894 56.8974 126.731C57.102 126.568 57.3378 126.448 57.5904 126.379C57.8429 126.311 58.1069 126.294 58.3659 126.331C58.625 126.369 58.8737 126.458 59.0968 126.595L64.7368 130.064C65.1553 130.321 65.4593 130.728 65.5863 131.203C65.7133 131.677 65.6535 132.182 65.4192 132.613L47.281 165.782C46.6949 166.855 45.7098 167.653 44.5391 168.005C43.3684 168.357 42.1063 168.233 41.0262 167.66L20.773 156.944C20.5438 156.824 20.3412 156.659 20.1776 156.458C20.014 156.257 19.8927 156.026 19.8211 155.777C19.7494 155.528 19.7288 155.268 19.7606 155.011C19.7924 154.754 19.8758 154.506 20.006 154.282Z" fill="#FFD43B"/>
<path d="M39.0347 155.765C38.776 155.689 38.5249 155.589 38.2846 155.466L36.2936 154.564C34.6016 153.786 32.3118 152.697 29.7738 151.479L27.9182 150.588L27.0384 150.165C26.779 150.022 26.493 149.933 26.198 149.905C25.9269 149.882 25.6539 149.913 25.3951 149.997C25.1364 150.082 24.8973 150.217 24.6922 150.396C24.3518 150.748 24.0751 151.156 23.8744 151.603L22.7858 153.504C22.6622 153.742 22.5168 153.969 22.3516 154.18C22.4389 153.926 22.5503 153.68 22.6843 153.447L23.6882 151.501L24.0266 150.858C24.1549 150.615 24.3248 150.395 24.5286 150.21C24.7584 150.007 25.0266 149.853 25.3173 149.756C25.608 149.659 25.9152 149.622 26.2206 149.646C26.5501 149.673 26.8707 149.767 27.1625 149.922L28.0423 150.34L29.8922 151.214C32.4302 152.432 34.7257 153.554 36.3782 154.378L38.3522 155.365C38.5901 155.48 38.8183 155.614 39.0347 155.765Z" fill="white"/>
<path d="M44.1615 154.643C44.0882 154.604 47.0266 148.795 50.7265 141.671C54.4263 134.548 57.4945 128.795 57.5509 128.835C57.6073 128.874 54.6857 134.678 50.9859 141.807C47.2861 148.936 44.2292 154.677 44.1615 154.643Z" fill="white"/>
<path d="M102.422 77.0512C103.711 66.6712 96.3415 57.2114 85.9614 55.9222C75.5814 54.6329 66.1216 62.0025 64.8324 72.3825C63.5432 82.7626 70.9127 92.2224 81.2928 93.5116C91.6728 94.8008 101.133 87.4313 102.422 77.0512Z" fill="white"/>
<path d="M102.563 74.7074C102.563 74.7074 102.563 74.6059 102.563 74.4029C102.563 74.1998 102.563 73.8896 102.529 73.5005L102.501 72.8349C102.501 72.5924 102.434 72.3273 102.394 72.0397C102.355 71.7521 102.304 71.4419 102.259 71.1147C102.214 70.7876 102.101 70.4436 102.022 70.077C101.595 68.2884 100.895 66.5763 99.9463 65.001C98.7088 62.9014 97.0748 61.0625 95.1353 59.5866L94.3175 58.9718C94.0299 58.7801 93.7253 58.6052 93.4264 58.4078C93.1275 58.2104 92.8286 58.0187 92.5015 57.8438L91.5145 57.3644L91.0125 57.1275L90.4823 56.9358L89.4164 56.541C89.0498 56.4169 88.6719 56.3379 88.2884 56.2364C87.9171 56.1289 87.5407 56.0404 87.1604 55.9713C86.365 55.8226 85.5604 55.7284 84.7521 55.6893C84.3404 55.6893 83.9287 55.6329 83.5113 55.6386L82.2536 55.7006C82.0393 55.7006 81.825 55.7006 81.6163 55.7401L80.979 55.836C80.556 55.9037 80.1273 55.9544 79.6987 56.0447C78.8373 56.2346 77.9894 56.4814 77.1607 56.7835C76.3071 57.0876 75.476 57.4513 74.6734 57.872C74.273 58.0863 73.8838 58.3401 73.4834 58.577C73.2916 58.7011 73.0829 58.8083 72.9194 58.9493L72.3554 59.3666C71.5967 59.9306 70.8752 60.5428 70.1953 61.1996L69.2252 62.2656L68.9827 62.5363L68.7627 62.8239L68.3284 63.3879L67.8885 63.9519L67.505 64.578L67.1215 65.204L66.9297 65.5255L66.7661 65.8583C66.5518 66.3038 66.3319 66.7494 66.1176 67.2006C65.9032 67.6518 65.7735 68.1368 65.5987 68.6106C64.29 72.5119 64.29 76.7337 65.5987 80.6351C65.7735 81.1088 65.9427 81.5769 66.1176 82.0451L66.7605 83.393L66.9241 83.7258L67.1158 84.0416L67.4993 84.6733L67.8885 85.2993L68.3228 85.8633L68.7627 86.4273L68.9827 86.7206L69.2252 86.9857L70.1953 88.0517C70.8737 88.7101 71.5953 89.3224 72.3554 89.8847L72.9194 90.3077C73.1055 90.4487 73.3142 90.5558 73.4834 90.6799C73.8838 90.9111 74.2673 91.1649 74.6734 91.3849C75.476 91.8056 76.3071 92.1693 77.1607 92.4734C77.9894 92.7755 78.8373 93.0224 79.6987 93.2123C80.1273 93.3025 80.556 93.3476 80.979 93.4209L81.6163 93.5168C81.8306 93.545 82.0393 93.5168 82.2536 93.5563L83.5113 93.6183C83.9287 93.6183 84.346 93.5845 84.7521 93.5676C85.5604 93.5285 86.365 93.4343 87.1604 93.2856C87.5408 93.2171 87.9173 93.1286 88.2884 93.0205C88.6663 92.9133 89.0441 92.8344 89.4164 92.7159L90.4823 92.3211L91.0125 92.1294L91.5145 91.8869L92.5015 91.4131C92.8286 91.2608 93.1219 91.0465 93.4264 90.8491C93.731 90.6517 94.0299 90.4881 94.3175 90.2851L95.141 89.6703C97.0774 88.1929 98.7093 86.3542 99.9463 84.2559C100.894 82.6802 101.594 80.9682 102.022 79.1799C102.118 78.8383 102.198 78.4919 102.259 78.1422C102.304 77.8094 102.355 77.4992 102.394 77.2116C102.434 76.9239 102.479 76.6476 102.501 76.4163C102.524 76.1851 102.501 75.9539 102.529 75.7565C102.529 75.3617 102.558 75.0627 102.563 74.8541C102.569 74.6454 102.563 74.5439 102.563 74.5439C102.563 74.5439 102.563 74.651 102.563 74.8541C102.563 75.0571 102.535 75.3617 102.507 75.7508C102.507 75.9482 102.507 76.1682 102.467 76.4163C102.428 76.6645 102.394 76.9183 102.349 77.2059C102.304 77.4936 102.253 77.7699 102.202 78.1253C102.14 78.474 102.058 78.8187 101.954 79.1574C101.515 80.9286 100.809 82.623 99.8617 84.1826C98.6286 86.3129 96.9881 88.1795 95.0338 89.676L94.2217 90.2851C93.934 90.4712 93.6295 90.6461 93.3362 90.8491C93.0429 91.0521 92.7384 91.2326 92.4112 91.3849L91.4355 91.853L90.9392 92.0899L90.4147 92.2817L89.3543 92.6652C88.9934 92.7836 88.6155 92.8626 88.2263 92.9641C87.8551 93.0701 87.4786 93.1567 87.0983 93.2235C86.31 93.3679 85.5131 93.4602 84.7126 93.4999C84.3065 93.4999 83.9005 93.5507 83.4831 93.545L82.2367 93.4773C82.028 93.4773 81.8193 93.4773 81.6106 93.4379L80.979 93.342C80.5616 93.2743 80.1329 93.2235 79.7156 93.1389C78.8614 92.9497 78.021 92.7029 77.2002 92.4001C76.3592 92.0963 75.5395 91.7364 74.7467 91.3229C74.3463 91.1029 73.9684 90.8547 73.5736 90.6179C73.3819 90.4938 73.1732 90.3923 73.0096 90.2513L72.4456 89.8339C71.6931 89.2773 70.9789 88.6706 70.3081 88.0178L69.3718 86.9688L69.1293 86.7037L68.915 86.4161L68.4807 85.8521L68.0464 85.2881L67.6686 84.6677L67.2907 84.0416L67.0989 83.7314L66.941 83.3987L66.298 82.0733L65.7904 80.6745C64.4969 76.8209 64.4969 72.6503 65.7904 68.7967L66.3037 67.398C66.518 66.9581 66.7267 66.5125 66.941 66.0726L67.1046 65.7455L67.2907 65.4296L67.6686 64.8092L68.0521 64.1888L68.4807 63.6248L68.915 63.0608L69.1293 62.7732L69.3718 62.5081L70.3306 61.4534C71.001 60.8023 71.7132 60.1957 72.4625 59.6373L73.0265 59.2256C73.207 59.0846 73.4157 58.9775 73.5905 58.8534C73.9853 58.6221 74.3632 58.3683 74.7637 58.154C75.5565 57.7405 76.3761 57.3806 77.2171 57.0768C78.0379 56.774 78.8783 56.5271 79.7325 56.3379C80.1499 56.2533 80.5785 56.2026 80.9959 56.1349L81.6275 56.039C81.8362 56.0108 82.0449 56.0108 82.2536 55.9939L83.5 55.9319C83.9174 55.9319 84.3235 55.9657 84.7295 55.977C85.53 56.017 86.3269 56.1093 87.1153 56.2533C87.4961 56.3175 87.8727 56.4041 88.2433 56.5128C88.6155 56.6143 88.9934 56.6933 89.3713 56.8117L90.4316 57.1952L90.9505 57.387L91.4524 57.6239L92.4282 58.092C92.7553 58.2386 93.0429 58.4529 93.3475 58.6221C93.652 58.7913 93.9509 58.9775 94.2386 59.1861L95.0508 59.7896C96.9783 61.2503 98.6076 63.0673 99.8504 65.142C100.797 66.7021 101.502 68.3963 101.943 70.1672C102.045 70.5063 102.128 70.8509 102.191 71.1993C102.242 71.5321 102.293 71.8367 102.338 72.1243C102.383 72.4119 102.434 72.6883 102.456 72.9139C102.479 73.1395 102.484 73.3764 102.496 73.5794C102.524 73.9686 102.541 74.2675 102.552 74.4762C102.563 74.6849 102.563 74.7074 102.563 74.7074Z" fill="#263238"/>
<path d="M109.766 86.6136C109.766 87.2227 109.586 87.8181 109.247 88.3245C108.909 88.8309 108.428 89.2256 107.865 89.4587C107.303 89.6917 106.683 89.7527 106.086 89.6339C105.489 89.5151 104.94 89.2218 104.509 88.7911C104.079 88.3604 103.785 87.8117 103.667 87.2144C103.548 86.617 103.609 85.9979 103.842 85.4352C104.075 84.8725 104.47 84.3915 104.976 84.0532C105.482 83.7148 106.078 83.5342 106.687 83.5342C107.091 83.5334 107.492 83.6126 107.866 83.7671C108.24 83.9216 108.58 84.1484 108.866 84.4345C109.152 84.7206 109.379 85.0603 109.533 85.4343C109.688 85.8082 109.767 86.209 109.766 86.6136Z" fill="white"/>
<path d="M109.766 86.6134C109.766 86.6134 109.766 86.5457 109.766 86.416C109.768 86.2262 109.747 86.0369 109.704 85.852C109.545 85.1548 109.146 84.5359 108.576 84.1036C108.197 83.7941 107.751 83.5777 107.273 83.4719C106.708 83.3634 106.124 83.4081 105.581 83.6016C104.983 83.8186 104.463 84.2118 104.093 84.7296C103.69 85.2762 103.473 85.9373 103.473 86.6162C103.473 87.2951 103.69 87.9562 104.093 88.5028C104.463 89.0205 104.983 89.4138 105.581 89.6308C106.123 89.8299 106.708 89.8748 107.273 89.7605C107.864 89.6433 108.408 89.3588 108.841 88.9407C109.274 88.5227 109.578 87.9889 109.716 87.403C109.758 87.2181 109.779 87.0288 109.778 86.839C109.778 86.7092 109.778 86.6416 109.778 86.6416C109.778 86.6416 109.778 86.9179 109.637 87.3861C109.486 87.9388 109.182 88.4377 108.76 88.8249C108.338 89.2122 107.815 89.472 107.251 89.5744C106.725 89.6667 106.184 89.618 105.683 89.4334C105.13 89.2337 104.651 88.872 104.307 88.3956C103.933 87.8872 103.731 87.2726 103.731 86.6416C103.731 86.0105 103.933 85.3959 104.307 84.8875C104.652 84.4128 105.132 84.0516 105.683 83.8498C106.184 83.6651 106.725 83.6165 107.251 83.7088C107.815 83.8115 108.339 84.0722 108.761 84.4605C109.184 84.8488 109.487 85.3489 109.637 85.9027C109.755 86.337 109.744 86.6134 109.766 86.6134Z" fill="#263238"/>
<path d="M207.529 106.784C218.672 105.366 226.555 95.1845 225.138 84.042C223.72 72.8995 213.538 65.0159 202.396 66.4334C191.253 67.8509 183.37 78.0328 184.787 89.1752C186.205 100.318 196.387 108.201 207.529 106.784Z" fill="white"/>
<path d="M184.62 86.6246C184.62 86.6246 184.62 86.5118 184.62 86.2919C184.62 86.0719 184.62 85.7279 184.66 85.3274L184.688 84.6112C184.688 84.3517 184.761 84.0471 184.806 83.7595C184.851 83.4719 184.897 83.1166 184.953 82.7612C185.015 82.3804 185.099 82.0037 185.207 81.6332C185.667 79.716 186.419 77.8805 187.435 76.1906C188.764 73.938 190.517 71.9636 192.595 70.3758L193.475 69.7159C193.785 69.5129 194.112 69.3268 194.434 69.1519C194.755 68.9771 195.077 68.7346 195.432 68.5879L196.487 68.0803L197.051 67.8209L197.615 67.6122L198.743 67.1892C199.132 67.0595 199.544 66.9749 199.944 66.8621C200.35 66.7455 200.763 66.6513 201.179 66.5801C202.033 66.4211 202.896 66.3193 203.762 66.2755C204.208 66.2755 204.648 66.2135 205.099 66.2191L206.453 66.2868C206.678 66.2868 206.904 66.2868 207.135 66.3319L207.818 66.4334C208.269 66.5068 208.731 66.5632 209.194 66.6534C210.117 66.8621 211.027 67.1277 211.918 67.4486C212.834 67.7762 213.725 68.1682 214.586 68.6217C215.02 68.853 215.437 69.1237 215.86 69.3775C216.075 69.5129 216.294 69.6257 216.498 69.778L217.095 70.2291C217.914 70.832 218.69 71.4896 219.419 72.1975L220.462 73.3255L220.722 73.6132L220.959 73.9234L221.427 74.5494L221.895 75.1754L222.312 75.8522L222.724 76.529L222.927 76.8674L223.102 77.2227C223.333 77.7021 223.564 78.1872 223.801 78.6666C224.038 79.146 224.168 79.6761 224.365 80.1838C225.779 84.371 225.779 88.9065 224.365 93.0937C224.179 93.6013 223.999 94.1089 223.801 94.6109L223.108 96.0547L222.933 96.41L222.724 96.7484L222.312 97.4309L221.901 98.102L221.427 98.7281L220.959 99.3597L220.722 99.67L220.462 99.9576L219.419 101.086C218.689 101.791 217.915 102.448 217.101 103.054L216.498 103.505C216.294 103.652 216.075 103.77 215.866 103.9C215.437 104.154 215.02 104.43 214.591 104.661C213.727 105.11 212.834 105.5 211.918 105.829C211.027 106.156 210.115 106.421 209.188 106.624C208.731 106.72 208.269 106.771 207.812 106.844L207.135 106.951C206.904 106.979 206.678 106.979 206.447 106.991L205.099 107.058C204.648 107.058 204.202 107.019 203.762 107.008C202.895 106.962 202.032 106.859 201.179 106.697C200.762 106.629 200.35 106.535 199.944 106.415C199.538 106.303 199.132 106.218 198.743 106.088L197.615 105.665L197.051 105.462L196.487 105.203L195.426 104.69C195.077 104.526 194.761 104.3 194.434 104.126C194.107 103.951 193.785 103.742 193.475 103.533L192.595 102.873C190.514 101.287 188.759 99.3126 187.429 97.0586C186.415 95.3684 185.666 93.533 185.207 91.616C185.099 91.2457 185.014 90.869 184.953 90.488C184.897 90.1327 184.851 89.7999 184.806 89.4954C184.761 89.1908 184.71 88.9314 184.688 88.6381C184.665 88.3448 184.688 88.1418 184.66 87.9275C184.66 87.5045 184.632 87.183 184.62 86.9574C184.609 86.7318 184.62 86.6303 184.62 86.6303C184.62 86.6303 184.62 86.7431 184.648 86.9574C184.677 87.1717 184.688 87.5214 184.71 87.9218C184.71 88.1362 184.739 88.373 184.756 88.6325C184.773 88.8919 184.835 89.1965 184.88 89.4841C184.925 89.7718 184.981 90.1214 185.038 90.4711C185.094 90.8208 185.212 91.193 185.303 91.5991C185.78 93.5012 186.54 95.3208 187.559 96.9966C188.892 99.2252 190.643 101.176 192.714 102.744L193.588 103.392C193.892 103.595 194.22 103.782 194.541 103.956C194.86 104.161 195.19 104.349 195.528 104.52L196.577 105.022L197.141 105.276L197.705 105.485L198.833 105.897C199.222 106.026 199.628 106.111 200.029 106.218C200.431 106.334 200.84 106.426 201.253 106.494C202.096 106.652 202.95 106.752 203.808 106.793C204.247 106.793 204.687 106.85 205.127 106.844L206.47 106.771C206.69 106.771 206.921 106.771 207.141 106.731L207.818 106.624C208.269 106.551 208.726 106.5 209.177 106.404C210.094 106.201 210.996 105.937 211.878 105.615C212.782 105.288 213.662 104.9 214.512 104.453C214.941 104.221 215.353 103.951 215.776 103.703C215.979 103.567 216.204 103.454 216.396 103.308L216.994 102.862C217.8 102.262 218.567 101.61 219.289 100.911L220.316 99.7827L220.575 99.5007L220.806 99.1905L221.269 98.5702L221.737 97.9497L222.143 97.2842L222.549 96.6131L222.752 96.2803L222.927 95.925C223.153 95.4512 223.384 94.9775 223.61 94.4981C223.835 94.0187 223.976 93.4998 224.174 93.0035C224.835 90.9389 225.185 88.787 225.211 86.619C225.186 84.4523 224.834 82.3019 224.168 80.2402L223.604 78.7455C223.373 78.2661 223.147 77.7924 222.916 77.3186L222.747 76.9633L222.544 76.6305L222.132 75.9594L221.726 75.2939L221.263 74.6735L220.801 74.0531L220.57 73.7485L220.31 73.4609L219.284 72.3329C218.561 71.6354 217.795 70.9855 216.988 70.3871L216.39 69.9415C216.193 69.7892 215.973 69.6764 215.77 69.5467C215.347 69.2929 214.935 69.0278 214.507 68.791C212.82 67.9148 211.026 67.2608 209.171 66.8451C208.72 66.7493 208.263 66.6985 207.812 66.6196L207.141 66.518C206.915 66.4898 206.69 66.4898 206.464 66.4729L205.122 66.4052C204.682 66.4052 204.242 66.4391 203.808 66.456C202.948 66.4945 202.092 66.5944 201.247 66.7549C200.833 66.8183 200.424 66.9106 200.023 67.0313C199.623 67.1384 199.217 67.223 198.827 67.3471L197.699 67.7645L197.135 67.9675L196.571 68.2213L195.522 68.7233C195.173 68.8868 194.862 69.1124 194.535 69.2873C194.208 69.4621 193.892 69.6651 193.582 69.8513L192.708 70.5055C190.637 72.0733 188.887 74.0244 187.553 76.2527C186.536 77.927 185.775 79.7445 185.297 81.6445C185.207 82.0393 185.077 82.4003 185.032 82.7725C184.987 83.1447 184.925 83.455 184.874 83.7652C184.823 84.0754 184.778 84.3292 184.75 84.6112C184.722 84.8932 184.716 85.1131 184.705 85.3218L184.643 86.2862C184.637 86.5118 184.62 86.6246 184.62 86.6246Z" fill="#263238"/>
<path d="M176.887 99.4051C176.886 100.06 177.079 100.701 177.442 101.247C177.806 101.792 178.323 102.217 178.928 102.468C179.533 102.72 180.199 102.786 180.842 102.658C181.485 102.531 182.075 102.215 182.538 101.752C183.002 101.288 183.317 100.698 183.445 100.055C183.572 99.4125 183.506 98.7464 183.255 98.1412C183.004 97.5361 182.578 97.0191 182.033 96.6557C181.488 96.2924 180.847 96.099 180.192 96.1001C179.316 96.1016 178.476 96.4503 177.856 97.0698C177.237 97.6893 176.888 98.529 176.887 99.4051Z" fill="white"/>
<path d="M176.887 99.4052C176.878 99.3359 176.878 99.2658 176.887 99.1965C176.885 98.9915 176.907 98.7869 176.955 98.5874C177.122 97.8412 177.545 97.1769 178.15 96.7093C178.567 96.3825 179.057 96.1602 179.577 96.0607C180.139 95.9473 180.72 95.9771 181.267 96.1475C181.814 96.3178 182.309 96.6231 182.707 97.0353C183.105 97.4475 183.393 97.9533 183.544 98.506C183.695 99.0587 183.704 99.6405 183.571 100.198C183.438 100.755 183.167 101.27 182.783 101.695C182.398 102.12 181.913 102.441 181.372 102.629C180.831 102.817 180.251 102.865 179.686 102.77C179.121 102.675 178.589 102.439 178.139 102.084C177.533 101.618 177.11 100.953 176.943 100.206C176.896 100.008 176.873 99.8058 176.876 99.6026C176.867 99.5314 176.867 99.4594 176.876 99.3883C176.904 99.3883 176.876 99.6815 177.028 100.184C177.222 100.89 177.647 101.511 178.235 101.949C178.664 102.269 179.166 102.476 179.696 102.553C180.226 102.63 180.767 102.573 181.269 102.389C181.864 102.171 182.38 101.777 182.747 101.261C183.15 100.715 183.367 100.055 183.367 99.377C183.367 98.6988 183.15 98.0386 182.747 97.4932C182.38 96.9765 181.864 96.5832 181.269 96.3652C180.728 96.168 180.144 96.1174 179.577 96.2186C179.089 96.2998 178.625 96.4928 178.224 96.7826C177.636 97.2201 177.211 97.8414 177.017 98.5479C176.904 99.1119 176.915 99.4052 176.887 99.4052Z" fill="#263238"/>
<path d="M175.141 57.9341C184.161 54.3845 188.591 44.1806 185.034 35.1429C181.478 26.1053 171.283 21.6563 162.262 25.2058C153.242 28.7553 148.813 38.9593 152.369 47.9969C155.925 57.0346 166.121 61.4836 175.141 57.9341Z" fill="white"/>
<path d="M161.699 57.6748L161.964 57.7819L162.742 58.0865L163.306 58.3121C163.521 58.3798 163.763 58.4362 164.023 58.5095L164.863 58.7351C165.185 58.8148 165.51 58.877 165.839 58.9212C167.515 59.2159 169.227 59.2521 170.915 59.0284C173.16 58.7595 175.332 58.0585 177.311 56.9641L178.14 56.496C178.405 56.3212 178.67 56.1238 178.935 55.932C179.2 55.7402 179.499 55.5654 179.736 55.368L180.508 54.7025L181.219 54.0313L181.259 53.9862C181.501 53.738 181.744 53.4786 181.986 53.2248C182.229 52.971 182.432 52.6608 182.657 52.3844C182.891 52.0877 183.105 51.7769 183.3 51.4538C183.719 50.833 184.096 50.1849 184.428 49.5137C184.592 49.1696 184.784 48.8312 184.93 48.4759L185.494 46.9757L185.556 46.8121L185.709 46.2481C185.804 45.859 185.923 45.4754 186.007 45.0806C186.163 44.2759 186.266 43.4621 186.318 42.6442C186.374 41.8066 186.374 40.9662 186.318 40.1287C186.284 39.7057 186.211 39.2827 186.154 38.8597C186.12 38.6454 186.109 38.4311 186.058 38.2168L185.906 37.5851C185.766 36.8994 185.578 36.2247 185.342 35.566C185.212 35.2388 185.077 34.9117 184.947 34.579L184.428 33.5412L184.259 33.2479L183.926 32.6839L183.588 32.1199L183.199 31.5559L182.804 30.9919L182.607 30.7099L182.381 30.4448L180.599 28.5611L180.469 28.437C177.634 25.8804 174.042 24.3198 170.238 23.9927H170.074H167.463H167.119L166.775 24.0434L166.098 24.1337L165.421 24.2296L164.762 24.3875L164.107 24.5454L163.78 24.6244L162.703 24.991L161.71 25.3801C161.064 25.652 160.437 25.9667 159.832 26.322L159.268 26.6491C159.082 26.7563 158.913 26.8916 158.738 27.0101C158.388 27.2639 158.033 27.5008 157.695 27.7602C156.407 28.8094 155.26 30.0207 154.282 31.3642C154.051 31.6913 153.848 32.041 153.634 32.3794L153.318 32.8813C153.288 32.9264 153.262 32.9735 153.239 33.0223C153.002 33.5074 152.765 33.9811 152.528 34.4549C152.371 34.8102 152.252 35.1768 152.117 35.5321C151.851 36.2344 151.634 36.9543 151.468 37.6866C151.378 38.0411 151.31 38.4009 151.265 38.7638C151.214 39.1192 151.141 39.4745 151.113 39.8298C151.085 40.1851 151.068 40.5404 151.051 40.8901V41.9166C151.051 42.2606 151.079 42.599 151.09 42.9374C151.102 43.2758 151.175 43.5973 151.209 43.9244C151.243 44.2516 151.293 44.5674 151.35 44.8832L151.57 45.8082C152.11 48.0027 153.067 50.0726 154.39 51.905C155.381 53.2888 156.577 54.5136 157.937 55.5372C158.191 55.7404 158.457 55.9287 158.732 56.1012L159.471 56.5637C159.703 56.699 159.911 56.84 160.109 56.9472L160.673 57.2179L161.428 57.5789L161.688 57.6973L161.44 57.562L160.695 57.1784L160.131 56.9021C159.934 56.7893 159.725 56.6483 159.499 56.5073L158.766 56.0448C158.496 55.8701 158.234 55.6819 157.982 55.4808C156.654 54.4306 155.492 53.185 154.536 51.7866C153.214 49.9686 152.256 47.9116 151.716 45.7292C151.643 45.4247 151.57 45.1201 151.502 44.8099C151.434 44.4997 151.412 44.1782 151.367 43.8568C151.312 43.5319 151.274 43.2043 151.254 42.8754C151.254 42.5483 151.226 42.2099 151.214 41.8715C151.203 41.5331 151.214 41.1608 151.214 40.8958V40.845L151.282 39.8016C151.31 39.4463 151.384 39.1022 151.434 38.7469C151.482 38.3881 151.55 38.0323 151.637 37.681C151.812 36.9502 152.036 36.2323 152.308 35.5321C152.444 35.1824 152.562 34.8158 152.72 34.4718C152.951 33.998 153.188 33.5243 153.425 33.0449C153.425 32.9998 153.476 32.9546 153.504 32.9095C153.606 32.746 153.713 32.5824 153.814 32.4132C154.029 32.0804 154.232 31.7364 154.463 31.4093C154.939 30.7556 155.457 30.1338 156.014 29.5481C156.583 28.9425 157.194 28.3772 157.841 27.8561C158.174 27.5966 158.529 27.3654 158.873 27.1172C159.048 26.9988 159.212 26.8578 159.398 26.7563L159.962 26.4348C160.715 26.0084 161.495 25.6316 162.297 25.3068L163.549 24.8838L163.865 24.7766L164.186 24.6977L164.835 24.5454L165.489 24.3875L166.16 24.2972L166.826 24.2014L167.164 24.1562H167.503H170.097H170.249C174.007 24.4789 177.557 26.0218 180.356 28.5498L180.48 28.6682L182.246 30.5351L182.471 30.7945L182.663 31.0709L183.058 31.6349L183.441 32.1989L183.774 32.7629L184.107 33.3269L184.27 33.6145L184.406 33.9191C184.592 34.3195 184.772 34.72 184.97 35.1204C185.275 35.9322 185.528 36.763 185.725 37.6076L185.872 38.2337C185.923 38.4424 185.934 38.6567 185.968 38.8654C186.024 39.2884 186.098 39.7057 186.132 40.1231C186.191 40.9511 186.191 41.7823 186.132 42.6103C186.084 43.4187 185.984 44.2231 185.833 45.0186C185.748 45.4134 185.635 45.7913 185.539 46.1466L185.387 46.7106C185.375 46.7604 185.36 46.8094 185.342 46.8572L184.778 48.3462C184.631 48.7015 184.445 49.0343 184.287 49.3727C183.954 50.0396 183.577 50.684 183.159 51.3016C182.963 51.6057 182.748 51.8977 182.516 52.1758C182.296 52.4578 182.088 52.7398 181.856 53.0105L181.135 53.7719L180.779 54.1441L180.745 54.178L179.617 55.1424C179.369 55.3624 179.082 55.5316 178.822 55.7064C178.563 55.8812 178.298 56.0899 178.033 56.2704L177.215 56.7385C175.268 57.8655 173.121 58.603 170.892 58.9099C169.216 59.1428 167.514 59.1181 165.844 58.8366C165.518 58.7982 165.194 58.7418 164.874 58.6674L164.034 58.4474C163.775 58.3798 163.532 58.329 163.318 58.2613L162.754 58.047L161.964 57.765L161.699 57.6748Z" fill="#263238"/>
<path d="M154.689 65.3113C154.079 65.2005 153.52 64.8942 153.099 64.4384C152.678 63.9826 152.417 63.4022 152.354 62.7848C152.292 62.1673 152.432 61.5463 152.754 61.0156C153.076 60.4849 153.561 60.0732 154.137 59.8427C154.714 59.6122 155.349 59.5755 155.948 59.7379C156.547 59.9004 157.077 60.2534 157.458 60.7435C157.838 61.2336 158.049 61.8342 158.058 62.4547C158.068 63.0753 157.875 63.682 157.509 64.1833C157.192 64.6167 156.76 64.9522 156.261 65.1517C155.762 65.3511 155.218 65.4064 154.689 65.3113Z" fill="white"/>
<path d="M154.057 65.1138C154.057 65.1138 154.113 65.1533 154.22 65.1984C154.382 65.2702 154.553 65.3213 154.728 65.3507C155.377 65.477 156.049 65.3712 156.628 65.0518C157.06 64.8153 157.425 64.4737 157.689 64.0586C157.953 63.6435 158.108 63.1684 158.14 62.6773C158.188 62.0867 158.052 61.4958 157.751 60.9853C157.434 60.4416 156.949 60.0146 156.37 59.7677C155.791 59.5208 155.148 59.4672 154.536 59.6148C153.99 59.7397 153.49 60.0186 153.098 60.4185C152.705 60.8183 152.435 61.3223 152.319 61.8708C152.223 62.3181 152.233 62.7816 152.348 63.2244C152.51 63.8643 152.891 64.4272 153.425 64.8149C153.566 64.9212 153.719 65.0102 153.882 65.08C153.989 65.1308 154.051 65.1533 154.051 65.142C154.051 65.1308 153.825 65.0292 153.487 64.7529C152.993 64.3554 152.647 63.8031 152.506 63.185C152.404 62.7662 152.404 62.3291 152.506 61.9103C152.617 61.4287 152.857 60.9863 153.199 60.63C153.573 60.2324 154.059 59.9571 154.592 59.8404C155.159 59.7152 155.751 59.7704 156.284 59.9983C156.82 60.2289 157.268 60.624 157.565 61.1263C157.845 61.595 157.977 62.1378 157.943 62.683C157.913 63.1444 157.771 63.5915 157.528 63.9849C157.285 64.3783 156.949 64.706 156.549 64.939C155.999 65.2523 155.361 65.3752 154.733 65.2887C154.299 65.2041 154.068 65.0969 154.057 65.1138Z" fill="#263238"/>
<path d="M163.723 38.6112H166.38C166.379 38.3097 166.44 38.0112 166.557 37.7333C166.674 37.4555 166.846 37.204 167.062 36.9937C167.278 36.7834 167.534 36.6185 167.815 36.5088C168.096 36.3992 168.396 36.347 168.698 36.3552C169.145 36.3379 169.586 36.4607 169.96 36.7064C170.335 36.9521 170.623 37.3084 170.784 37.7258C170.924 38.0746 170.98 38.4516 170.947 38.826C170.913 39.2004 170.792 39.5616 170.593 39.8802C170.141 40.6247 169.154 41.3015 167.361 41.0082V46.9584H169.989V43.4278C171.068 43.1116 172.014 42.4497 172.68 41.5438C173.347 40.638 173.697 39.5383 173.678 38.4138C173.678 34.5279 170.192 33.6255 168.698 33.6255C167.558 33.648 163.672 33.9188 163.723 38.6112Z" fill="#263238"/>
<path d="M170.023 48.1938H167.355V50.6867H170.023V48.1938Z" fill="#263238"/>
<path d="M71.6854 196.972C71.6854 196.972 66.8688 192.46 65.0132 191.247C63.1577 190.034 59.0067 188.393 57.4557 188.241C55.9047 188.089 48.646 190.192 48.646 190.192C48.646 190.192 37.93 189.245 36.1308 190.497C34.3316 191.749 34.4783 193.046 35.234 193.999C35.9898 194.952 38.8831 194.648 42.0866 194.699C45.2902 194.749 46.1418 195.048 46.1418 195.048L41.4888 200.006L53.581 203.362L60.913 203.085L63.5638 206.424L71.6854 196.972Z" fill="#F3BDAB"/>
<path d="M34.9688 185.776L35.262 196.447L35.7753 197.772L41.043 204.196L53.891 203.344L43.6544 199.357L40.0165 196.593L38.6065 192.031C38.6065 192.031 39.0352 184.992 34.9688 185.776Z" fill="#F3BDAB"/>
<path d="M35.8592 198.02H32.7121C32.7121 198.02 28.6287 191.303 24.895 193.587L25.7523 194.912C25.7523 194.912 24.0603 194.151 23 195.567L33.2986 204.591H33.7724L44.7422 203.886L35.8592 198.02Z" fill="#F3BDAB"/>
<path d="M37.7261 200.062C37.4318 200.09 37.1361 200.102 36.8406 200.096C36.0959 200.103 35.3593 200.251 34.6692 200.53L34.5677 200.581L34.5 200.485C34.1785 200.034 33.7893 199.555 33.372 199.053C32.5429 198.02 31.7871 197.09 31.1555 196.312C30.8322 195.947 30.5398 195.557 30.2812 195.144C30.6666 195.45 31.0165 195.798 31.3247 196.182C31.9281 196.853 32.7459 197.795 33.6145 198.872C34.0206 199.38 34.4041 199.859 34.7425 200.338L34.5677 200.293C35.2945 200.004 36.0772 199.883 36.8575 199.938C37.1523 199.922 37.4474 199.964 37.7261 200.062Z" fill="#FF9A6C"/>
<path d="M59.982 193.853C58.7392 194.275 57.529 194.788 56.3611 195.387C55.2477 196.083 54.1881 196.861 53.1914 197.716C53.398 197.385 53.6549 197.088 53.9528 196.836C54.6307 196.18 55.3887 195.611 56.2088 195.144C57.031 194.676 57.9082 194.313 58.8201 194.061C59.1934 193.929 59.5859 193.858 59.982 193.853Z" fill="#FF9A6C"/>
<path d="M49.7175 191.089C49.2733 191.725 48.7811 192.327 48.2455 192.888C47.785 193.516 47.2758 194.106 46.7227 194.653C47.0395 193.933 47.4784 193.273 48.0199 192.702C48.4891 192.071 49.0633 191.525 49.7175 191.089Z" fill="#FF9A6C"/>
<path d="M38.9893 201.551C38.9013 201.478 38.8201 201.397 38.7468 201.309L38.0813 200.57L37.0492 199.385L36.4062 198.647C36.1524 198.374 35.9187 198.084 35.7069 197.778C35.2308 197.052 34.9742 196.204 34.968 195.336C34.968 194.428 34.9285 193.458 34.9116 192.437C34.8778 190.39 34.8383 188.139 34.7988 185.776V185.646H34.9173L35.2613 185.601C35.6403 185.556 36.0245 185.599 36.3844 185.726C36.7442 185.853 37.0701 186.062 37.3368 186.334C37.8146 186.868 38.1621 187.505 38.352 188.196C38.6828 189.449 38.8123 190.748 38.7355 192.042V191.997C39.2601 193.723 39.7225 195.268 40.1173 196.565L40.0779 196.515L42.723 198.585L43.428 199.149C43.5126 199.209 43.5901 199.279 43.6593 199.357C43.6593 199.357 43.5634 199.312 43.3942 199.194L42.661 198.669L39.9594 196.673V196.639C39.5533 195.347 39.0683 193.819 38.5212 192.087V192.042C38.5841 190.779 38.449 189.513 38.1208 188.292C37.954 187.643 37.6372 187.042 37.1958 186.537C36.9584 186.296 36.6686 186.112 36.3488 186.001C36.0289 185.889 35.6877 185.853 35.3515 185.895L35.0413 185.934L35.1598 185.787C35.1936 188.151 35.2218 190.401 35.2444 192.448C35.2669 194.496 35.0131 196.396 35.9381 197.688C36.1225 197.981 36.326 198.262 36.5472 198.528L37.1733 199.284C37.5568 199.746 37.8895 200.152 38.1659 200.496L38.7863 201.269C38.8653 201.354 38.9335 201.449 38.9893 201.551Z" fill="#FF9A6C"/>
<path d="M33.7945 204.597C33.5942 204.616 33.394 204.561 33.2305 204.444C32.7881 204.177 32.3824 203.852 32.0235 203.48C30.8499 202.263 29.7713 200.959 28.7974 199.577C27.6356 197.964 26.6599 196.486 25.9436 195.398C25.5995 194.834 25.3288 194.405 25.1483 194.089C25.0387 193.936 24.9531 193.767 24.8945 193.587C25.0285 193.719 25.1459 193.867 25.2442 194.027L26.1184 195.279C26.8573 196.345 27.8668 197.812 29.0287 199.402C29.9967 200.778 31.0438 202.096 32.1645 203.35C32.5026 203.727 32.8808 204.065 33.2925 204.36C33.4524 204.454 33.6204 204.533 33.7945 204.597Z" fill="#FF9A6C"/>
<path d="M52.5374 197.71L46.8692 197.327L45.1772 192.685L44.867 189.56C44.8008 188.821 44.4602 188.133 43.9122 187.632C43.3642 187.131 42.6485 186.853 41.906 186.853H41.8496L42.1655 194.507L43.3329 199.261L47.9408 201.98H53.5808L52.5374 197.71Z" fill="#F3BDAB"/>
<path d="M52.5374 197.71L46.8692 197.327L45.1772 192.685L44.867 189.56C44.8008 188.821 44.4602 188.133 43.9122 187.632C43.3642 187.131 42.6485 186.853 41.906 186.853H41.8496L42.1655 194.507L43.3329 199.261L47.9408 201.98" fill="#F3BDAB"/>
<path d="M47.9403 201.98C47.8247 201.935 47.7133 201.881 47.6076 201.816L46.6826 201.303L43.2986 199.352H43.2591V199.312C42.9151 197.947 42.5146 196.334 42.0691 194.563V194.535C41.9676 192.234 41.8548 189.634 41.7363 186.882V186.735H41.883C41.9337 186.735 41.9958 186.735 42.0522 186.735C42.7339 186.759 43.3888 187.007 43.9157 187.44C44.4427 187.873 44.8125 188.468 44.9681 189.132C45.0346 189.438 45.078 189.749 45.0978 190.062L45.1824 190.965C45.2444 191.529 45.2952 192.138 45.3516 192.696V192.663C45.972 194.394 46.5303 195.962 47.0436 197.321L46.9477 197.248L51.0931 197.575L52.2211 197.682C52.3523 197.688 52.4827 197.707 52.6102 197.739C52.479 197.752 52.3467 197.752 52.2154 197.739L51.0874 197.688L46.942 197.457H46.8123V197.394C46.3104 196.041 45.7351 194.479 45.1203 192.758V192.725C45.0639 192.161 45.0019 191.597 44.9398 190.993C44.9116 190.694 44.8778 190.395 44.8496 190.091C44.8292 189.791 44.7877 189.493 44.7255 189.2C44.5837 188.598 44.2479 188.059 43.77 187.667C43.292 187.274 42.6984 187.05 42.0804 187.028H41.8491L41.9901 186.876C42.0973 189.623 42.2044 192.228 42.2947 194.529C42.7233 196.306 43.1068 197.913 43.4227 199.29L43.3719 199.222L46.7221 201.252L47.6245 201.816C47.7365 201.857 47.8426 201.912 47.9403 201.98Z" fill="#FF9A6C"/>
<path d="M173.948 107.397C169.092 88.8807 164.609 67.3528 137.531 69.2704C137.531 69.2704 120.848 72.4795 112.929 84.7917C108.265 92.0334 104.227 123.256 103.426 147.915C103.392 148.918 103.809 155.918 103.781 156.899L175.443 162.866H188.375C188.375 162.866 187.569 149.787 183.677 137.097C179.87 124.762 175.669 113.928 173.948 107.397Z" fill="#263238"/>
<path d="M133.933 76.3262L135.625 74.7075L153.927 82.0846C155.205 82.1559 156.409 82.7034 157.303 83.6191C158.197 84.5347 158.715 85.752 158.755 87.0309L158.591 146.668C158.591 150.712 157.807 154.215 155.365 157.435L152.794 160.819C146.934 168.557 134.875 167.92 130.234 159.398C129.954 158.912 129.738 158.393 129.591 157.852C129.474 157.414 129.382 156.97 129.314 156.521C128.75 151.722 128.75 147.559 128.75 147.559C128.423 142.292 128.316 140.132 128.316 140.182C128.316 140.233 117.104 138.891 114.075 124.503C112.569 117.346 112.851 107.498 113.274 97.809C113.849 84.414 123.155 76.3093 133.933 76.3262Z" fill="#F3BDAB"/>
<path d="M138.643 107.391C138.663 107.876 138.872 108.334 139.225 108.666C139.578 108.999 140.047 109.181 140.532 109.174C140.77 109.181 141.006 109.141 141.228 109.055C141.45 108.97 141.652 108.841 141.823 108.675C141.994 108.51 142.13 108.313 142.223 108.094C142.316 107.875 142.364 107.64 142.365 107.403C142.344 106.918 142.136 106.461 141.785 106.127C141.433 105.794 140.966 105.61 140.481 105.615C140.243 105.607 140.006 105.647 139.783 105.733C139.561 105.819 139.358 105.949 139.186 106.114C139.015 106.28 138.878 106.478 138.785 106.698C138.692 106.917 138.643 107.153 138.643 107.391Z" fill="#263238"/>
<path d="M119.535 107.888C119.553 108.373 119.76 108.832 120.112 109.166C120.464 109.5 120.933 109.683 121.419 109.675C121.657 109.682 121.893 109.642 122.115 109.556C122.336 109.47 122.539 109.341 122.71 109.176C122.881 109.011 123.018 108.814 123.112 108.595C123.206 108.377 123.255 108.142 123.258 107.905C123.238 107.419 123.03 106.96 122.677 106.626C122.324 106.292 121.854 106.109 121.368 106.117C121.131 106.109 120.894 106.149 120.672 106.235C120.451 106.32 120.248 106.45 120.077 106.615C119.906 106.78 119.77 106.978 119.677 107.196C119.584 107.415 119.536 107.65 119.535 107.888Z" fill="#263238"/>
<path d="M115.18 101.655C115.423 101.886 116.777 100.77 118.779 100.679C120.781 100.589 122.298 101.508 122.507 101.243C122.608 101.131 122.349 100.679 121.689 100.268C120.79 99.7125 119.743 99.4467 118.689 99.5063C117.648 99.5527 116.649 99.9323 115.84 100.589C115.248 101.102 115.056 101.554 115.18 101.655Z" fill="#263238"/>
<path d="M135.032 100.956C135.297 101.159 136.538 99.9124 138.518 99.6135C140.497 99.3146 142.105 100.082 142.28 99.8053C142.37 99.6812 142.071 99.2808 141.366 98.9198C140.417 98.46 139.35 98.3025 138.309 98.4686C137.277 98.6245 136.321 99.1045 135.579 99.8391C135.049 100.392 134.908 100.883 135.032 100.956Z" fill="#263238"/>
<path d="M128.503 116.432C128.503 116.319 127.25 116.167 125.22 116.009C124.707 115.981 124.216 115.907 124.092 115.563C124.02 115.037 124.113 114.501 124.357 114.029C124.774 112.766 125.214 111.446 125.671 110.081C127.493 104.441 128.785 99.8052 128.559 99.7318C128.333 99.6585 126.67 104.182 124.848 109.827C124.408 111.221 123.991 112.546 123.596 113.815C123.432 114.407 123.133 115.084 123.432 115.834C123.514 116.011 123.636 116.166 123.787 116.288C123.939 116.41 124.116 116.496 124.306 116.539C124.593 116.601 124.887 116.628 125.181 116.618C127.239 116.601 128.497 116.55 128.503 116.432Z" fill="#263238"/>
<path d="M128.305 140.194C135.144 139.958 141.783 137.825 147.481 134.035C147.481 134.035 143.104 144.322 128.519 143.696L128.305 140.194Z" fill="#FF9A6C"/>
<path d="M134.757 120.504C134.464 120.168 134.106 119.894 133.705 119.7C133.304 119.507 132.867 119.396 132.422 119.376C131.164 119.303 130.279 119.461 129.602 120.453C129.47 120.698 129.389 120.968 129.365 121.245C129.341 121.522 129.374 121.802 129.461 122.066C129.608 122.297 129.5 122.303 129.726 122.467C130.544 123.04 131.468 123.444 132.445 123.657C133.415 123.877 134.531 123.657 135.033 122.861C135.231 122.487 135.311 122.061 135.262 121.64C135.212 121.219 135.036 120.823 134.757 120.504Z" fill="#FF9A6C"/>
<path d="M134.554 91.7796C134.813 92.2872 136.533 91.7796 138.654 91.7232C140.775 91.6668 142.54 92.0616 142.743 91.5371C142.833 91.2889 142.461 90.8264 141.705 90.4091C140.73 89.9014 139.64 89.6546 138.541 89.6928C137.455 89.715 136.395 90.0244 135.467 90.5896C134.757 91.052 134.441 91.5314 134.554 91.7796Z" fill="#263238"/>
<path d="M115.469 98.0344C115.841 98.4687 117.2 97.9272 118.853 97.8257C120.505 97.7242 121.927 97.9724 122.237 97.4817C122.366 97.2448 122.124 96.7992 121.487 96.3988C120.641 95.9145 119.665 95.7037 118.695 95.7953C117.721 95.8586 116.792 96.2255 116.038 96.8444C115.469 97.3407 115.3 97.8201 115.469 98.0344Z" fill="#263238"/>
<path d="M158.387 112.484C158.387 112.484 150.683 114.345 139.775 90.7981C136.053 82.7837 128.828 74.7072 128.828 74.7072L135.596 73.7314C135.596 73.7314 155.816 79.4278 156.154 79.6816C156.492 79.9354 161.258 90.1382 161.258 90.1382L158.387 112.484Z" fill="#263238"/>
<path d="M155.861 111.542C155.81 110.459 156.933 107.848 157.987 107.628C160.807 107.064 165.962 107.013 166.374 114.249C166.938 124.136 156.893 122.659 156.859 122.377C156.825 122.095 156.042 115.27 155.861 111.542Z" fill="#F3BDAB"/>
<path d="M159.668 118.44C159.708 118.406 159.843 118.553 160.142 118.671C160.563 118.822 161.026 118.804 161.434 118.621C162.455 118.181 163.239 116.472 163.188 114.673C163.162 113.823 162.951 112.989 162.567 112.23C162.457 111.927 162.275 111.655 162.036 111.438C161.797 111.221 161.509 111.065 161.197 110.984C160.996 110.942 160.786 110.973 160.605 111.07C160.423 111.166 160.282 111.324 160.204 111.514C160.086 111.796 160.165 111.994 160.108 112.01C160.052 112.027 159.888 111.858 159.945 111.446C159.986 111.198 160.111 110.97 160.3 110.803C160.428 110.693 160.577 110.609 160.738 110.557C160.898 110.505 161.068 110.485 161.236 110.499C161.647 110.555 162.037 110.716 162.368 110.965C162.698 111.215 162.96 111.546 163.126 111.926C163.593 112.76 163.85 113.695 163.876 114.65C163.927 116.647 163.013 118.57 161.62 119.06C161.359 119.153 161.081 119.185 160.806 119.156C160.53 119.127 160.265 119.036 160.029 118.891C159.697 118.699 159.612 118.48 159.668 118.44Z" fill="#FF9A6C"/>
<path d="M136.031 120.905C136.003 121.158 134.311 121.119 132.309 121.508C130.307 121.897 128.739 122.523 128.615 122.303C128.491 122.083 129.974 121.046 132.145 120.645C134.317 120.245 136.076 120.696 136.031 120.905Z" fill="#263238"/>
<path d="M213.299 197.524C213.299 197.524 221.578 190.435 223.981 190.243C226.384 190.051 232.689 191.23 232.689 191.23C232.689 191.23 236.677 191.264 238.656 191.015C240.723 190.687 242.836 190.791 244.86 191.32C245.458 191.5 246.208 192.984 244.449 193.999C243.704 194.428 236.462 194.918 236.462 194.918L254.578 200.09L252.226 202.03C251.908 202.294 251.511 202.443 251.098 202.453L225.036 203.378L223.84 206.294L213.299 197.524Z" fill="#F3BDAB"/>
<path d="M233.072 197.53H241.532C241.532 197.53 244.499 193.582 245.571 191.952C246.512 190.514 247.64 190.091 248.627 190.429C248.885 190.523 249.099 190.707 249.231 190.948C249.325 191.121 249.375 191.315 249.375 191.512C249.375 191.709 249.325 191.903 249.231 192.076L245.508 199.019L247.46 198.364C247.46 198.364 251.363 194.541 252.124 193.655C252.886 192.77 255.66 189.047 258.12 191.76L254.736 195.55L258.12 193.147C258.12 193.147 260.838 190.813 262.287 193.593L252.135 202.143" fill="#F3BDAB"/>
<path d="M224.264 194.016C224.371 193.963 224.485 193.924 224.602 193.897C224.93 193.787 225.268 193.71 225.612 193.666C226.89 193.495 228.191 193.63 229.407 194.061C230.257 194.354 231.075 194.732 231.849 195.189C232.267 195.437 232.69 195.708 233.118 196.007L233.761 196.464C233.964 196.61 234.218 196.802 234.382 196.892C236.525 197.056 238.978 197.202 241.545 197.383L241.421 197.434C242.216 196.492 242.994 195.465 243.75 194.399C244.049 193.982 244.314 193.559 244.602 193.142C244.889 192.724 245.132 192.29 245.436 191.895C245.727 191.485 246.059 191.107 246.429 190.767C246.617 190.603 246.823 190.462 247.044 190.344C247.279 190.208 247.551 190.147 247.822 190.169H247.771C248.004 190.13 248.243 190.138 248.472 190.194C248.702 190.249 248.918 190.35 249.108 190.491C249.276 190.651 249.405 190.85 249.482 191.069C249.559 191.289 249.584 191.523 249.553 191.754V191.782C247.94 194.67 246.536 197.185 245.453 199.114C245.335 199.471 245.14 199.797 244.881 200.07C244.623 200.343 244.308 200.556 243.959 200.694C243.454 200.903 242.915 201.018 242.368 201.032C242.032 201.051 241.695 201.051 241.359 201.032C241.241 201.035 241.124 201.024 241.009 200.998H241.359C241.584 200.998 241.923 200.998 242.362 200.959C242.893 200.927 243.414 200.803 243.902 200.592C244.224 200.455 244.513 200.251 244.749 199.993C244.986 199.736 245.164 199.43 245.273 199.097L249.288 191.692V191.743C249.312 191.557 249.292 191.368 249.231 191.191C249.169 191.014 249.067 190.853 248.933 190.722C248.604 190.494 248.199 190.405 247.805 190.474H247.76C247.561 190.471 247.366 190.524 247.196 190.626C246.991 190.729 246.801 190.86 246.632 191.015C246.275 191.332 245.956 191.688 245.679 192.076C245.115 192.865 244.607 193.768 243.987 194.58C243.225 195.657 242.441 196.678 241.635 197.631L241.59 197.687H241.516C238.933 197.496 236.531 197.349 234.32 197.152C234.067 197.018 233.829 196.86 233.609 196.678L232.972 196.221C232.554 195.922 232.137 195.657 231.731 195.403C230.974 194.948 230.172 194.57 229.34 194.275C228.151 193.835 226.878 193.673 225.617 193.801C225.279 193.836 224.943 193.897 224.613 193.982C224.498 194.001 224.381 194.013 224.264 194.016Z" fill="#FF9A6C"/>
<path d="M258.137 191.76C258.05 191.929 257.94 192.084 257.81 192.222C257.578 192.51 257.246 192.922 256.823 193.418C255.988 194.422 254.815 195.792 253.501 197.293C252.187 198.793 251.059 200.214 250.083 201.105C249.708 201.466 249.3 201.791 248.865 202.075C248.71 202.19 248.533 202.27 248.346 202.312C248.49 202.191 248.643 202.08 248.803 201.979C249.202 201.664 249.579 201.321 249.931 200.953C250.85 200.039 251.921 198.59 253.264 197.106C254.606 195.623 255.779 194.253 256.648 193.283L257.697 192.155C257.826 192.004 257.973 191.872 258.137 191.76Z" fill="#FF9A6C"/>
<path d="M253.495 192.155C253.196 192.592 252.852 192.996 252.469 193.362C251.809 194.084 250.878 195.054 249.841 196.137C248.989 197.016 248.194 197.829 247.585 198.443C246.913 198.715 246.21 198.905 245.492 199.007C245.673 198.917 245.862 198.843 246.056 198.787L247.534 198.223L247.489 198.252C248.098 197.597 248.876 196.78 249.745 195.905C250.783 194.834 251.736 193.875 252.435 193.193C252.759 192.818 253.114 192.47 253.495 192.155Z" fill="#FF9A6C"/>
<path d="M185.229 155.438C185.229 155.438 197.389 158.574 198.579 175.1C199.261 184.518 194.247 214.766 194.247 214.766L212.205 196.323L228.211 207.456C228.211 207.456 206.424 234.06 201.416 238.081C196.407 242.103 188.376 248.521 185.781 247.997C183.187 247.472 183.176 235.47 183.176 235.47V169.2L185.229 155.438Z" fill="#FFD43B"/>
<path d="M97.8088 157.463C97.8088 157.463 86.9913 161.022 87.4199 182.172C87.8486 203.322 87.5158 210.422 87.5158 210.422L71.3008 193.26L57.8438 208.116C57.8438 208.116 72.9138 230.507 83.455 241.392C93.3927 251.64 102.225 242.74 105.096 235.532C107.419 229.694 109.292 207.495 109.292 207.495L97.8088 157.463Z" fill="#FFD43B"/>
<g opacity="0.3">
<path d="M186.171 193.508C187.152 187.304 187.411 180.587 184.586 174.896C177.654 192.031 177.964 211.709 180.446 229.864L185.939 245.571C189.402 235.047 186.114 223.835 186.187 212.859C186.233 206.605 185.195 199.696 186.171 193.508Z" fill="black"/>
</g>
<path d="M95.5586 170.92C95.5586 170.92 102.789 219.559 104.188 223.817C105.587 228.076 105.587 240.63 105.587 240.63C105.587 240.63 98.0007 254.764 97.5326 264.583L188.94 264.775L183.001 224.41C182.812 221.861 182.767 219.304 182.866 216.751C183.249 209.638 183.796 194.394 185.838 185.02C188.207 174.123 185.015 155.478 185.015 155.478L157.711 148.749C151.248 158.038 135.151 158.162 128.767 148.749L97.95 157.463L95.5586 170.92Z" fill="#FFD43B"/>
<path d="M184.795 222.481C184.861 222.323 184.952 222.176 185.066 222.047C185.257 221.782 185.545 221.398 185.906 220.919C186.844 219.696 187.894 218.563 189.042 217.535C190.21 216.53 191.512 215.693 192.911 215.048C193.475 214.811 193.892 214.63 194.202 214.529C194.361 214.46 194.528 214.413 194.699 214.388C194.761 214.506 191.93 215.414 189.234 217.772C188.104 218.789 187.045 219.882 186.064 221.043C185.676 221.552 185.252 222.033 184.795 222.481Z" fill="#263238"/>
<path d="M100.15 221.449C100.093 221.449 99.8847 220.462 99.191 218.979C98.2969 217.041 96.991 215.323 95.3642 213.942C93.7374 212.562 91.829 211.553 89.7722 210.987C88.193 210.547 87.1665 210.502 87.1778 210.423C87.4157 210.393 87.6563 210.393 87.8941 210.423C88.5449 210.479 89.19 210.588 89.823 210.75C91.9351 211.27 93.8983 212.272 95.5589 213.677C97.2109 215.089 98.5188 216.86 99.3828 218.854C99.643 219.454 99.8561 220.072 100.02 220.704C100.096 220.946 100.14 221.196 100.15 221.449Z" fill="#263238"/>
<path d="M100.736 195.093C100.585 195.042 100.444 194.966 100.319 194.868C100.065 194.71 99.704 194.462 99.2697 194.134C98.1464 193.283 97.0956 192.34 96.1282 191.314C95.1666 190.29 94.2646 189.211 93.4267 188.083C93.0524 187.633 92.7237 187.148 92.4453 186.633C92.8522 187.046 93.2291 187.487 93.5733 187.953C94.2614 188.782 95.2089 189.921 96.3313 191.111C97.2918 192.125 98.3127 193.08 99.3882 193.971C99.858 194.32 100.308 194.694 100.736 195.093Z" fill="#263238"/>
<path d="M164.542 221.421C164.542 221.421 164.542 221.46 164.469 221.534L164.232 221.844C164.006 222.109 163.707 222.526 163.267 223.011C162.046 224.407 160.727 225.713 159.319 226.92C157.222 228.719 154.987 230.352 152.636 231.804C149.765 233.569 146.8 235.175 143.753 236.615C140.516 238.155 137.391 239.525 134.56 240.8C131.729 242.075 129.196 243.242 127.104 244.297C125.011 245.351 123.342 246.254 122.203 246.908C121.639 247.224 121.199 247.472 120.9 247.664L120.556 247.856C120.477 247.895 120.437 247.918 120.432 247.912C120.463 247.88 120.499 247.853 120.539 247.833L120.866 247.613C121.159 247.427 121.582 247.145 122.146 246.807C123.274 246.124 124.921 245.182 127.008 244.111C129.095 243.039 131.627 241.855 134.453 240.552C137.278 239.249 140.397 237.89 143.623 236.35C146.662 234.913 149.623 233.319 152.495 231.573C154.838 230.146 157.07 228.545 159.173 226.785C160.592 225.598 161.932 224.318 163.183 222.955C163.634 222.487 163.95 222.081 164.181 221.827L164.446 221.539L164.542 221.421Z" fill="#263238"/>
<path d="M97.7422 263.822V263.704C97.7422 263.608 97.7422 263.495 97.7422 263.348C97.7422 263.021 97.7929 262.564 97.8268 261.972C98.0442 260.257 98.3892 258.56 98.8589 256.896C100.592 251.065 102.952 245.439 105.898 240.117V240.19C105.531 234.9 104.984 228.989 104.352 222.774C103.145 211.032 101.882 200.428 100.968 192.747C100.506 188.923 100.128 185.821 99.8403 183.661C99.7162 182.6 99.6203 181.766 99.547 181.185L99.4793 180.542C99.4718 180.469 99.4718 180.395 99.4793 180.322C99.5023 180.391 99.5174 180.463 99.5244 180.536C99.547 180.694 99.5808 180.908 99.6259 181.179C99.7049 181.743 99.8233 182.583 99.97 183.644C100.258 185.804 100.664 188.9 101.171 192.724C102.147 200.395 103.427 210.998 104.651 222.74C105.283 228.944 105.824 234.877 106.168 240.173V240.213V240.247C103.221 245.548 100.837 251.143 99.0563 256.941C98.564 258.596 98.187 260.282 97.9283 261.989C97.8775 262.553 97.8324 263.032 97.8042 263.354C97.8042 263.5 97.8042 263.619 97.7647 263.709C97.7627 263.748 97.7551 263.786 97.7422 263.822Z" fill="#263238"/>
<path d="M186.96 172.054C186.969 172.134 186.969 172.216 186.96 172.296C186.96 172.471 186.96 172.702 186.96 173.007C186.96 173.627 186.96 174.547 186.909 175.725C186.847 178.089 186.605 181.501 186.182 185.708C185.759 189.916 185.161 194.907 184.541 200.457C183.92 206.007 183.311 212.115 183.119 218.556C182.985 224.606 183.403 230.657 184.366 236.632C185.178 242.159 186.137 247.094 186.876 251.256C187.614 255.419 188.19 258.786 188.506 261.126C188.675 262.299 188.771 263.213 188.838 263.828C188.838 264.127 188.889 264.392 188.906 264.533C188.914 264.613 188.914 264.695 188.906 264.775C188.883 264.698 188.867 264.619 188.861 264.538C188.861 264.364 188.804 264.132 188.759 263.839C188.675 263.219 188.562 262.311 188.37 261.143C188.026 258.808 187.44 255.441 186.678 251.29C185.917 247.139 184.93 242.204 184.101 236.671C183.121 230.681 182.694 224.613 182.826 218.544C183.023 212.092 183.65 205.978 184.276 200.429C184.902 194.879 185.545 189.887 185.968 185.686C186.391 181.484 186.684 178.083 186.785 175.72C186.859 174.541 186.864 173.627 186.887 173.007C186.887 172.702 186.887 172.471 186.887 172.296C186.904 172.213 186.928 172.132 186.96 172.054Z" fill="#263238"/>
<g opacity="0.3">
<path d="M99.7444 182.477C98.1854 198.053 99.9915 213.783 105.04 228.6L99.7444 182.477Z" fill="black"/>
</g>
<g opacity="0.3">
<path d="M156.285 236.366C149.359 242.728 142.411 248.165 133.889 251.194C140.313 251.758 146.793 249.282 151.756 245.17C156.719 241.059 160.256 236.71 162.529 230.698L156.285 236.366Z" fill="black"/>
</g>
<path d="M148.395 243.371C148.339 243.315 152.648 239.361 158.017 234.545C163.386 229.728 167.785 225.876 167.836 225.938C167.887 226 163.584 229.948 158.214 234.765C152.845 239.581 148.451 243.434 148.395 243.371Z" fill="#263238"/>
<path d="M163.713 124.012C163.713 124.712 163.506 125.396 163.117 125.978C162.728 126.559 162.175 127.013 161.529 127.28C160.882 127.547 160.171 127.617 159.485 127.48C158.799 127.343 158.169 127.006 157.674 126.511C157.18 126.016 156.844 125.385 156.708 124.699C156.572 124.012 156.643 123.301 156.911 122.655C157.18 122.009 157.634 121.457 158.216 121.069C158.799 120.681 159.483 120.475 160.183 120.476C160.647 120.476 161.106 120.568 161.535 120.745C161.964 120.923 162.353 121.184 162.681 121.512C163.009 121.841 163.269 122.23 163.446 122.66C163.623 123.089 163.714 123.548 163.713 124.012Z" fill="#455A64"/>
<path d="M184.755 170.452C183.714 161.804 182.672 153.156 181.631 144.508L159.268 137.74C158.834 153.171 156.132 170.497 152.252 185.438C160.524 188.116 169.267 189.026 177.914 188.111C178.29 183.937 178.666 179.764 179.042 175.59C179.598 178.737 180.162 181.883 180.734 185.026C183.08 183.712 184.462 181.078 184.93 178.444C185.398 175.81 185.077 173.148 184.755 170.452Z" fill="#263238"/>
<path d="M167.254 188.229C167.254 188.229 167.254 188.122 167.322 187.908C167.389 187.693 167.446 187.344 167.542 186.955C167.739 186.109 168.027 184.879 168.399 183.306C169.132 180.13 170.215 175.545 171.27 169.82C172.556 163.118 173.371 156.333 173.706 149.516C174.136 141.179 173.376 132.823 171.45 124.7C169.544 116.56 166.016 108.887 161.078 102.14C160.514 101.379 159.95 100.606 159.318 99.8843C158.687 99.1624 158.128 98.4573 157.491 97.8087L156.56 96.8217L155.613 95.8799C154.993 95.2482 154.35 94.6673 153.729 94.0807C151.219 91.757 148.766 89.7153 146.572 87.7977C144.378 85.8801 142.421 84.1148 140.797 82.4623C140.385 82.0506 140.013 81.6332 139.669 81.2497C139.325 80.8662 138.947 80.477 138.631 80.1217C138.315 79.7664 137.994 79.3885 137.7 79.0445L136.905 78.0293C136.386 77.3976 135.997 76.7885 135.63 76.2752C135.264 75.762 134.993 75.3108 134.773 74.9385L134.277 74.1038C134.164 73.9121 134.113 73.8105 134.113 73.8105C134.113 73.8105 134.181 73.9008 134.305 74.0869L134.824 74.9104C135.05 75.2713 135.332 75.7225 135.704 76.2245C136.076 76.7264 136.471 77.3525 136.995 77.9616L137.796 78.9655L138.732 80.0315C139.054 80.4093 139.404 80.7872 139.781 81.1595C140.159 81.5317 140.526 81.9603 140.943 82.3608C142.568 84.002 144.536 85.7448 146.736 87.6567C148.935 89.5687 151.394 91.6047 153.921 93.9172C154.541 94.4811 155.196 95.0903 155.816 95.7163L156.769 96.6582L157.705 97.6508C158.348 98.2994 158.929 99.027 159.544 99.732C160.159 100.437 160.734 101.204 161.326 101.988C166.285 108.762 169.825 116.468 171.732 124.644C173.669 132.796 174.429 141.183 173.988 149.55C173.639 156.369 172.802 163.154 171.484 169.854C170.401 175.584 169.29 180.164 168.523 183.334C168.134 184.913 167.824 186.154 167.609 186.972C167.502 187.378 167.417 187.688 167.361 187.913C167.305 188.139 167.254 188.229 167.254 188.229Z" fill="#455A64"/>
<path d="M82.1389 70.116L82.9995 78.2753L81.3388 78.4505L80.6116 71.5565L79.6238 71.6607C79.414 71.6828 79.2642 71.7544 79.1745 71.8755C79.0849 71.9965 79.0457 72.18 79.057 72.4259C79.0759 73.0217 79.0818 73.5631 79.0747 74.0501C79.0675 74.5371 79.0421 74.9902 78.9985 75.4093C78.9613 75.8197 78.9004 76.2127 78.8156 76.5883C78.7372 76.9553 78.6331 77.321 78.5033 77.6854C78.3726 78.042 78.2142 78.4134 78.0281 78.7997L76.6279 78.9474C76.9029 78.2249 77.1043 77.4982 77.2321 76.7673C77.359 76.0286 77.4381 75.2869 77.4693 74.5423C77.4997 73.7898 77.5011 73.0404 77.4736 72.294C77.4574 71.7935 77.5814 71.3739 77.8457 71.0352C78.1172 70.6957 78.499 70.5 78.991 70.4481L82.1389 70.116ZM77.6938 78.7512L77.7606 80.6333L76.5666 80.7593L76.3695 78.8909L77.6938 78.7512ZM83.843 76.9069L83.9764 78.1722L76.3782 78.9737L76.2448 77.7084L83.843 76.9069ZM83.9677 78.0895L84.1648 79.9578L82.9816 80.0826L82.6543 78.228L83.9677 78.0895Z" fill="#232323"/>
<path d="M87.6886 69.5306C87.8261 69.5161 87.9501 69.5469 88.0605 69.6229C88.1782 69.6982 88.2626 69.8049 88.3138 69.9429L91.2955 77.4002L89.6022 77.5788L87.4393 71.745C87.3962 71.614 87.3531 71.483 87.31 71.3521C87.2661 71.2132 87.2266 71.0819 87.1916 70.958L86.8986 70.989C86.8902 71.1174 86.879 71.2541 86.865 71.399C86.8574 71.5353 86.8426 71.6724 86.8206 71.8102L85.9225 77.967L84.2183 78.1467L85.5893 70.2303C85.6105 70.0846 85.6672 69.963 85.7594 69.8656C85.8588 69.7675 85.9772 69.7111 86.1147 69.6966L87.6886 69.5306ZM89.3294 74.0565L89.4728 75.4164L85.5869 75.8263L85.4435 74.4664L89.3294 74.0565Z" fill="#232323"/>
<path d="M196.091 81.5093L195.539 90.4146L193.745 90.3034L194.296 81.3981L196.091 81.5093ZM198.881 85.1154L198.789 86.5996L195.693 86.4078L195.785 84.9236L198.881 85.1154ZM200.758 81.7984L200.206 90.7037L198.412 90.5926L198.964 81.6872L200.758 81.7984Z" fill="#232323"/>
<path d="M204.094 81.9662C204.524 81.9929 204.961 82.0243 205.407 82.0605C205.852 82.0881 206.289 82.1239 206.718 82.1677C207.155 82.212 207.56 82.2673 207.932 82.3336L207.761 83.7611L204.654 83.5686C204.458 83.5565 204.306 83.6032 204.198 83.7088C204.097 83.8148 204.04 83.9754 204.027 84.1905L203.745 88.7335C203.732 88.9486 203.769 89.115 203.856 89.2327C203.95 89.3508 204.095 89.4159 204.291 89.428L207.398 89.6206L207.392 91.0583C207.014 91.0694 206.606 91.0744 206.167 91.073C205.736 91.0636 205.297 91.0451 204.852 91.0175C204.405 90.9985 203.967 90.9757 203.537 90.949C203.021 90.9171 202.613 90.7277 202.313 90.3808C202.021 90.0259 201.892 89.5817 201.925 89.0482L202.259 83.6534C202.293 83.1114 202.476 82.6865 202.809 82.3789C203.15 82.0718 203.578 81.9343 204.094 81.9662ZM202.346 85.4856L207.189 85.7856L207.102 87.1795L202.259 86.8794L202.346 85.4856Z" fill="#232323"/>
<path d="M212.817 82.5456L212.265 91.4509L210.471 91.3397L211.023 82.4344L212.817 82.5456ZM215.256 82.6967L215.16 84.2454L208.5 83.8328L208.596 82.284L215.256 82.6967Z" fill="#232323"/>
</svg>
