<svg width="282" height="282" viewBox="0 0 282 282" fill="none" xmlns="http://www.w3.org/2000/svg">
<g clip-path="url(#clip0_4229_7516)">
<path d="M288.93 26.6005H242.539V77.6026H288.93V26.6005Z" fill="#E0E0E0"/>
<path d="M285.782 26.6005H239.391V77.6026H285.782V26.6005Z" fill="#FAFAFA"/>
<path d="M285.806 77.6161H239.383V26.587H285.806V77.6161ZM239.415 77.6161H285.774V26.6139H239.415V77.6161Z" fill="#E0E0E0"/>
<path d="M279.541 33.4555H245.625V70.7475H279.541V33.4555Z" fill="white"/>
<path d="M245.632 70.9967C245.391 71.3699 245.11 71.7133 244.796 72.0202C244.253 72.6263 243.519 73.4411 242.638 74.3232C241.757 75.2053 241.003 75.9999 240.422 76.5656C240.131 76.8916 239.803 77.1788 239.445 77.4208C239.682 77.0475 239.96 76.706 240.275 76.404C240.818 75.7979 241.584 74.9831 242.44 74.0942C243.295 73.2054 244.081 72.4108 244.655 71.8519C244.948 71.5277 245.276 71.2407 245.632 70.9967Z" fill="#E0E0E0"/>
<path d="M279.555 70.9361C279.91 71.1887 280.236 71.4848 280.525 71.8182C281.1 72.3906 281.872 73.165 282.709 74.0943C283.545 75.0235 284.299 75.8181 284.835 76.4309C285.142 76.7418 285.416 77.0873 285.652 77.4612C285.294 77.2153 284.967 76.921 284.682 76.5858C284.107 76.0134 283.334 75.239 282.492 74.3098C281.649 73.3805 280.895 72.5724 280.366 71.9664C280.058 71.6574 279.786 71.3116 279.555 70.9361Z" fill="#E0E0E0"/>
<path d="M279.453 33.5565C279.695 33.1896 279.975 32.853 280.29 32.5532C280.832 31.9539 281.566 31.1391 282.448 30.2502C283.329 29.3613 284.082 28.5735 284.663 28.0145C284.955 27.6841 285.285 27.3945 285.646 27.1526C285.403 27.5243 285.122 27.8674 284.81 28.1762C284.267 28.7755 283.533 29.597 282.652 30.4859C281.771 31.3747 281.011 32.1626 280.43 32.7215C280.137 33.0393 279.809 33.3196 279.453 33.5565Z" fill="#E0E0E0"/>
<path d="M245.543 33.6441C245.186 33.3907 244.858 33.0947 244.566 32.7619C243.998 32.1895 243.225 31.4151 242.382 30.4926C241.54 29.5701 240.792 28.762 240.263 28.1492C239.949 27.8448 239.674 27.4985 239.445 27.119C239.801 27.369 240.127 27.6628 240.416 27.9944C240.984 28.5667 241.763 29.3748 242.606 30.2771C243.449 31.1795 244.196 32.0077 244.725 32.6138C245.036 32.9217 245.31 33.2676 245.543 33.6441Z" fill="#E0E0E0"/>
<path d="M279.456 70.7475C279.456 70.7475 279.456 70.6802 279.456 70.5657C279.456 70.4512 279.456 70.2627 279.456 70.0472C279.456 69.5758 279.456 68.9025 279.456 68.0271C279.456 66.2561 279.456 63.6905 279.424 60.4245C279.424 53.8927 279.386 44.5865 279.36 33.4488L279.488 33.5834H245.649L245.802 33.4286C245.802 47.1185 245.802 59.9195 245.802 70.7206L245.675 70.5859L270.166 70.6533H277.049H278.869H279.335C279.39 70.6456 279.446 70.6456 279.501 70.6533H278.894H277.1L270.249 70.6937L245.675 70.761H245.547V70.6263C245.547 59.8522 245.547 47.0579 245.547 33.3343V33.2939H245.7H279.539H279.673V33.4353C279.673 44.6135 279.622 53.9466 279.603 60.4986C279.603 63.7511 279.603 66.3099 279.571 68.0675C279.571 68.9294 279.571 69.596 279.571 70.0876C279.571 70.3031 279.571 70.4714 279.571 70.5927C279.541 70.6503 279.502 70.7026 279.456 70.7475Z" fill="#E0E0E0"/>
<path d="M268.25 46.1286H256.93V58.0677H268.25V46.1286Z" fill="#EBEBEB"/>
<path d="M288.93 90.9019H242.539V141.904H288.93V90.9019Z" fill="#E0E0E0"/>
<path d="M285.782 90.9019H239.391V141.904H285.782V90.9019Z" fill="#FAFAFA"/>
<path d="M285.806 141.918H239.383V90.8817H285.806V141.918ZM239.415 141.918H285.774V90.9154H239.415V141.918Z" fill="#E0E0E0"/>
<path d="M279.541 97.757H245.625V135.049H279.541V97.757Z" fill="white"/>
<path d="M245.632 135.291C245.392 135.668 245.111 136.013 244.796 136.322C244.253 136.921 243.519 137.743 242.638 138.625C241.757 139.507 241.003 140.301 240.422 140.86C240.132 141.189 239.804 141.479 239.445 141.722C239.682 141.347 239.961 141.004 240.275 140.699C240.818 140.099 241.584 139.278 242.44 138.389C243.295 137.5 244.081 136.712 244.655 136.153C244.947 135.826 245.275 135.537 245.632 135.291Z" fill="#E0E0E0"/>
<path d="M279.555 135.204C279.91 135.456 280.236 135.753 280.525 136.086C281.1 136.658 281.872 137.433 282.709 138.362C283.545 139.291 284.299 140.086 284.835 140.699C285.142 141.01 285.416 141.355 285.652 141.729C285.294 141.483 284.967 141.189 284.682 140.854C284.107 140.281 283.334 139.473 282.492 138.571C281.649 137.668 280.895 136.84 280.366 136.234C280.058 135.925 279.786 135.579 279.555 135.204Z" fill="#E0E0E0"/>
<path d="M279.453 97.8715C279.693 97.4952 279.974 97.1494 280.29 96.8412C280.832 96.2419 281.566 95.4203 282.448 94.5382C283.329 93.6561 284.082 92.8615 284.663 92.3026C284.955 91.9722 285.285 91.6825 285.646 91.4406C285.404 91.8108 285.123 92.1518 284.81 92.4575C284.267 93.0635 283.533 93.8783 282.652 94.7739C281.771 95.6695 281.011 96.4506 280.43 97.0095C280.138 97.3368 279.81 97.6262 279.453 97.8715Z" fill="#E0E0E0"/>
<path d="M245.543 97.9455C245.186 97.6922 244.858 97.3962 244.566 97.0634C243.998 96.491 243.225 95.7166 242.382 94.7874C241.54 93.8581 240.792 93.0635 240.263 92.4507C239.95 92.1446 239.676 91.7985 239.445 91.4204C239.801 91.6704 240.127 91.9643 240.416 92.2958C240.984 92.8682 241.763 93.6763 242.606 94.5786C243.449 95.481 244.196 96.3092 244.725 96.9153C245.036 97.2232 245.31 97.5691 245.543 97.9455Z" fill="#E0E0E0"/>
<path d="M279.456 135.049C279.456 135.049 279.456 134.982 279.456 134.867C279.456 134.753 279.456 134.564 279.456 134.342C279.456 133.877 279.456 133.204 279.456 132.322C279.456 130.558 279.456 127.985 279.424 124.726C279.424 118.194 279.386 108.888 279.36 97.7503L279.488 97.8849H245.649L245.802 97.7301C245.802 111.413 245.802 124.221 245.802 135.022L245.675 134.881L270.166 134.955H277.049H278.869H279.335C279.39 134.949 279.446 134.949 279.501 134.955H278.894H277.1L270.249 134.988L245.675 135.062H245.547V134.928C245.547 124.154 245.547 111.319 245.547 97.6358V97.4742H245.7H279.539H279.673V97.6156C279.673 108.794 279.622 118.127 279.603 124.679C279.603 127.931 279.603 130.49 279.571 132.248C279.571 133.11 279.571 133.77 279.571 134.268C279.571 134.483 279.571 134.652 279.571 134.773C279.555 134.873 279.515 134.968 279.456 135.049Z" fill="#E0E0E0"/>
<path d="M268.25 110.43H256.93V122.369H268.25V110.43Z" fill="#EBEBEB"/>
<path d="M70.0991 26.587H20.3047V102.706H70.0991V26.587Z" fill="#E0E0E0"/>
<path d="M67.6069 26.587H17.8125V102.706H67.6069V26.587Z" fill="#F5F5F5"/>
<path d="M61.413 34.8292H23.9922V94.4641H61.413V34.8292Z" fill="white"/>
<path d="M61.42 94.4642C61.42 94.4642 61.42 94.3631 61.42 94.1746C61.42 93.9861 61.42 93.6965 61.42 93.3261C61.42 92.5787 61.42 91.4811 61.42 90.0535C61.42 87.1983 61.42 83.0301 61.42 77.771C61.42 67.2527 61.3817 52.3642 61.3561 34.8292L61.4774 34.9572H24.063L24.1971 34.8158C24.1971 57.3135 24.1971 78.0538 24.1971 94.4507L24.0886 94.3362L51.3257 94.3968H58.8533H60.8262H61.5094H60.8709H58.9172L51.281 94.5046L23.9736 94.5652H23.8906V94.4507C23.8906 78.0538 23.8906 57.3135 23.8906 34.8158V34.6743H24.0311H61.4455H61.5732V34.8023C61.5732 52.3709 61.5285 67.2931 61.5094 77.8316C61.5094 83.0772 61.5094 87.2589 61.5094 90.0872C61.5094 91.4945 61.5094 92.5854 61.5094 93.3261C61.5094 93.6898 61.5094 93.9995 61.5094 94.1611C61.5094 94.3228 61.42 94.4642 61.42 94.4642Z" fill="#E0E0E0"/>
<path d="M67.7415 26.587C67.4847 27.0631 67.1877 27.5139 66.854 27.9337C66.2794 28.7485 65.4558 29.8596 64.5172 31.0582C63.5787 32.2569 62.704 33.3208 62.0591 34.075C61.7286 34.5009 61.3609 34.8932 60.9609 35.2467C61.2411 34.77 61.5594 34.3195 61.9123 33.8999C62.5507 33.0515 63.3999 31.9943 64.3129 30.836L66.7072 27.8395C67.0181 27.3922 67.3641 26.9732 67.7415 26.587Z" fill="#E0E0E0"/>
<path d="M61.6094 94.2688C63.4708 97.3909 65.662 100.28 68.1409 102.881L61.6094 94.2688Z" fill="white"/>
<path d="M68.1409 102.881C67.7256 102.56 67.3426 102.194 66.9981 101.791C66.3596 101.077 65.4466 100.053 64.54 98.8613C63.7662 97.841 63.0417 96.7802 62.3692 95.6829C62.0727 95.2389 61.8182 94.7653 61.6094 94.2688C61.9479 94.6758 62.2553 95.1104 62.5288 95.5685C63.0779 96.3833 63.8504 97.4943 64.7507 98.6795C65.6509 99.8647 66.5064 100.908 67.1385 101.649C67.5003 102.034 67.8353 102.446 68.1409 102.881Z" fill="#E0E0E0"/>
<path d="M17.8047 102.646L24.3299 94.1611L17.8047 102.646Z" fill="white"/>
<path d="M24.3299 94.1611C23.346 95.6594 22.2911 97.1046 21.1694 98.491C20.1179 99.9373 18.9947 101.324 17.8047 102.646C18.7851 101.146 19.8378 99.7013 20.9587 98.3159C22.0135 96.8704 23.1387 95.4836 24.3299 94.1611Z" fill="#E0E0E0"/>
<path d="M17.8125 26.587C18.9452 27.853 20.0109 29.1838 21.0049 30.5734C22.0631 31.906 23.05 33.2998 23.961 34.7484C22.8312 33.4773 21.7656 32.1444 20.7686 30.7552C19.7132 29.4226 18.7264 28.0312 17.8125 26.587Z" fill="#E0E0E0"/>
<path d="M49.7676 46.9366H37.2344V84.4576H49.7676V46.9366Z" fill="#E0E0E0"/>
<path d="M49.6548 249.706C49.6548 251.053 29.0514 308.587 29.0514 308.587H21.2109L41.7633 249.706H49.6548Z" fill="#EBEBEB"/>
<path d="M69.732 308.587H77.5469L77.5469 247.06H69.732V308.587Z" fill="#EBEBEB"/>
<path d="M26.547 273.228H73.6406V267.389H26.547V273.228Z" fill="#EBEBEB"/>
<path d="M35.0923 251.868H78.3359V246.03H35.0923V251.868Z" fill="#EBEBEB"/>
<path d="M34.1406 251.868C34.1406 251.962 43.8965 252.036 55.9253 252.036C67.9541 252.036 77.7163 251.962 77.7163 251.868C77.7163 251.774 67.9604 251.693 55.9253 251.693C43.8901 251.693 34.1406 251.774 34.1406 251.868Z" fill="#E0E0E0"/>
<path d="M69.7363 251.625C69.8321 251.625 69.9023 264.373 69.9023 280.096C69.9023 295.82 69.8321 308.567 69.7363 308.567C69.6405 308.567 69.5703 295.82 69.5703 280.096C69.5703 264.373 69.6469 251.625 69.7363 251.625Z" fill="#E0E0E0"/>
<path d="M48.6796 252.312C48.6867 252.361 48.6867 252.411 48.6796 252.46C48.6796 252.582 48.6029 252.723 48.5519 252.898C48.4178 253.302 48.2454 253.854 48.0219 254.555C47.5559 255.989 46.8663 258.063 45.998 260.615C44.2677 265.726 41.8032 272.736 39.045 280.507L32.0218 300.372L29.9021 306.392C29.6531 307.065 29.4616 307.624 29.3147 308.028L29.1551 308.446C29.1395 308.495 29.1181 308.543 29.0913 308.587C29.0842 308.538 29.0842 308.488 29.0913 308.439L29.219 308.001L29.7489 306.345C30.2086 304.91 30.9045 302.836 31.7728 300.284C33.4839 295.173 35.9484 288.143 38.7066 280.359C41.4648 272.574 43.9357 265.612 45.7298 260.507L47.8495 254.481C48.0986 253.807 48.2901 253.248 48.4369 252.844L48.5966 252.427C48.62 252.385 48.6478 252.347 48.6796 252.312Z" fill="#E0E0E0"/>
<path d="M40.8942 251.989C40.8857 252.042 40.8729 252.094 40.8559 252.144L40.7282 252.582C40.5941 252.986 40.4217 253.545 40.1982 254.245C39.7322 255.693 39.0362 257.773 38.1615 260.305C36.4185 265.45 33.9412 272.521 31.1383 280.318C28.3354 288.116 25.8773 295.133 24.0513 300.291C23.1638 302.823 22.436 304.883 21.9188 306.351C21.6698 307.025 21.4783 307.59 21.3314 307.994L21.1718 308.419C21.156 308.47 21.1322 308.517 21.1016 308.56C21.1097 308.509 21.1225 308.46 21.1399 308.412C21.1399 308.291 21.2165 308.149 21.2676 307.974C21.3953 307.563 21.574 307.005 21.7975 306.304C22.2636 304.863 22.9595 302.776 23.8342 300.21C25.5772 295.072 28.0545 288.002 30.8574 280.197C33.6603 272.393 36.1184 265.383 37.938 260.231L40.0769 254.171C40.3195 253.497 40.5175 252.932 40.6643 252.528L40.8239 252.103C40.8421 252.062 40.8658 252.023 40.8942 251.989Z" fill="#E0E0E0"/>
<path d="M69.3888 189.923C69.385 191.32 68.9743 192.682 68.2123 193.824C67.4502 194.967 66.3737 195.835 65.1285 196.311C63.8833 196.787 62.5295 196.847 61.2504 196.485C59.9714 196.122 58.8288 195.354 57.9776 194.284C57.1263 193.214 56.6074 191.893 56.4911 190.502C56.3748 189.11 56.6668 187.715 57.3275 186.504C57.9881 185.294 58.9856 184.326 60.1848 183.733C61.384 183.14 62.7271 182.95 64.032 183.189C65.5299 183.475 66.8856 184.305 67.864 185.535C68.8424 186.765 69.3818 188.318 69.3888 189.923C69.3888 192.28 72.9004 192.287 72.8684 189.923C72.847 187.777 72.2112 185.689 71.0446 183.931C69.8779 182.173 68.2347 180.827 66.3305 180.071C64.4038 179.335 62.3084 179.243 60.3308 179.81C58.3531 180.377 56.5897 181.575 55.2817 183.238C53.9737 184.902 53.1849 186.952 53.0232 189.107C52.8615 191.261 53.3348 193.416 54.3783 195.277C55.4408 197.124 57.0125 198.586 58.8835 199.467C60.7545 200.347 62.8357 200.605 64.8492 200.206C69.4973 199.324 72.8046 194.819 72.8684 189.923C72.9004 187.56 69.4207 187.56 69.3888 189.923Z" fill="#F5F5F5"/>
<path d="M52.2706 198.206C50.9511 199.71 49.5698 201.151 48.1269 202.529C47.8052 202.875 47.625 203.34 47.625 203.825C47.625 204.31 47.8052 204.775 48.1269 205.121C48.4585 205.456 48.9 205.643 49.3592 205.643C49.8183 205.643 50.2598 205.456 50.5914 205.121C52.028 203.775 53.4134 202.3 54.7287 200.798C55.0499 200.45 55.2326 199.985 55.2395 199.499C55.2399 199.136 55.1381 198.781 54.9469 198.479C54.7557 198.177 54.4837 197.942 54.1656 197.803C53.8475 197.665 53.4975 197.629 53.1601 197.701C52.8227 197.772 52.5131 197.948 52.2706 198.206Z" fill="#F5F5F5"/>
<path d="M61.0312 203.445V209.727C61.0581 210.195 61.2531 210.634 61.5764 210.955C61.8998 211.276 62.3271 211.454 62.7711 211.454C63.2151 211.454 63.6424 211.276 63.9657 210.955C64.2891 210.634 64.4841 210.195 64.5109 209.727V203.445C64.4841 202.977 64.2891 202.538 63.9657 202.217C63.6424 201.896 63.2151 201.718 62.7711 201.718C62.3271 201.718 61.8998 201.896 61.5764 202.217C61.2531 202.538 61.0581 202.977 61.0312 203.445Z" fill="#F5F5F5"/>
<path d="M70.6381 200.778L74.9733 205.546C75.3026 205.885 75.7449 206.076 76.2055 206.076C76.6662 206.076 77.1085 205.885 77.4378 205.546C77.7554 205.196 77.9328 204.73 77.9328 204.246C77.9328 203.762 77.7554 203.296 77.4378 202.946L73.0962 198.179C72.768 197.84 72.3267 197.649 71.8671 197.649C71.4075 197.649 70.9663 197.84 70.6381 198.179C70.319 198.528 70.1406 198.994 70.1406 199.478C70.1406 199.963 70.319 200.429 70.6381 200.778Z" fill="#F5F5F5"/>
<path d="M73.2892 181.196C74.6108 179.694 75.9899 178.247 77.4265 176.873C77.7501 176.526 77.9315 176.06 77.9315 175.573C77.9315 175.087 77.7501 174.62 77.4265 174.274C77.096 173.939 76.6556 173.752 76.1974 173.752C75.7393 173.752 75.2989 173.939 74.9684 174.274C73.534 175.652 72.1527 177.093 70.8247 178.597C70.5091 178.949 70.3292 179.412 70.3203 179.896C70.3215 180.382 70.5025 180.849 70.8247 181.196C71.1516 181.541 71.5948 181.734 72.057 181.734C72.5191 181.734 72.9623 181.541 73.2892 181.196Z" fill="#F5F5F5"/>
<path d="M64.5265 175.984V169.701C64.4997 169.234 64.3047 168.795 63.9814 168.474C63.658 168.153 63.2307 167.974 62.7867 167.974C62.3427 167.974 61.9154 168.153 61.5921 168.474C61.2687 168.795 61.0737 169.234 61.0469 169.701V175.984C61.0737 176.451 61.2687 176.891 61.5921 177.211C61.9154 177.532 62.3427 177.711 62.7867 177.711C63.2307 177.711 63.658 177.532 63.9814 177.211C64.3047 176.891 64.4997 176.451 64.5265 175.984Z" fill="#F5F5F5"/>
<path d="M54.9144 178.624L50.5728 173.856C50.2445 173.517 49.8033 173.327 49.3437 173.327C48.8841 173.327 48.4428 173.517 48.1146 173.856C47.7955 174.205 47.6172 174.671 47.6172 175.156C47.6172 175.641 47.7955 176.106 48.1146 176.455L52.4562 181.223C52.7845 181.562 53.2257 181.752 53.6853 181.752C54.1449 181.752 54.5861 181.562 54.9144 181.223C55.2335 180.874 55.4118 180.408 55.4118 179.923C55.4118 179.439 55.2335 178.973 54.9144 178.624Z" fill="#F5F5F5"/>
<path d="M75.9188 191.775H82.3035C82.7468 191.747 83.163 191.541 83.4673 191.2C83.7717 190.859 83.9411 190.408 83.9411 189.94C83.9411 189.472 83.7717 189.021 83.4673 188.68C83.163 188.339 82.7468 188.133 82.3035 188.105H75.9188C75.4756 188.133 75.0594 188.339 74.755 188.68C74.4507 189.021 74.2812 189.472 74.2812 189.94C74.2812 190.408 74.4507 190.859 74.755 191.2C75.0594 191.541 75.4756 191.747 75.9188 191.775Z" fill="#F5F5F5"/>
<path d="M43.0438 191.849H50.2457C50.689 191.821 51.1052 191.615 51.4095 191.274C51.7139 190.933 51.8833 190.482 51.8833 190.014C51.8833 189.546 51.7139 189.095 51.4095 188.754C51.1052 188.413 50.689 188.207 50.2457 188.179H43.0438C42.8064 188.164 42.5687 188.2 42.3451 188.285C42.1215 188.371 41.9168 188.503 41.7437 188.675C41.5706 188.847 41.4326 189.055 41.3383 189.285C41.244 189.515 41.1953 189.763 41.1953 190.014C41.1953 190.265 41.244 190.513 41.3383 190.743C41.4326 190.973 41.5706 191.181 41.7437 191.353C41.9168 191.525 42.1215 191.657 42.3451 191.743C42.5687 191.828 42.8064 191.864 43.0438 191.849Z" fill="#F5F5F5"/>
<path d="M49.121 126.362C41.8871 128.255 37.2007 136.463 38.9054 144.079C40.6101 151.695 47.6014 156.799 54.8672 156.254C58.7363 155.964 62.2862 153.978 64.1123 150.267C64.9295 148.604 62.548 147.129 61.7308 148.793C59.0556 154.227 52.0771 154.402 47.4865 151.648C42.2638 148.523 39.6524 141.439 42.4106 135.628C43.1308 134.051 44.1663 132.657 45.4459 131.542C46.7255 130.428 48.2189 129.618 49.8233 129.17C51.5472 128.719 50.8129 125.911 49.089 126.362H49.121Z" fill="#F5F5F5"/>
<path d="M48.1822 127.191C46.9952 129.201 46.2511 131.467 46.0047 133.821C45.7583 136.175 46.0158 138.558 46.7584 140.793C47.9542 144.188 50.2325 147.04 53.2029 148.858C56.1733 150.676 59.6507 151.348 63.0394 150.759C63.3908 150.654 63.6889 150.407 63.8693 150.072C64.0496 149.737 64.0978 149.34 64.0035 148.968C63.898 148.601 63.6629 148.291 63.3468 148.102C63.0308 147.913 62.6579 147.859 62.3051 147.951C60.6094 148.194 58.8842 148.057 57.2419 147.55C55.5995 147.043 54.0768 146.177 52.7728 145.008C51.4121 143.762 50.34 142.204 49.6384 140.453C48.9367 138.702 48.6243 136.805 48.7249 134.908C48.8178 132.69 49.463 130.537 50.5956 128.665C51.5533 127.083 49.1654 125.622 48.2141 127.197L48.1822 127.191Z" fill="#F5F5F5"/>
<path d="M295.328 177.466H232.969V301.786H295.328V177.466Z" fill="#E0E0E0"/>
<path d="M276.828 177.466H214.469V301.786H276.828V177.466Z" fill="#F5F5F5"/>
<path d="M272.242 203.054H218.719V183.351H272.242V203.054ZM219.376 202.381H271.559V184.065H219.376V202.381Z" fill="#E0E0E0"/>
<path d="M235.686 183.694H255.996V184.287C255.996 185.171 255.663 186.019 255.07 186.644C254.477 187.269 253.674 187.62 252.835 187.62H238.84C238.002 187.62 237.198 187.269 236.605 186.644C236.013 186.019 235.68 185.171 235.68 184.287V183.694H235.686Z" fill="#EBEBEB"/>
<path d="M272.242 228.091H218.719V208.381H272.242V228.091ZM219.376 227.417H271.559V209.074H219.376V227.417Z" fill="#E0E0E0"/>
<path d="M235.686 208.731H255.996V209.323C255.996 210.207 255.663 211.055 255.07 211.68C254.477 212.305 253.674 212.657 252.835 212.657H238.84C238.002 212.657 237.198 212.305 236.605 211.68C236.013 211.055 235.68 210.207 235.68 209.323V208.731H235.686Z" fill="#EBEBEB"/>
<path d="M272.242 253.12H218.719V233.417H272.242V253.12ZM219.376 252.447H271.559V234.131H219.376V252.447Z" fill="#E0E0E0"/>
<path d="M235.686 233.76H255.996V234.353C255.996 235.237 255.663 236.085 255.07 236.71C254.477 237.335 253.674 237.686 252.835 237.686H238.84C238.002 237.686 237.198 237.335 236.605 236.71C236.013 236.085 235.68 235.237 235.68 234.353V233.76H235.686Z" fill="#EBEBEB"/>
<path d="M272.242 278.157H218.719V258.447H272.242V278.157ZM219.376 277.483H271.559V259.14H219.376V277.483Z" fill="#E0E0E0"/>
<path d="M235.688 258.81H255.997V259.403C255.997 260.287 255.664 261.135 255.072 261.76C254.479 262.385 253.675 262.736 252.837 262.736H238.848C238.01 262.736 237.206 262.385 236.613 261.76C236.02 261.135 235.687 260.287 235.688 259.403V258.81Z" fill="#EBEBEB"/>
<path d="M279.432 172.812H211.703V179.008H279.432V172.812Z" fill="#EBEBEB"/>
<path d="M299.805 172.812H279.438V179.008H299.805V172.812Z" fill="#E0E0E0"/>
<path d="M256.826 262.779C256.826 262.863 204.966 262.925 141.008 262.925C77.0508 262.925 25.1797 262.863 25.1797 262.779C25.1797 262.694 77.0282 262.632 141.008 262.632C204.989 262.632 256.826 262.7 256.826 262.779Z" fill="#263238"/>
<path d="M180.341 245.656C180.341 245.656 177.854 228.578 178.085 218.64C178.317 208.703 178.085 197.524 178.085 197.524H179.213C179.213 197.524 178.435 217.264 179.281 229.142C180.127 241.02 182.344 245.656 182.344 245.656H180.358" fill="#263238"/>
<path d="M187.745 178.309C187.564 177.703 187.199 177.169 186.701 176.78C185.974 176.323 185.009 176.515 184.208 176.78C180.751 178.004 177.689 184.456 176.312 187.846L180.903 203.316C189.166 195.646 190.632 185.556 187.745 178.309Z" fill="#455A64"/>
<path d="M186.431 177.406C186.418 177.476 186.395 177.545 186.364 177.609C186.307 177.756 186.234 177.942 186.138 178.173C185.941 178.658 185.659 179.369 185.32 180.249C184.643 182.003 183.78 184.462 183.013 187.225C182.246 189.989 181.716 192.544 181.389 194.4C181.226 195.324 181.101 196.092 181.023 196.599C180.983 196.842 180.955 197.039 180.927 197.197C180.92 197.268 180.905 197.338 180.882 197.406C180.873 197.336 180.873 197.266 180.882 197.197C180.882 197.033 180.921 196.836 180.949 196.588C181 196.063 181.107 195.308 181.254 194.377C181.644 191.949 182.167 189.545 182.822 187.175C183.481 184.807 184.272 182.478 185.19 180.198C185.546 179.324 185.845 178.624 186.065 178.145L186.324 177.581C186.355 177.52 186.39 177.461 186.431 177.406Z" fill="#263238"/>
<path d="M178.837 207.044C176.747 205.856 174.998 204.149 173.758 202.088C172.518 200.028 171.83 197.683 171.759 195.279C171.595 191.85 172.65 188.478 173.846 185.257C173.917 184.965 174.088 184.707 174.331 184.53C174.526 184.458 174.735 184.437 174.941 184.469C175.146 184.5 175.34 184.583 175.504 184.71C178.629 186.492 180.524 189.888 181.533 193.339C182.257 195.632 182.499 198.049 182.244 200.44C181.856 202.948 180.669 205.264 178.86 207.044" fill="#455A64"/>
<path d="M178.836 207.044C178.828 206.975 178.828 206.905 178.836 206.836C178.836 206.683 178.836 206.486 178.836 206.243C178.836 205.73 178.836 204.98 178.773 204.061C178.649 201.665 178.381 199.279 177.973 196.915C177.493 194.146 176.912 191.664 176.489 189.871C176.275 188.991 176.106 188.274 175.976 187.744C175.925 187.507 175.88 187.316 175.846 187.18C175.827 187.114 175.816 187.046 175.812 186.977C175.841 187.041 175.864 187.107 175.88 187.175L176.049 187.739C176.19 188.235 176.388 188.957 176.613 189.848C177.07 191.636 177.674 194.117 178.153 196.892C178.567 199.264 178.815 201.661 178.898 204.066C178.898 204.991 178.898 205.758 178.898 206.255C178.898 206.497 178.898 206.695 178.898 206.853C178.883 206.918 178.862 206.982 178.836 207.044Z" fill="#263238"/>
<g opacity="0.3">
<path d="M178.837 207.044C176.747 205.856 174.998 204.149 173.758 202.088C172.518 200.028 171.83 197.683 171.759 195.279C171.595 191.85 172.65 188.478 173.846 185.257C173.917 184.965 174.088 184.707 174.331 184.53C174.526 184.458 174.735 184.437 174.941 184.469C175.146 184.5 175.34 184.583 175.504 184.71C178.629 186.492 180.524 189.888 181.533 193.339C182.257 195.632 182.499 198.049 182.244 200.44C181.856 202.948 180.669 205.264 178.86 207.044" fill="black"/>
</g>
<path d="M183.695 233.18C187.931 234.111 191.416 237.094 195.505 238.549C198.207 239.508 201.27 239.852 203.401 241.742C202.888 240.433 201.659 239.559 200.463 238.815C197.094 236.715 193.499 235.001 189.747 233.705C187.824 233.045 185.737 232.486 183.78 233.034" fill="#455A64"/>
<path d="M177.568 236.953C172.261 236.863 166.677 232.351 161.398 232.08C166.926 230.298 174.833 231.753 177.568 236.953Z" fill="#455A64"/>
<path d="M179.642 224.224C182.371 223.335 185.279 223.141 188.102 223.66C190.92 224.18 193.689 224.935 196.381 225.916C196.111 224.077 194.622 222.69 193.223 221.466C192.198 220.51 191.084 219.655 189.895 218.911C188.7 218.165 187.317 217.774 185.908 217.783C185.063 217.838 184.238 218.064 183.482 218.446C182.726 218.827 182.055 219.358 181.509 220.005C180.437 221.175 179.776 222.662 179.625 224.241" fill="#455A64"/>
<path d="M168.755 218.37C165.416 215.516 160.357 215.798 155.969 215.894C163.022 219.255 169.674 223.4 175.799 228.251C175.968 225.149 172.973 221.968 168.755 218.37Z" fill="#455A64"/>
<g opacity="0.3">
<path d="M168.755 218.37C165.416 215.516 160.357 215.798 155.969 215.894C163.022 219.255 169.674 223.4 175.799 228.251C175.968 225.149 172.973 221.968 168.755 218.37Z" fill="black"/>
</g>
<path d="M181.142 214.433C182.77 213.302 184.486 212.304 186.275 211.449C188.034 210.648 189.659 209.374 191.351 208.454C193.55 207.264 195.456 205.606 197.481 204.128C199.506 202.651 201.717 201.308 204.193 200.925C202.157 200.566 200.065 200.688 198.085 201.28C196.111 201.88 194.187 202.634 192.332 203.536C189.726 204.709 187.075 205.911 184.949 207.817C182.823 209.723 180.894 211.601 181.12 214.45" fill="#455A64"/>
<path d="M195.41 236.953C195.351 236.936 195.294 236.911 195.241 236.88L194.778 236.637C194.378 236.429 193.803 236.113 193.086 235.746C192.731 235.56 192.336 235.363 191.908 235.182C191.479 235.002 191.016 234.765 190.526 234.551C189.471 234.083 188.378 233.706 187.26 233.423C186.156 233.12 184.994 233.091 183.876 233.338C183.384 233.442 182.901 233.588 182.432 233.772C182.028 233.934 181.639 234.132 181.27 234.365C180.732 234.705 180.239 235.112 179.804 235.577C179.499 235.904 179.347 236.107 179.336 236.096C179.361 236.039 179.393 235.986 179.432 235.938C179.5 235.842 179.607 235.701 179.753 235.526C180.171 235.036 180.658 234.609 181.197 234.257C181.569 234.01 181.964 233.798 182.376 233.626C182.85 233.434 183.338 233.281 183.837 233.169C184.986 232.901 186.185 232.926 187.322 233.242C188.453 233.53 189.555 233.918 190.616 234.404C191.107 234.618 191.569 234.833 191.992 235.053C192.415 235.273 192.816 235.464 193.165 235.662C193.881 236.045 194.451 236.378 194.857 236.609L195.303 236.88C195.341 236.901 195.376 236.926 195.41 236.953Z" fill="#263238"/>
<path d="M173.61 234.325C173.61 234.325 173.734 234.325 173.942 234.421C174.24 234.526 174.53 234.65 174.811 234.793C175.739 235.265 176.592 235.871 177.343 236.592C178.095 237.312 178.733 238.141 179.238 239.051C179.394 239.326 179.531 239.611 179.65 239.903C179.703 240.006 179.74 240.116 179.763 240.23C179.729 240.23 179.532 239.796 179.125 239.102C178.06 237.34 176.551 235.89 174.749 234.895C174.055 234.534 173.598 234.353 173.61 234.325Z" fill="#263238"/>
<path d="M161.867 218.099C161.945 218.113 162.02 218.136 162.093 218.166L162.73 218.392L163.734 218.764C164.129 218.911 164.552 219.125 165.031 219.328C167.521 220.48 169.845 221.962 171.94 223.733C173.082 224.718 174.158 225.777 175.161 226.903C175.972 227.829 176.735 228.796 177.445 229.802C178.048 230.659 178.511 231.37 178.827 231.866L179.188 232.43C179.234 232.493 179.274 232.561 179.306 232.633C179.249 232.58 179.2 232.519 179.159 232.453C179.064 232.329 178.928 232.142 178.765 231.889C178.432 231.409 177.952 230.704 177.338 229.858C176.723 229.012 175.945 228.036 175.031 227.004C174.027 225.889 172.953 224.838 171.816 223.857C169.73 222.103 167.432 220.617 164.975 219.435C164.501 219.216 164.078 218.996 163.695 218.838L162.708 218.443L162.082 218.183C162.007 218.165 161.934 218.137 161.867 218.099Z" fill="#263238"/>
<path d="M187.604 221.24C187.461 221.243 187.319 221.226 187.181 221.19L186.685 221.088C186.493 221.049 186.273 221.049 186.03 221.026C184.773 220.915 183.509 221.163 182.387 221.742C181.77 222.063 181.209 222.48 180.723 222.977C180.321 223.375 179.963 223.816 179.657 224.292C179.383 224.739 179.14 225.204 178.93 225.685C178.944 225.543 178.981 225.404 179.037 225.273C179.17 224.907 179.34 224.555 179.544 224.224C179.84 223.727 180.194 223.267 180.599 222.853C181.293 222.127 182.145 221.572 183.089 221.231C184.034 220.891 185.045 220.774 186.042 220.891C186.284 220.924 186.51 220.936 186.702 220.981L187.187 221.105C187.331 221.133 187.471 221.179 187.604 221.24Z" fill="#263238"/>
<path d="M192.937 204.732C192.876 204.781 192.81 204.822 192.74 204.856L192.148 205.178C191.629 205.454 190.89 205.86 189.993 206.39C189.096 206.92 188.042 207.591 186.919 208.392C185.692 209.249 184.543 210.211 183.485 211.269C182.939 211.81 182.467 212.421 182.08 213.085C181.736 213.75 181.403 214.393 181.099 215.014C180.549 216.106 180.056 217.226 179.621 218.37C179.338 219.143 179.099 219.932 178.905 220.733C178.77 221.297 178.724 221.624 178.702 221.618C178.693 221.539 178.693 221.46 178.702 221.381C178.702 221.229 178.753 221.003 178.815 220.716C178.977 219.904 179.197 219.105 179.475 218.324C179.892 217.17 180.374 216.041 180.918 214.94C181.223 214.314 181.55 213.666 181.894 213C182.286 212.317 182.768 211.689 183.327 211.133C184.394 210.07 185.554 209.105 186.795 208.251C187.923 207.45 188.995 206.802 189.903 206.277C190.811 205.753 191.567 205.369 192.091 205.11L192.7 204.822C192.775 204.781 192.854 204.751 192.937 204.732Z" fill="#263238"/>
<path d="M178.058 220.767C178.003 220.621 177.967 220.47 177.95 220.315C177.888 219.988 177.809 219.582 177.719 219.091C177.462 217.746 177.127 216.416 176.715 215.11C176.287 213.809 175.78 212.536 175.198 211.297C174.995 210.84 174.82 210.462 174.685 210.169C174.608 210.037 174.551 209.895 174.516 209.746C174.606 209.867 174.683 209.998 174.747 210.135C174.888 210.395 175.085 210.778 175.311 211.263C175.928 212.496 176.454 213.772 176.884 215.081C177.302 216.394 177.62 217.737 177.838 219.097C177.922 219.616 177.984 220.039 178.012 220.338C178.041 220.479 178.056 220.623 178.058 220.767Z" fill="#263238"/>
<path d="M177.662 208.68C177.501 206.679 176.924 204.733 175.97 202.967C174.662 200.535 172.836 198.42 170.622 196.769C168.409 195.119 165.86 193.973 163.156 193.412L175 211.094L176.534 214.252C177.495 212.563 177.89 210.61 177.662 208.68Z" fill="#455A64"/>
<path d="M194.695 243.546H167.109V248.436H194.695V243.546Z" fill="#FFD43C"/>
<path d="M169.164 247.461L171.516 262.638H189.829L192.632 247.461H169.164Z" fill="#FFD43C"/>
<path d="M194.677 248.442C194.677 248.493 188.473 248.538 180.78 248.538C173.087 248.538 166.883 248.493 166.883 248.442C166.883 248.391 173.087 248.34 180.78 248.34C188.473 248.34 194.677 248.386 194.677 248.442Z" fill="#263238"/>
<path d="M176.016 89.2361H101.331C86.0684 89.2361 73.6953 101.609 73.6953 116.872C73.6953 132.135 86.0684 144.508 101.331 144.508H176.016C191.279 144.508 203.652 132.135 203.652 116.872C203.652 101.609 191.279 89.2361 176.016 89.2361Z" fill="#E0E0E0"/>
<path d="M176.019 144.508L176.848 144.452L177.875 144.395C178.347 144.382 178.818 144.341 179.285 144.271L181.067 143.989L181.569 143.91L182.082 143.781L183.176 143.493C183.56 143.386 183.96 143.307 184.361 143.171L185.59 142.72C186.008 142.557 186.459 142.416 186.899 142.218L188.235 141.57C189.209 141.101 190.151 140.569 191.055 139.979C191.545 139.671 192.016 139.334 192.465 138.97L193.187 138.406L193.554 138.129L193.898 137.819L195.302 136.539C195.776 136.099 196.188 135.58 196.65 135.095C196.87 134.841 197.107 134.593 197.327 134.334C197.547 134.074 197.739 133.77 197.948 133.504L198.579 132.658L198.901 132.224L199.177 131.762C200.868 129.176 202.09 126.312 202.787 123.302C203.583 119.924 203.744 116.428 203.26 112.992C202.7 109.052 201.291 105.282 199.13 101.941C196.969 98.5995 194.108 95.7676 190.745 93.6409L189.369 92.8062C188.907 92.5242 188.399 92.3212 187.92 92.0786C187.44 91.8361 186.95 91.5767 186.431 91.3962L184.88 90.8322C184.615 90.742 184.361 90.6292 184.096 90.5615L183.289 90.3528L181.665 89.9354C181.101 89.8339 180.537 89.7606 179.973 89.6704C179.414 89.5676 178.849 89.5016 178.281 89.473C176.025 89.3038 173.684 89.3714 171.332 89.3602H164.192H101.34C98.5807 89.4049 95.8399 89.8184 93.1902 90.5897C90.5986 91.4342 88.1325 92.6236 85.8582 94.126C83.6615 95.6629 81.6811 97.4877 79.97 99.5516C78.3236 101.615 76.9634 103.892 75.9262 106.32C74.9654 108.729 74.319 111.252 74.0029 113.826C73.9296 114.458 73.924 115.101 73.8845 115.738L73.8337 116.697C73.8337 117.013 73.8337 117.329 73.8676 117.65C73.9014 118.282 73.9296 118.914 73.9635 119.545C73.9973 120.177 74.1496 120.798 74.2398 121.418L74.3808 122.349L74.612 123.262C74.7643 123.866 74.9222 124.469 75.0802 125.073C75.2381 125.676 75.5088 126.24 75.7175 126.821C75.8303 127.109 75.9149 127.385 76.0502 127.684L76.4507 128.519C77.4875 130.726 78.8153 132.784 80.3987 134.638L81.6057 135.969L81.9102 136.302L82.2373 136.601L82.8972 137.204C83.7654 138.001 84.6848 138.739 85.6495 139.415C85.88 139.594 86.1232 139.756 86.3771 139.9L87.1272 140.357L87.8717 140.808L88.2439 141.034L88.6331 141.22C89.6502 141.752 90.7016 142.215 91.7802 142.607C92.316 142.794 92.8405 143.019 93.382 143.171L95.0176 143.594L95.8297 143.797L96.6588 143.927L98.3057 144.181C98.8697 144.254 99.4055 144.249 99.9469 144.288C100.488 144.328 101.041 144.356 101.588 144.356H104.837H128.733L163.341 144.401L172.748 144.429H175.196C175.76 144.429 176.031 144.429 176.031 144.429H175.196H172.748L163.341 144.457L128.733 144.508H104.837H101.577C101.013 144.508 100.477 144.463 99.9244 144.44C99.3717 144.418 98.7964 144.407 98.2662 144.333L96.6024 144.079L95.7677 143.955L94.9499 143.747L93.2974 143.324C92.7334 143.171 92.2201 142.94 91.6787 142.76C90.5889 142.366 89.5263 141.9 88.4977 141.367L88.1029 141.175L87.7307 140.949L86.9806 140.492L86.2248 140.036C85.9698 139.888 85.7249 139.725 85.4916 139.545C84.5139 138.855 83.5831 138.102 82.7055 137.289L82.0399 136.68L81.7072 136.381L81.4026 136.048C80.9965 135.597 80.5905 135.151 80.1787 134.706C78.5905 132.824 77.2626 130.737 76.2307 128.502L75.8247 127.661C75.6893 127.379 75.6047 127.097 75.4919 126.787C75.2719 126.223 75.0576 125.608 74.8433 125.022C74.629 124.435 74.5275 123.804 74.3639 123.189L74.1327 122.27L73.9917 121.328C73.8958 120.702 73.783 120.076 73.7097 119.438C73.6363 118.801 73.6476 118.164 73.6138 117.521C73.6138 117.199 73.5687 116.878 73.5799 116.556L73.6307 115.592C73.6702 114.949 73.6702 114.3 73.7491 113.657C73.902 112.418 74.1356 111.189 74.4485 109.98C74.7712 108.704 75.1801 107.45 75.6724 106.229C76.7182 103.775 78.0918 101.474 79.7557 99.3881C81.4904 97.2998 83.4995 95.4557 85.7285 93.906C88.0244 92.3892 90.5131 91.1866 93.1282 90.3302C95.8055 89.552 98.5748 89.1347 101.363 89.0894H164.215H171.344C173.696 89.0894 176.014 89.0387 178.315 89.2079C178.882 89.2422 179.447 89.31 180.007 89.4109C180.571 89.5012 181.135 89.5745 181.699 89.6816L183.34 90.1046L184.152 90.3133C184.423 90.3866 184.677 90.4994 184.942 90.5897L186.504 91.1537C187.029 91.3342 187.508 91.6162 188.01 91.8418C188.512 92.0674 189.003 92.2986 189.471 92.575L190.858 93.421C194.395 95.646 197.372 98.6544 199.561 102.214C201.59 105.476 202.916 109.126 203.452 112.93C203.932 116.39 203.764 119.909 202.956 123.307C202.248 126.343 201.011 129.229 199.301 131.835L199.019 132.297L198.698 132.732L198.06 133.583L197.434 134.418C197.209 134.678 196.972 134.926 196.746 135.18C196.284 135.67 195.866 136.189 195.387 136.629L193.971 137.909L193.622 138.219L193.255 138.496L192.533 139.06C192.077 139.423 191.601 139.76 191.106 140.069C190.2 140.655 189.258 141.185 188.286 141.654L186.938 142.303C186.498 142.495 186.047 142.636 185.624 142.794L184.389 143.245C183.983 143.374 183.582 143.459 183.205 143.561L182.077 143.843L181.563 143.972L181.056 144.046L179.274 144.311C178.803 144.377 178.328 144.415 177.852 144.423L176.826 144.463L176.019 144.508Z" fill="#263238"/>
<path d="M156.941 118.824C156.749 118.97 152.124 121.683 152.124 121.683L148.803 124.503L150.325 119.991C150.325 119.991 150.015 118.835 149.152 120.155C148.289 121.474 145.249 126.545 145.249 126.545L142.57 130.284L146.101 135.394C146.101 135.394 148.707 133.894 149.931 133.392C151.154 132.89 153.816 132.461 154.589 132.653C155.362 132.845 159.101 132.563 159.248 132.123C159.394 131.683 158.836 131.282 157.827 131.361C156.817 131.44 153.377 131.265 153.252 130.589C153.128 129.912 159.535 128.992 160.02 128.598C160.506 128.203 160.584 127.47 158.892 127.52C157.2 127.571 153.788 128.327 153.252 127.684C152.717 127.041 154.228 126.646 154.42 126.5C154.612 126.353 158.187 125.039 158.932 124.277C159.4 123.792 158.892 122.811 157.883 123.099C156.873 123.386 153.01 125.355 152.271 125.214C151.532 125.073 153.292 123.522 153.568 123.341C155.435 122.083 157.404 121.142 157.432 119.878C157.438 119.676 157.397 119.476 157.312 119.292C157.227 119.109 157.1 118.949 156.941 118.824Z" fill="#FFBF9D"/>
<path d="M146.099 135.411L136.647 139.725L135.852 131.959L142.569 130.301L146.099 135.411Z" fill="#FFBF9D"/>
<path d="M136.012 141.564C132.532 143.341 129.961 142.241 128.584 140.295C127.067 138.152 121.969 108.908 121.969 108.908L122.781 105.823C122.781 105.823 126.825 107.115 127.857 109.286C128.889 111.458 135.505 128.09 135.505 128.09L141.049 127.317C142.424 130.192 144.014 132.96 145.803 135.597L136.012 141.564Z" fill="#FFD43C"/>
<g opacity="0.3">
<path d="M171.788 143.487C186.25 143.487 197.975 131.763 197.975 117.301C197.975 102.838 186.25 91.1142 171.788 91.1142C157.326 91.1142 145.602 102.838 145.602 117.301C145.602 131.763 157.326 143.487 171.788 143.487Z" fill="black"/>
</g>
<path d="M175.218 143.059C189.68 143.059 201.404 131.334 201.404 116.872C201.404 102.41 189.68 90.6855 175.218 90.6855C160.755 90.6855 149.031 102.41 149.031 116.872C149.031 131.334 160.755 143.059 175.218 143.059Z" fill="#1CB459"/>
<path d="M201.408 116.872C201.408 116.872 201.408 116.731 201.369 116.449L201.29 115.208C201.29 114.932 201.256 114.644 201.239 114.289C201.222 113.934 201.132 113.595 201.075 113.195L200.872 111.92C200.816 111.463 200.647 111.001 200.534 110.493C199.923 108.044 198.945 105.702 197.635 103.545C195.919 100.675 193.668 98.1631 191.002 96.1451L189.874 95.3047C189.48 95.0453 189.062 94.8027 188.645 94.5489C188.227 94.2951 187.827 94.0188 187.376 93.8157L186.022 93.1671L185.334 92.84L184.612 92.5749L183.146 92.0391C182.644 91.8756 182.125 91.7684 181.606 91.6274C181.089 91.4772 180.564 91.3585 180.033 91.2721C178.944 91.0719 177.844 90.9438 176.739 90.8886C176.175 90.8886 175.611 90.8153 175.047 90.8265L173.327 90.9168C173.033 90.9168 172.763 90.9168 172.452 90.9732L171.584 91.1029C171.02 91.1988 170.416 91.2665 169.835 91.3905C168.656 91.6528 167.496 91.9919 166.361 92.4057L165.493 92.7272L165.064 92.8851L164.647 93.0882L162.955 93.9003C162.391 94.1993 161.877 94.5489 161.336 94.8704C161.065 95.0396 160.772 95.1863 160.529 95.378L159.762 95.942C158.723 96.7129 157.736 97.5513 156.807 98.4518L155.482 99.9069L155.149 100.274L154.85 100.674L154.258 101.469L153.66 102.27L153.135 103.127L152.611 103.99L152.346 104.425C152.267 104.571 152.199 104.729 152.126 104.876C151.833 105.491 151.534 106.1 151.24 106.714C150.947 107.329 150.767 108 150.535 108.643C148.742 113.975 148.742 119.747 150.535 125.078L151.246 127.007L152.126 128.84L152.351 129.297L152.611 129.731L153.135 130.594L153.66 131.451L154.258 132.252L154.856 133.053L155.154 133.448L155.487 133.815L156.813 135.27C157.74 136.174 158.727 137.014 159.768 137.785L160.535 138.349C160.789 138.547 161.071 138.688 161.342 138.862C161.906 139.184 162.413 139.534 162.96 139.827L164.652 140.639L165.07 140.842C165.211 140.904 165.357 140.949 165.498 141.006L166.367 141.321C167.501 141.737 168.662 142.078 169.841 142.342C170.405 142.461 171.014 142.528 171.589 142.624L172.458 142.76C172.751 142.799 173.022 142.794 173.332 142.816L175.058 142.906C175.622 142.906 176.186 142.861 176.75 142.839C177.856 142.789 178.956 142.661 180.044 142.455C180.571 142.379 181.093 142.27 181.606 142.128C182.119 141.987 182.644 141.88 183.14 141.716L184.607 141.18L185.328 140.921L186.017 140.594L187.37 139.945C187.821 139.737 188.222 139.449 188.645 139.206C189.068 138.964 189.474 138.716 189.869 138.456L190.997 137.616C193.662 135.596 195.914 133.082 197.629 130.211C198.94 128.054 199.917 125.711 200.528 123.262C200.641 122.76 200.81 122.292 200.867 121.835L201.07 120.561C201.126 120.166 201.199 119.805 201.233 119.466C201.267 119.128 201.273 118.824 201.284 118.553L201.346 117.312C201.346 117.036 201.386 116.889 201.386 116.889C201.386 116.889 201.386 117.036 201.386 117.312C201.386 117.588 201.386 118.017 201.34 118.558C201.34 118.835 201.312 119.122 201.301 119.478C201.29 119.833 201.205 120.183 201.149 120.578C201.092 120.972 201.03 121.401 200.963 121.858C200.876 122.343 200.765 122.823 200.63 123.296C200.041 125.757 199.079 128.114 197.776 130.284C196.063 133.184 193.805 135.726 191.126 137.768L189.998 138.62C189.604 138.885 189.181 139.122 188.769 139.381C188.357 139.641 187.94 139.945 187.489 140.126L186.118 140.786L185.424 141.118L184.697 141.383L183.219 141.947C182.717 142.117 182.187 142.224 181.668 142.365C181.146 142.522 180.615 142.644 180.078 142.731C178.979 142.938 177.867 143.07 176.75 143.126C176.186 143.126 175.622 143.2 175.058 143.194L173.315 143.109C173.028 143.109 172.751 143.109 172.441 143.053L171.561 142.918C170.997 142.822 170.377 142.754 169.79 142.636C168.598 142.371 167.424 142.029 166.277 141.609L165.402 141.293L164.968 141.13L164.545 140.927L162.853 140.109C162.289 139.804 161.765 139.455 161.212 139.127C160.933 138.97 160.661 138.799 160.4 138.614L159.621 138.05C158.571 137.27 157.572 136.422 156.632 135.512L155.295 134.04L154.957 133.668L154.653 133.268L154.049 132.461L153.406 131.626L152.876 130.758L152.346 129.884L152.081 129.449L151.855 128.987L150.958 127.131C150.721 126.483 150.485 125.834 150.242 125.18C148.43 119.79 148.43 113.955 150.242 108.564C150.485 107.91 150.721 107.262 150.958 106.613L151.855 104.757C151.928 104.599 152.002 104.447 152.081 104.295L152.346 103.861L152.876 102.986L153.406 102.118L154.015 101.311L154.619 100.505L154.918 100.104L155.256 99.7321L156.598 98.2601C157.535 97.3504 158.532 96.5044 159.582 95.7277L160.36 95.1637C160.62 94.9719 160.924 94.8253 161.172 94.6505C161.736 94.3233 162.261 93.9737 162.814 93.6747L164.506 92.8569L164.929 92.6539C165.07 92.5919 165.222 92.5467 165.363 92.4903L166.237 92.1689C167.384 91.7513 168.558 91.4103 169.751 91.148C170.315 91.0239 170.935 90.9563 171.522 90.8604L172.396 90.7307C172.689 90.6912 172.988 90.6912 173.276 90.6743L175.019 90.5897C175.583 90.5897 176.147 90.6348 176.711 90.6573C177.827 90.7135 178.939 90.8454 180.038 91.0521C180.575 91.1404 181.106 91.2609 181.629 91.4131C182.148 91.5597 182.672 91.6669 183.174 91.8361L184.657 92.4001L185.385 92.6652L186.079 92.9979L187.438 93.6578C187.895 93.8665 188.295 94.1598 188.718 94.4023C189.141 94.6448 189.553 94.9043 189.953 95.1637L191.081 96.0153C193.76 98.0577 196.018 100.599 197.731 103.5C199.038 105.674 200.005 108.037 200.596 110.504C200.731 110.978 200.842 111.458 200.929 111.943C200.996 112.4 201.058 112.828 201.115 113.223C201.171 113.618 201.239 113.984 201.267 114.323C201.295 114.661 201.295 114.966 201.307 115.242C201.307 115.806 201.34 116.201 201.352 116.489C201.363 116.776 201.408 116.872 201.408 116.872Z" fill="#263238"/>
<path d="M113.02 69.936C111.638 69.0562 111.328 67.0258 112.05 65.5706C112.464 64.8626 113.035 64.2593 113.72 63.8074C114.405 63.3556 115.184 63.0673 115.998 62.965C117.173 62.7865 118.374 62.8887 119.502 63.2632C120.63 63.6376 121.654 64.2737 122.489 65.1194C123.381 66.0388 124.108 67.2344 125.309 67.6574C126.375 68.024 127.565 67.6913 128.693 67.8379C129.438 67.9726 130.143 68.2718 130.756 68.7139C131.37 69.1559 131.877 69.7296 132.241 70.3928C132.955 71.7281 133.383 73.1975 133.499 74.7074C133.662 76.0836 133.769 77.5895 134.723 78.5934C135.676 79.5973 137.125 79.7834 138.281 80.4772C139.343 81.1773 140.089 82.2646 140.359 83.507C140.63 84.7493 140.405 86.0483 139.731 87.1267C139.268 87.7979 138.603 88.407 138.558 89.2192C138.513 90.0313 138.986 90.6122 139.212 91.3172C139.328 91.7729 139.345 92.248 139.261 92.7107C139.178 93.1734 138.997 93.6129 138.73 93.9997C138.463 94.3865 138.116 94.7117 137.713 94.9533C137.309 95.1949 136.859 95.3474 136.392 95.4006C135.433 95.4514 134.407 95.0791 133.544 95.5078C132.681 95.9364 132.371 96.9629 131.852 97.7638C131.29 98.5204 130.486 99.0619 129.574 99.2979C128.662 99.5339 127.696 99.4503 126.838 99.061C126.099 98.7 125.433 98.136 124.644 98.136C123.854 98.136 123.245 98.8579 122.472 99.0102C121.463 99.202 120.504 98.4462 119.906 97.6284C119.308 96.8106 118.891 95.8123 118.124 95.1299C117.115 94.2331 115.704 94.0019 114.435 93.5732C113.026 93.0896 111.737 92.3085 110.655 91.2828C109.574 90.2571 108.726 89.0109 108.168 87.6287C107.611 86.2464 107.357 84.7605 107.425 83.2716C107.492 81.7827 107.879 80.3258 108.559 78.9995" fill="#263238"/>
<path d="M127.637 87.984C127.95 87.6534 128.336 87.402 128.765 87.2508H128.681C128.761 87.2303 128.842 87.2153 128.923 87.2057C129.069 87.1628 129.222 87.1507 129.372 87.1702C129.523 87.1896 129.668 87.2401 129.798 87.3185C130.284 87.4936 130.687 87.8461 130.926 88.3055C131.112 88.7129 131.184 89.1636 131.134 89.6089C131.083 90.0542 130.912 90.4773 130.638 90.8322C130.439 91.1554 130.147 91.4107 129.8 91.5645C129.453 91.7183 129.067 91.7634 128.694 91.6938C128.321 91.6241 127.978 91.4431 127.71 91.1745C127.441 90.906 127.261 90.5625 127.192 90.1892C127.075 89.8138 127.054 89.415 127.132 89.0296C127.21 88.6442 127.384 88.2846 127.637 87.984Z" fill="#455A64"/>
<path d="M109.412 102.693L107.94 75.7283C107.914 75.1559 108.103 74.5944 108.471 74.1549C108.838 73.7153 109.357 73.4294 109.925 73.3538L121.967 69.936C125.841 69.4171 128.565 74.1321 128.921 78.0237C129.315 82.3553 129.631 87.6512 129.208 90.8999C128.362 97.4366 123.004 98.4236 123.004 98.4236C123.004 98.4236 122.965 105.079 123.004 107.448L124.493 114.78L109.412 102.693Z" fill="#FFBF9D"/>
<path d="M127.245 83.7089C127.253 83.9262 127.176 84.1382 127.031 84.3001C126.886 84.4621 126.683 84.5615 126.466 84.5774C126.361 84.5883 126.254 84.578 126.152 84.5472C126.05 84.5164 125.956 84.4657 125.874 84.398C125.792 84.3302 125.725 84.2469 125.675 84.1528C125.626 84.0587 125.596 83.9557 125.586 83.8499C125.579 83.6325 125.655 83.4206 125.8 83.2586C125.946 83.0966 126.148 82.9972 126.365 82.9813C126.471 82.9704 126.577 82.9807 126.679 83.0115C126.781 83.0423 126.875 83.0931 126.957 83.1608C127.039 83.2285 127.107 83.3118 127.156 83.4059C127.205 83.5 127.235 83.603 127.245 83.7089Z" fill="#263238"/>
<path d="M127.851 80.8156C127.749 80.9284 127.106 80.4772 126.204 80.5054C125.302 80.5336 124.664 81.0017 124.563 80.8945C124.461 80.7874 124.614 80.6464 124.896 80.432C125.274 80.1503 125.732 79.9944 126.204 79.9865C126.672 79.9717 127.132 80.106 127.518 80.37C127.8 80.573 127.902 80.7648 127.851 80.8156Z" fill="#263238"/>
<path d="M119.5 83.7089C119.514 83.9309 119.439 84.1494 119.293 84.3165C119.146 84.4835 118.938 84.5855 118.716 84.6C118.611 84.6109 118.504 84.6006 118.402 84.5698C118.3 84.539 118.206 84.4882 118.124 84.4205C118.042 84.3528 117.975 84.2694 117.925 84.1754C117.876 84.0813 117.846 83.9783 117.836 83.8724C117.829 83.6551 117.905 83.4431 118.05 83.2811C118.196 83.1192 118.398 83.0198 118.615 83.0039C118.826 82.9801 119.037 83.041 119.203 83.1731C119.369 83.3053 119.476 83.498 119.5 83.7089Z" fill="#263238"/>
<path d="M119.031 81.216C118.929 81.3288 118.286 80.8832 117.389 80.9058C116.493 80.9284 115.844 81.4021 115.742 81.295C115.641 81.1878 115.793 81.0524 116.075 80.8325C116.458 80.5545 116.916 80.3992 117.389 80.3869C117.855 80.3729 118.313 80.5072 118.698 80.7704C119.002 80.9904 119.081 81.216 119.031 81.216Z" fill="#263238"/>
<path d="M122.476 87.7979C122.946 87.6363 123.435 87.534 123.931 87.4933C124.156 87.4933 124.371 87.4144 124.405 87.2564C124.421 87.0186 124.362 86.7817 124.235 86.5796L123.513 84.8538C122.498 82.3948 121.759 80.37 121.861 80.3418C121.962 80.3136 122.859 82.265 123.874 84.7241C124.117 85.3276 124.348 85.9085 124.574 86.4612C124.723 86.7348 124.773 87.0517 124.715 87.358C124.684 87.4397 124.635 87.5134 124.572 87.5731C124.508 87.6328 124.432 87.6769 124.348 87.702C124.222 87.7409 124.091 87.7636 123.959 87.7697C123.468 87.8427 122.969 87.8522 122.476 87.7979Z" fill="#263238"/>
<path d="M123.006 98.4236C120.07 98.5291 117.165 97.8017 114.625 96.3256C114.625 96.3256 116.503 101.165 123 100.375L123.006 98.4236Z" fill="#FF9A6C"/>
<path d="M122.383 89.9355C122.17 89.646 121.891 89.4122 121.569 89.254C121.247 89.0959 120.891 89.0181 120.533 89.0274C120.305 89.0371 120.083 89.1009 119.884 89.2137C119.686 89.3266 119.518 89.485 119.393 89.676C119.269 89.9009 119.209 90.1556 119.22 90.4123C119.231 90.669 119.312 90.9177 119.455 91.1311C119.625 91.3489 119.856 91.5109 120.118 91.5963C120.38 91.6818 120.662 91.6867 120.927 91.6105C121.422 91.4348 121.867 91.1427 122.225 90.7589C122.341 90.6657 122.435 90.5483 122.501 90.4148C122.534 90.341 122.546 90.2598 122.537 90.1796C122.528 90.0993 122.498 90.0229 122.45 89.958" fill="#FF9A6C"/>
<path d="M119.851 88.4972C119.998 88.4972 120.026 89.456 120.883 90.1272C121.74 90.7983 122.767 90.6573 122.778 90.7927C122.789 90.9281 122.552 90.9901 122.118 91.0127C121.547 91.0373 120.986 90.8595 120.533 90.5107C120.098 90.1756 119.811 89.6839 119.732 89.1402C119.682 88.7341 119.783 88.4916 119.851 88.4972Z" fill="#263238"/>
<path d="M119.321 77.5274C119.236 77.7756 118.339 77.6854 117.29 77.8433C116.241 78.0012 115.395 78.3114 115.249 78.0971C115.187 77.9899 115.328 77.7587 115.666 77.5331C116.114 77.2277 116.628 77.0342 117.166 76.9691C117.702 76.8863 118.25 76.9347 118.762 77.1101C119.157 77.2229 119.355 77.4146 119.321 77.5274Z" fill="#263238"/>
<path d="M127.462 77.7361C127.31 77.9448 126.69 77.7361 125.945 77.7361C125.201 77.7361 124.575 77.911 124.422 77.7023C124.355 77.6008 124.422 77.3921 124.721 77.189C125.082 76.9436 125.509 76.8156 125.945 76.8224C126.383 76.8162 126.811 76.9485 127.169 77.2003C127.423 77.4259 127.513 77.6346 127.462 77.7361Z" fill="#263238"/>
<path d="M133.305 76.6589C133.043 75.6675 132.445 74.798 131.613 74.1998C131.144 73.8896 130.603 73.7035 130.163 73.3538C129.227 72.5981 129.007 71.2783 128.426 70.218C128.044 69.5369 127.506 68.9562 126.856 68.5238C126.206 68.0914 125.462 67.8196 124.687 67.7308C123.395 67.601 122.07 67.9902 120.812 67.6744C119.881 67.4375 119.069 66.834 118.133 66.6535C116.3 66.3095 114.597 67.6236 113.266 68.9095C113.266 70.218 114.309 71.0978 115.313 71.9382C115.82 72.3563 116.412 72.6599 117.048 72.8283C117.683 72.9967 118.348 73.0259 118.996 72.9139C119.994 72.7278 121.094 72.2202 121.963 72.756C122.831 73.2918 122.91 74.6905 123.717 75.3899C124.873 76.3938 126.711 75.4519 128.178 75.8862C129.306 76.2246 130.016 77.3075 130.767 78.2155C131.517 79.1236 132.645 79.9921 133.778 79.6594C133.736 78.6444 133.577 77.6376 133.305 76.6589Z" fill="#263238"/>
<path d="M119.566 71.1148C118.742 70.8779 117.061 70.3477 116.622 69.6371C116.18 68.8647 115.541 68.2239 114.77 67.7808C113.999 67.3377 113.123 67.1082 112.234 67.116C111.341 67.1865 110.495 67.5437 109.823 68.1343C109.15 68.7248 108.686 69.5171 108.5 70.3928C107.429 70.431 106.388 70.757 105.487 71.3366C104.586 71.9162 103.858 72.728 103.379 73.6866C103.254 73.9347 103.147 74.191 103.057 74.4536C102.732 75.0266 102.536 75.6638 102.484 76.3206C102.431 76.9773 102.523 77.6376 102.753 78.255C103.035 78.9995 103.52 79.8229 103.142 80.511C102.764 81.1991 101.771 81.2442 101.004 81.5036C100.339 81.7522 99.7836 82.2287 99.4366 82.8483C99.0896 83.4679 98.9737 84.1906 99.1094 84.8876C99.292 85.3599 99.3727 85.8654 99.3462 86.371C99.1588 86.863 98.855 87.3023 98.4608 87.6513C98.0397 88.1541 97.7579 88.7586 97.6435 89.4045C97.529 90.0503 97.5859 90.7148 97.8085 91.3318C98.0311 91.9487 98.4116 92.4965 98.912 92.9205C99.4124 93.3445 100.015 93.6298 100.66 93.7481C101.244 93.7743 101.818 93.9081 102.352 94.1429C102.916 94.4982 103.187 95.1976 103.599 95.739C104.007 96.2658 104.568 96.654 105.205 96.8508C105.841 97.0476 106.523 97.0434 107.158 96.8388C107.406 96.7524 107.641 96.6329 107.857 96.4835C108.096 96.796 108.41 97.0431 108.77 97.2018C109.13 97.3606 109.524 97.4258 109.916 97.3915L109.673 83.675C109.748 83.8442 109.863 83.9923 110.009 84.1064C110.154 84.2205 110.326 84.297 110.508 84.3293C112.707 84.8256 113.029 80.291 112.538 79.0615C113.369 78.3834 114.11 77.6026 114.743 76.7378C115.45 75.3634 115.799 73.8329 115.759 72.2879C116.531 72.333 119.91 71.2163 119.566 71.1148Z" fill="#263238"/>
<path d="M110.263 84.7917C110.189 83.3987 108.486 83.0997 107.279 83.7991C106.614 84.1826 106.106 84.9271 106.151 86.433C106.315 90.381 110.24 89.4053 110.246 89.2868C110.252 89.1684 110.342 86.4273 110.263 84.7917Z" fill="#FFBF9D"/>
<path d="M108.993 87.843C108.993 87.843 108.925 87.8938 108.813 87.9502C108.734 87.9896 108.647 88.0129 108.559 88.0187C108.471 88.0245 108.383 88.0127 108.299 87.984C108.037 87.8338 107.819 87.6159 107.669 87.353C107.52 87.0901 107.443 86.7919 107.448 86.4894C107.427 86.1514 107.478 85.8129 107.6 85.4968C107.629 85.3689 107.69 85.2504 107.777 85.152C107.863 85.0535 107.973 84.9781 108.096 84.9328C108.174 84.9088 108.257 84.9125 108.333 84.9434C108.408 84.9743 108.47 85.0303 108.508 85.102C108.564 85.2148 108.547 85.2937 108.564 85.2994C108.581 85.305 108.649 85.226 108.609 85.0681C108.586 84.9704 108.528 84.8844 108.446 84.8256C108.334 84.7488 108.196 84.7185 108.062 84.741C107.901 84.7796 107.753 84.859 107.631 84.9716C107.51 85.0842 107.419 85.2262 107.369 85.384C107.208 85.7372 107.14 86.1253 107.171 86.512C107.233 87.3016 107.668 88.0291 108.249 88.1701C108.355 88.1975 108.466 88.2001 108.574 88.1776C108.681 88.1551 108.782 88.1082 108.869 88.0404C108.987 87.9389 109.004 87.8486 108.993 87.843Z" fill="#FF9A6C"/>
<path d="M114.121 70.0488C113.812 70.2085 113.543 70.4338 113.331 70.7087C112.883 71.5463 112.778 72.5249 113.038 73.4384V73.54H112.942C112.372 73.694 111.846 73.9778 111.405 74.3692C110.964 74.7606 110.619 75.249 110.398 75.796C110.28 76.1047 110.211 76.4302 110.195 76.7604C110.205 77.1113 110.246 77.4605 110.319 77.8038C110.395 78.176 110.446 78.5528 110.471 78.9318C110.497 79.3433 110.386 79.7517 110.156 80.0936C109.643 80.7468 108.968 81.2543 108.199 81.5657C107.525 81.8622 106.906 82.2681 106.366 82.767C105.473 83.6419 104.947 84.8235 104.893 86.072C104.863 86.9163 105.041 87.7551 105.412 88.5142C105.672 89.05 105.892 89.3094 105.869 89.3263C105.807 89.2735 105.752 89.2129 105.706 89.1458C105.56 88.9696 105.429 88.7809 105.316 88.5818C104.895 87.8176 104.681 86.9561 104.696 86.0833C104.725 84.7748 105.259 83.5281 106.185 82.6034C106.738 82.0774 107.377 81.6501 108.074 81.3401C108.798 81.0442 109.435 80.5686 109.924 79.9583C110.359 79.3604 110.161 78.5821 110.048 77.8715C109.975 77.5112 109.935 77.1449 109.93 76.7773C109.945 76.4156 110.022 76.059 110.156 75.7226C110.398 75.1462 110.772 74.6342 111.247 74.227C111.721 73.8198 112.284 73.5286 112.891 73.3764L112.818 73.5005C112.692 73.0279 112.662 72.5349 112.73 72.0505C112.797 71.5662 112.962 71.1003 113.212 70.6805C113.376 70.4661 113.589 70.294 113.833 70.1785C113.921 70.1189 114.018 70.075 114.121 70.0488Z" fill="#455A64"/>
<path d="M107.514 89.3207C107.825 88.9868 108.212 88.7333 108.642 88.5818H108.558C108.638 88.5632 108.719 88.55 108.8 88.5424C108.946 88.5007 109.098 88.4887 109.248 88.5071C109.399 88.5255 109.543 88.5739 109.675 88.6495C110.159 88.8284 110.561 89.1799 110.803 89.6365C110.99 90.0448 111.062 90.4964 111.011 90.9428C110.961 91.3891 110.789 91.8131 110.515 92.1689C110.316 92.4921 110.024 92.7474 109.677 92.9012C109.33 93.055 108.944 93.1 108.571 93.0304C108.198 92.9608 107.855 92.7798 107.587 92.5112C107.318 92.2427 107.138 91.8991 107.069 91.5259C106.95 91.1507 106.929 90.7515 107.007 90.3658C107.085 89.9801 107.26 89.6205 107.514 89.3207Z" fill="#455A64"/>
<path d="M115.852 250.072L128.406 250.98C127.729 252.777 127.204 254.628 126.838 256.513C123.319 257.714 118.869 257.398 115.102 255.994L115.852 250.072Z" fill="#FFBF9D"/>
<path d="M127.085 254.68V255.43C127.085 255.43 139.82 260.365 139.984 262.762L114.812 262.937L115.095 254.561C118.862 256.27 122.782 256.44 127.085 254.68Z" fill="#FF8227"/>
<path d="M117.677 257.224C117.435 257.298 117.229 257.46 117.099 257.678C116.968 257.895 116.923 258.153 116.972 258.402C117.039 258.646 117.196 258.855 117.413 258.987C117.629 259.118 117.887 259.161 118.134 259.107C118.39 259.029 118.608 258.857 118.745 258.627C118.881 258.396 118.927 258.123 118.873 257.861C118.779 257.612 118.591 257.409 118.35 257.296C118.109 257.184 117.833 257.17 117.581 257.257" fill="white"/>
<path d="M114.82 262.942L114.888 260.929L138.988 261.493C138.988 261.493 140.116 261.972 139.992 262.762L114.82 262.942Z" fill="#263238"/>
<path d="M127.18 255.492C127.18 255.616 126.565 255.672 125.962 256.056C125.358 256.44 125.043 256.975 124.93 256.925C124.817 256.874 124.992 256.169 125.731 255.695C126.469 255.221 127.208 255.385 127.18 255.492Z" fill="#263238"/>
<path d="M129.83 256.569C129.859 256.688 129.329 256.902 128.911 257.426C128.494 257.951 128.381 258.498 128.263 258.492C128.144 258.487 128.054 257.793 128.584 257.156C129.114 256.518 129.825 256.451 129.83 256.569Z" fill="#263238"/>
<path d="M131.352 259.722C131.239 259.722 131.064 259.158 131.352 258.459C131.64 257.759 132.238 257.511 132.288 257.613C132.339 257.714 131.989 258.081 131.724 258.639C131.459 259.197 131.471 259.705 131.352 259.722Z" fill="#263238"/>
<path d="M72.8131 242.227C72.0291 245.504 68.9609 255.396 68.9609 255.396L80.1394 256.524C80.4101 254.877 84.7924 248.064 85.4974 245.96L72.8131 242.227Z" fill="#FFBF9D"/>
<path d="M80.9149 254.928L80.7852 255.661C80.7852 255.661 92.3415 262.948 92.0652 265.334L67.3281 260.698L69.6574 253.134C71.5186 254.979 76.3578 255.859 80.9149 254.928Z" fill="#FF8227"/>
<path d="M71.1928 255.65C70.9409 255.678 70.7081 255.797 70.5386 255.985C70.3691 256.173 70.2747 256.417 70.2734 256.671C70.2921 256.924 70.4072 257.161 70.595 257.332C70.7828 257.503 71.0291 257.595 71.283 257.59C71.5492 257.559 71.7945 257.431 71.9716 257.23C72.1487 257.029 72.245 256.769 72.2418 256.502C72.1974 256.244 72.0554 256.013 71.8452 255.858C71.6351 255.702 71.3731 255.634 71.1138 255.667" fill="white"/>
<path d="M67.3047 260.72L67.7559 258.752L91.3029 263.918C91.3029 263.918 92.3124 264.606 92.0417 265.356L67.3047 260.72Z" fill="#263238"/>
<path d="M80.8568 255.774C80.8286 255.892 80.2139 255.836 79.5484 256.112C78.8828 256.389 78.4711 256.834 78.364 256.767C78.2568 256.699 78.5726 256.033 79.3904 255.712C80.2082 255.39 80.902 255.667 80.8568 255.774Z" fill="#263238"/>
<path d="M83.2462 257.331C83.2462 257.455 82.6822 257.562 82.1859 257.996C81.6896 258.43 81.4584 258.949 81.3399 258.921C81.2215 258.893 81.2722 258.194 81.9039 257.669C82.5356 257.144 83.2688 257.218 83.2462 257.331Z" fill="#263238"/>
<path d="M84.143 260.715C84.0302 260.715 83.9738 260.083 84.4081 259.48C84.8424 258.876 85.4571 258.718 85.491 258.831C85.5248 258.944 85.1074 259.226 84.7578 259.728C84.4081 260.23 84.2671 260.726 84.143 260.715Z" fill="#263238"/>
<path d="M109.85 111.069C110.115 111.554 119.579 132.867 119.579 132.867L137.458 126.539L142.128 134.796C142.128 134.796 121.891 148.101 116.539 147.768C111.187 147.435 110.267 146.409 108.293 142.213C105.868 137.063 98.5136 118.135 98.5136 118.135C98.5136 118.135 96.1956 107.679 103.24 106.968C107.662 106.523 109.85 111.069 109.85 111.069Z" fill="#FF725E"/>
<path d="M124.868 155.128C124.868 155.128 143.3 203.66 142.352 209.876C141.405 216.091 130.176 253.157 130.176 253.157L114 252.063L122.652 208.985L108.078 179.093L110.594 148.783L125.822 150.351L124.868 155.128Z" fill="#263238"/>
<path d="M98.0625 146.358L96.7822 149.742C94.3458 152.974 90.347 159.076 89.1118 162.793C87.3691 168.044 88.3448 184.608 88.3448 184.608L86.6528 208.996C86.6528 208.996 81.8926 218.482 79.3208 223.812C77.1212 228.42 70.0938 249.023 70.0938 249.023L84.0697 253.168C84.0697 253.168 103.556 219.537 105.299 215.183C107.041 210.829 110.82 175.838 110.82 175.838L117.137 149.46L98.0625 146.358Z" fill="#263238"/>
<path d="M93.5547 155.94C93.5547 155.878 94.412 156.115 95.8107 156.217C96.6224 156.272 97.4373 156.261 98.2472 156.183C100.23 155.984 102.15 155.377 103.887 154.401C104.597 154.005 105.27 153.548 105.901 153.036C106.984 152.162 107.536 151.485 107.593 151.524C107.496 151.706 107.375 151.873 107.232 152.021C107.084 152.21 106.924 152.389 106.752 152.556C106.534 152.788 106.303 153.007 106.059 153.211C105.436 153.758 104.762 154.243 104.045 154.66C103.162 155.167 102.228 155.581 101.259 155.895C100.284 156.182 99.2823 156.371 98.2697 156.459C97.4433 156.526 96.6124 156.515 95.7881 156.425C95.4718 156.393 95.1574 156.344 94.8462 156.279C94.6092 156.243 94.3754 156.188 94.1469 156.115C93.9424 156.084 93.7431 156.026 93.5547 155.94Z" fill="#455A64"/>
<path d="M122.906 210.197C123.868 209.354 124.974 208.693 126.172 208.246C127.331 207.701 128.578 207.369 129.855 207.264C129.855 207.36 128.213 207.732 126.302 208.545C124.39 209.357 122.951 210.282 122.906 210.197Z" fill="#455A64"/>
<path d="M86.9453 208.883C87.6877 208.943 88.406 209.175 89.0434 209.56C89.7276 209.852 90.3326 210.302 90.8087 210.874C90.1523 210.569 89.5139 210.226 88.8967 209.848C88.2282 209.564 87.5767 209.242 86.9453 208.883Z" fill="#455A64"/>
<path d="M122.136 151.265C122.115 151.405 122.081 151.543 122.035 151.677L121.679 152.805L120.337 157.012L118.307 163.216C118.104 163.78 117.929 164.4 117.692 165.015C117.446 165.636 117.136 166.229 116.767 166.786C116.388 167.364 115.944 167.896 115.441 168.371L113.958 169.866L111.386 172.437L111.431 172.353C110.839 177.124 110.303 181.326 109.942 184.366C109.751 185.849 109.593 187.045 109.48 187.908C109.418 188.303 109.373 188.619 109.339 188.861C109.33 188.972 109.307 189.082 109.271 189.188C109.264 189.077 109.264 188.966 109.271 188.855C109.271 188.607 109.322 188.291 109.356 187.897C109.452 187.034 109.582 185.832 109.739 184.343C110.089 181.298 110.574 177.096 111.127 172.319V172.268L111.161 172.234L113.721 169.662L115.21 168.168C115.7 167.706 116.135 167.189 116.507 166.628C116.864 166.086 117.167 165.51 117.41 164.908C117.641 164.344 117.822 163.707 118.025 163.131L120.117 156.927L121.55 152.754L121.956 151.626C122.007 151.501 122.067 151.38 122.136 151.265Z" fill="#455A64"/>
<g opacity="0.3">
<path d="M156.957 129.861C156.867 129.757 156.756 129.673 156.632 129.614C156.508 129.555 156.373 129.522 156.235 129.517L151.932 128.784C152.091 128.448 152.327 128.155 152.621 127.928C152.915 127.702 153.259 127.548 153.624 127.481C154.363 127.354 155.089 127.166 155.796 126.917C156.146 126.784 156.444 126.543 156.647 126.228C156.85 125.913 156.947 125.542 156.924 125.169C154.87 125.506 152.765 125.333 150.793 124.667L155.418 122.924C155.76 122.814 156.08 122.646 156.365 122.427C156.507 122.315 156.616 122.167 156.682 121.999C156.747 121.83 156.766 121.647 156.737 121.469C156.58 120.809 155.688 120.679 155.045 120.82C154.199 120.995 153.41 121.384 152.581 121.593C151.757 121.87 150.858 121.825 150.065 121.469C151.04 121.091 151.961 120.589 152.806 119.974C153.655 119.345 154.223 118.407 154.386 117.363C151.492 118.338 149.118 120.42 146.963 122.585C144.809 124.751 142.756 127.064 140.195 128.705L141.814 134.243C144.634 132.861 147.567 131.451 150.708 131.282C152.507 131.186 154.346 131.502 156.078 131.023C156.358 130.961 156.618 130.829 156.833 130.639C156.934 130.54 157.001 130.411 157.023 130.271C157.045 130.131 157.022 129.987 156.957 129.861Z" fill="black"/>
</g>
<path d="M154.621 115.423C154.435 115.569 149.804 118.282 149.804 118.282L146.482 121.102L148.005 116.59C148.005 116.59 147.695 115.462 146.832 116.754C145.969 118.045 142.929 123.144 142.929 123.144L140.25 126.9L143.781 132.01C143.781 132.01 146.392 130.51 147.61 130.008C148.828 129.506 151.496 129.077 152.269 129.269C153.042 129.461 156.781 129.173 156.933 128.733C157.085 128.293 156.516 127.893 155.506 127.977C154.497 128.062 151.056 127.876 150.932 127.205C150.808 126.533 157.215 125.608 157.7 125.214C158.185 124.819 158.292 124.086 156.572 124.136C154.852 124.187 151.496 124.943 150.932 124.3C150.368 123.657 151.914 123.262 152.1 123.116C152.286 122.969 155.867 121.655 156.612 120.893C157.08 120.408 156.572 119.421 155.563 119.715C154.553 120.008 150.69 121.937 149.951 121.83C149.212 121.722 150.972 120.138 151.248 119.957C153.115 118.694 155.083 117.752 155.111 116.494C155.121 116.289 155.082 116.085 154.997 115.899C154.911 115.712 154.782 115.549 154.621 115.423Z" fill="#FFBF9D"/>
<path d="M143.787 132.01L134.334 136.324L133.539 128.558L140.256 126.9L143.787 132.01Z" fill="#FFBF9D"/>
<path d="M109.066 99.1399L120.16 104.583L123.589 109.292C123.589 109.292 128.417 131.485 127.813 135.01C127.21 138.535 123.38 150.588 122.952 150.498L98.0398 146.358V146.302C97.7094 144.693 97.9424 143.021 98.6997 141.564L100.956 137.199L96.7482 117.053C96.7482 117.053 95.9361 111.181 98.6207 108.401C101.407 105.502 107.645 101.791 107.645 101.791L109.066 99.1399Z" fill="#FFD43C"/>
<path d="M122.517 108.818C122.256 108.56 122.016 108.281 121.801 107.983C121.327 107.391 120.712 106.607 119.979 105.682L120.187 105.643C119.984 106.416 119.759 107.262 119.516 108.175L119.477 108.322L119.33 108.265C118.371 107.893 117.334 107.459 116.273 106.963C114.139 105.964 112.077 104.816 110.103 103.528C109.342 103.032 108.75 102.609 108.343 102.31C108.124 102.165 107.92 101.999 107.734 101.813C107.971 101.924 108.196 102.058 108.406 102.214C108.834 102.484 109.443 102.885 110.21 103.342C112.214 104.57 114.286 105.684 116.414 106.681C117.469 107.177 118.501 107.617 119.449 108L119.263 108.091C119.522 107.183 119.759 106.337 119.979 105.57L120.046 105.333L120.187 105.53L121.925 107.893C122.151 108.182 122.35 108.491 122.517 108.818Z" fill="#263238"/>
<path d="M123.143 109.377L123.177 112.603L120.695 150.351H125.771C125.771 150.351 132.697 134.074 132.5 128.919C132.353 125.18 129.466 118.254 128.072 113.939C127.488 112.272 126.808 110.639 126.036 109.049C124.959 108.085 124.745 107.921 124.745 107.685L125.202 105.609L122.946 103.539V107.425L123.143 109.377Z" fill="#FFD43C"/>
<path d="M124.39 149.263C124.431 149.126 124.482 148.992 124.542 148.862C124.672 148.58 124.835 148.208 125.038 147.734C125.241 147.26 125.512 146.657 125.794 145.963L126.251 144.835C126.397 144.435 126.55 144.017 126.708 143.572C128.433 138.964 129.176 134.046 128.89 129.133C128.673 126.441 128.21 123.773 127.509 121.164C126.914 119.037 126.21 116.941 125.399 114.887C125.044 114.013 124.728 113.223 124.44 112.524L123.651 110.77L123.16 109.642C123.101 109.513 123.05 109.382 123.008 109.247C123.094 109.36 123.166 109.483 123.222 109.613C123.357 109.895 123.538 110.256 123.786 110.702C124.034 111.147 124.305 111.774 124.632 112.439C124.959 113.105 125.264 113.922 125.636 114.785C126.481 116.839 127.21 118.938 127.819 121.074C128.537 123.718 129.003 126.424 129.212 129.156C129.514 134.108 128.745 139.068 126.956 143.696L126.471 144.959L125.986 146.087C125.687 146.775 125.422 147.368 125.179 147.836L124.615 148.924C124.552 149.044 124.476 149.158 124.39 149.263Z" fill="#263238"/>
<path d="M127.3 111.813C127.448 111.984 127.573 112.174 127.672 112.377C127.898 112.755 128.191 113.325 128.541 114.041C129.419 115.908 130.151 117.841 130.729 119.822C131.328 121.802 131.743 123.834 131.97 125.89C132.032 126.513 132.062 127.138 132.06 127.763C132.069 127.994 132.048 128.225 131.998 128.451C131.947 128.451 131.953 127.475 131.744 125.913C131.452 123.884 131.009 121.88 130.419 119.918C129.839 117.949 129.143 116.017 128.332 114.131C127.7 112.704 127.255 111.836 127.3 111.813Z" fill="#263238"/>
<path d="M109.843 111.069C110.109 111.554 119.572 132.867 119.572 132.867L137.451 126.539L142.121 134.796C142.121 134.796 121.885 148.101 116.533 147.768C111.18 147.435 110.261 146.409 108.287 142.213C106.482 138.383 101.429 127.78 98.9639 122.608C97.713 120.005 97.2279 117.101 97.5652 114.233C97.96 110.956 99.3023 107.346 103.262 106.963C107.661 106.545 109.843 111.069 109.843 111.069Z" fill="#FFD43C"/>
<path d="M108.583 109.292C108.119 108.918 107.627 108.58 107.111 108.282C105.815 107.675 104.389 107.396 102.96 107.47C101.535 107.617 100.183 108.169 99.0624 109.061C98.6038 109.441 98.1826 109.864 97.8047 110.324C97.8529 110.167 97.9293 110.02 98.0303 109.89C98.2859 109.524 98.5873 109.192 98.9271 108.903C100.051 107.924 101.453 107.321 102.937 107.177C104.419 107.096 105.896 107.416 107.212 108.102C107.602 108.321 107.959 108.595 108.273 108.914C108.498 109.134 108.6 109.275 108.583 109.292Z" fill="#263238"/>
<path d="M115.281 138.958C115.34 138.581 115.458 138.216 115.631 137.875C115.988 137.034 116.43 136.23 116.951 135.478C117.469 134.725 118.065 134.028 118.727 133.397C118.984 133.116 119.283 132.877 119.613 132.687C119.675 132.754 118.383 133.905 117.193 135.648C116.003 137.39 115.366 138.992 115.281 138.958Z" fill="#263238"/>
<path d="M98.9922 122.602C98.9922 122.602 99.0429 122.687 99.1275 122.862C99.2121 123.037 99.3475 123.302 99.5111 123.629L100.961 126.612L106.234 137.616C106.79 138.778 107.371 139.992 107.977 141.259C108.555 142.591 109.24 143.873 110.024 145.095C110.454 145.714 111.014 146.232 111.665 146.612C112.357 146.976 113.104 147.224 113.876 147.345C114.677 147.485 115.485 147.581 116.296 147.633C117.12 147.68 117.946 147.575 118.732 147.322C120.39 146.818 122.005 146.18 123.56 145.416C125.167 144.66 126.78 143.82 128.405 142.935C131.648 141.164 134.942 139.206 138.269 137.137C139.555 136.336 140.824 135.529 142.065 134.717L142.02 134.914C140.414 132.072 138.852 129.31 137.333 126.629L137.502 126.697L119.618 133.002L119.51 133.036L119.465 132.935L112.438 117.064C111.609 115.169 110.955 113.68 110.509 112.653L110.007 111.525C109.9 111.26 109.849 111.119 109.849 111.119L110.041 111.503C110.165 111.774 110.34 112.157 110.571 112.631C111.034 113.652 111.699 115.129 112.562 117.007C114.254 120.814 116.719 126.251 119.685 132.85L119.539 132.788L137.406 126.438L137.519 126.398L137.581 126.505L142.274 134.779L142.341 134.898L142.228 134.976C140.984 135.789 139.717 136.595 138.427 137.396C135.094 139.472 131.794 141.429 128.54 143.2C126.91 144.085 125.297 144.925 123.678 145.681C122.108 146.448 120.478 147.087 118.806 147.593C117.988 147.854 117.13 147.961 116.273 147.909C115.453 147.853 114.635 147.753 113.825 147.61C113.037 147.479 112.275 147.22 111.569 146.843C110.896 146.44 110.319 145.895 109.877 145.247C109.088 144.012 108.402 142.714 107.824 141.367L106.031 137.684L100.842 126.657C100.239 125.366 99.7649 124.356 99.4434 123.657L99.0881 122.873C99.026 122.693 98.9922 122.602 98.9922 122.602Z" fill="#263238"/>
<g opacity="0.3">
<path d="M175.796 124.836L166.344 118.079L168.707 114.785L175.041 119.314L183.422 108.908L186.58 111.452L175.796 124.836Z" fill="black"/>
</g>
</g>
<defs>
<clipPath id="clip0_4229_7516">
<rect width="282" height="282" fill="white"/>
</clipPath>
</defs>
</svg>
