<svg width="13" height="15" viewBox="0 0 13 15" fill="none" xmlns="http://www.w3.org/2000/svg">
<path d="M8.2125 5.62484L7.99625 11.2498M5.00375 11.2498L4.7875 5.62484M11.0175 3.61859C11.2313 3.65109 11.4437 3.68546 11.6562 3.72234M11.0175 3.61859L10.35 12.2955C10.3228 12.6487 10.1632 12.9787 9.90314 13.2194C9.64311 13.46 9.30182 13.5937 8.9475 13.5936H4.0525C3.69818 13.5937 3.35689 13.46 3.09686 13.2194C2.83683 12.9787 2.67724 12.6487 2.65 12.2955L1.9825 3.61859M11.0175 3.61859C10.2962 3.50954 9.5711 3.42677 8.84375 3.37046M1.9825 3.61859C1.76875 3.65046 1.55625 3.68484 1.34375 3.72171M1.9825 3.61859C2.70383 3.50954 3.4289 3.42677 4.15625 3.37046M8.84375 3.37046V2.79796C8.84375 2.06046 8.275 1.44546 7.5375 1.42234C6.84601 1.40024 6.15399 1.40024 5.4625 1.42234C4.725 1.44546 4.15625 2.06109 4.15625 2.79796V3.37046M8.84375 3.37046C7.28358 3.24989 5.71642 3.24989 4.15625 3.37046" stroke="#232323" stroke-width="1.5" stroke-linecap="round" stroke-linejoin="round"/>
</svg>
