<svg width="163" height="66" viewBox="0 0 163 66" fill="none" xmlns="http://www.w3.org/2000/svg">
<mask id="path-1-inside-1_4433_7703" fill="white">
<path fill-rule="evenodd" clip-rule="evenodd" d="M22 0C16.4772 0 12 4.47715 12 10V21.5287L1.74494 30.5475C0.50078 31.6417 0.491815 33.4258 1.72492 34.5324L12 43.7536V56C12 61.5228 16.4772 66 22 66H153C158.523 66 163 61.5229 163 56V10C163 4.47715 158.523 0 153 0H22Z"/>
</mask>
<path fill-rule="evenodd" clip-rule="evenodd" d="M22 0C16.4772 0 12 4.47715 12 10V21.5287L1.74494 30.5475C0.50078 31.6417 0.491815 33.4258 1.72492 34.5324L12 43.7536V56C12 61.5228 16.4772 66 22 66H153C158.523 66 163 61.5229 163 56V10C163 4.47715 158.523 0 153 0H22Z" fill="#F9FAFB"/>
<path d="M12 21.5287L12.6604 22.2796L13 21.9809V21.5287H12ZM1.74494 30.5475L1.08455 29.7966L1.74494 30.5475ZM1.72492 34.5324L1.05701 35.2767H1.05701L1.72492 34.5324ZM12 43.7536H13V43.3074L12.6679 43.0094L12 43.7536ZM13 10C13 5.02944 17.0294 1 22 1V-1C15.9249 -1 11 3.92487 11 10H13ZM13 21.5287V10H11V21.5287H13ZM2.40534 31.2984L12.6604 22.2796L11.3396 20.7778L1.08455 29.7966L2.40534 31.2984ZM2.39283 33.7882C1.6055 33.0816 1.61095 31.9971 2.40534 31.2984L1.08455 29.7966C-0.609396 31.2863 -0.621875 33.77 1.05701 35.2767L2.39283 33.7882ZM12.6679 43.0094L2.39283 33.7882L1.05701 35.2767L11.3321 44.4979L12.6679 43.0094ZM13 56V43.7536H11V56H13ZM22 65C17.0294 65 13 60.9706 13 56H11C11 62.0751 15.9249 67 22 67V65ZM153 65H22V67H153V65ZM162 56C162 60.9706 157.971 65 153 65V67C159.075 67 164 62.0751 164 56H162ZM162 10V56H164V10H162ZM153 1C157.971 1 162 5.02944 162 10H164C164 3.92487 159.075 -1 153 -1V1ZM22 1H153V-1H22V1Z" fill="#71717A" mask="url(#path-1-inside-1_4433_7703)"/>
</svg>
