<svg width="15" height="15" viewBox="0 0 15 15" fill="none" xmlns="http://www.w3.org/2000/svg">
<path d="M3.75 13.5L10.125 7.5L13.125 10.5M3.75 13.5H11.25C12.4926 13.5 13.5 12.4926 13.5 11.25V7.5M3.75 13.5C2.50736 13.5 1.5 12.4926 1.5 11.25V3.75C1.5 2.50736 2.50736 1.5 3.75 1.5H8.625M13.5 3.72339L11.9661 5.25M11.9661 5.25L10.5 3.7924M11.9661 5.25V1.5M6 4.875C6 5.49632 5.49632 6 4.875 6C4.25368 6 3.75 5.49632 3.75 4.875C3.75 4.25368 4.25368 3.75 4.875 3.75C5.49632 3.75 6 4.25368 6 4.875Z" stroke="#F93326" stroke-width="1.5" stroke-linecap="round" stroke-linejoin="round"/>
</svg>
