<svg width="23" height="20" viewBox="0 0 23 20" fill="none" xmlns="http://www.w3.org/2000/svg">
<path d="M22.9542 6.59553C22.791 5.09716 22.183 3.68713 21.2132 2.5578C20.308 1.41135 19.076 0.586839 17.6913 0.200739C16.5115 -0.0957528 15.2697 0.0166618 14.1583 0.520577C13.0468 1.02449 12.1275 1.8918 11.5429 2.98821C11.1468 2.24808 10.5964 1.60759 9.93122 1.11282C9.31842 0.653326 8.622 0.325763 7.88356 0.149687C7.14513 -0.026389 6.37982 -0.0473627 5.63333 0.0880136C4.23349 0.412889 2.96524 1.17525 2.00203 2.27085C0.983327 3.35541 0.313007 4.7364 0.081916 6.22661C-0.174435 8.1302 0.174606 10.0681 1.0768 11.7503C2.09195 13.4774 3.49407 14.9287 5.16574 15.9828C7.89171 17.7659 11.4832 20 11.4832 20C11.4832 20 14.6171 17.7044 17.4525 16.0545C19.1854 15.1081 20.6702 13.7439 21.7803 12.0783C22.7339 10.4283 23.1456 8.5056 22.9542 6.59553Z" fill="#F93326"/>
</svg>
