<svg width="118" height="36" viewBox="0 0 118 36" fill="none" xmlns="http://www.w3.org/2000/svg">
<path d="M102 21.5V35H0.5" stroke="#FFD43C" stroke-linecap="round"/>
<path d="M102.026 8.21747C102.264 7.18426 103.736 7.18427 103.974 8.21747L104.739 11.526C104.869 12.0908 105.451 12.4266 106.005 12.2573L109.253 11.2649C110.267 10.955 111.002 12.2292 110.227 12.9525L107.744 15.2687C107.32 15.6641 107.32 16.3359 107.744 16.7313L110.227 19.0475C111.002 19.7708 110.267 21.045 109.253 20.7351L106.005 19.7427C105.451 19.5734 104.869 19.9092 104.739 20.474L103.974 23.7825C103.736 24.8157 102.264 24.8157 102.026 23.7825L101.261 20.474C101.131 19.9092 100.549 19.5734 99.9947 19.7427L96.7473 20.7351C95.7332 21.045 94.9975 19.7708 95.773 19.0475L98.2561 16.7313C98.6799 16.3359 98.6799 15.6641 98.2561 15.2687L95.773 12.9525C94.9975 12.2292 95.7332 10.955 96.7473 11.2649L99.9947 12.2573C100.549 12.4266 101.131 12.0908 101.261 11.526L102.026 8.21747Z" fill="#F93326"/>
<path d="M107.645 11.6572C108.659 11.3474 109.395 12.6215 108.619 13.3448L106.136 15.6611C105.712 16.0564 105.712 16.7282 106.136 17.1236L108.619 19.4398C109.395 20.1631 108.659 21.4373 107.645 21.1274L104.398 20.1351C103.843 19.9657 103.262 20.3015 103.131 20.8663L102.367 24.1748C102.128 25.208 100.657 25.208 100.418 24.1748L99.6537 20.8663C99.5232 20.3015 98.9414 19.9657 98.3871 20.1351L95.1397 21.1274C94.1255 21.4373 93.3899 20.1631 94.1653 19.4398L96.6484 17.1236C97.0723 16.7282 97.0723 16.0564 96.6484 15.6611L94.1653 13.3448C93.3899 12.6215 94.1255 11.3474 95.1397 11.6572L98.3871 12.6496C98.9414 12.8189 99.5232 12.4831 99.6537 11.9183L100.418 8.60978C100.657 7.57657 102.128 7.57657 102.367 8.60978L103.131 11.9183C103.262 12.4831 103.843 12.8189 104.398 12.6496L107.645 11.6572Z" fill="#FF8227"/>
<path d="M99.0257 9.21747C99.2644 8.18426 100.736 8.18427 100.974 9.21747L101.739 12.526C101.869 13.0908 102.451 13.4266 103.005 13.2573L106.253 12.2649C107.267 11.955 108.002 13.2292 107.227 13.9525L104.744 16.2687C104.32 16.6641 104.32 17.3359 104.744 17.7313L107.227 20.0475C108.002 20.7708 107.267 22.045 106.253 21.7351L103.005 20.7427C102.451 20.5734 101.869 20.9092 101.739 21.474L100.974 24.7825C100.736 25.8157 99.2644 25.8157 99.0257 24.7825L98.2613 21.474C98.1308 20.9092 97.5491 20.5734 96.9947 20.7427L93.7473 21.7351C92.7332 22.045 91.9975 20.7708 92.773 20.0475L95.2561 17.7313C95.6799 17.3359 95.6799 16.6641 95.2561 16.2687L92.773 13.9525C91.9975 13.2292 92.7332 11.955 93.7473 12.2649L96.9947 13.2573C97.5491 13.4266 98.1308 13.0908 98.2613 12.526L99.0257 9.21747Z" fill="#FFD43C"/>
</svg>
