<svg width="55" height="28" viewBox="0 0 55 28" fill="none" xmlns="http://www.w3.org/2000/svg">
<g clip-path="url(#clip0_143_499)">
<path d="M47.5588 7.99253V14.8381H45.148V10.0361H42.8267V14.8381H40.4159V7.99207H47.5588V7.99253Z" fill="black"/>
<path fill-rule="evenodd" clip-rule="evenodd" d="M35.4647 15.0828C37.6228 15.0828 39.2254 13.7411 39.2254 11.7072C39.2254 9.73853 38.0431 8.46033 36.067 8.46033C35.155 8.46033 34.4025 8.78583 33.8357 9.34747C33.971 8.18663 34.9391 7.33917 36.0051 7.33917C36.2511 7.33917 38.1031 7.3352 38.1031 7.3352L39.1504 5.3031C39.1504 5.3031 36.8252 5.35677 35.7443 5.35677C33.2746 5.4004 31.6064 7.67657 31.6064 10.4411C31.6064 13.6618 33.2334 15.0828 35.4647 15.0828ZM35.4778 10.2603C36.2791 10.2603 36.8347 10.7941 36.8347 11.7069C36.8347 12.5285 36.341 13.2054 35.4778 13.2073C34.6522 13.2073 34.0966 12.5801 34.0966 11.7209C34.0966 10.8079 34.6522 10.2603 35.4778 10.2603Z" fill="black"/>
<path d="M29.6442 12.5463C29.6442 12.5463 29.0749 12.879 28.2246 12.942C27.247 12.9714 26.376 12.3454 26.376 11.2331C26.376 10.1481 27.1446 9.52623 28.2 9.52623C28.8471 9.52623 29.7031 9.981 29.7031 9.981C29.7031 9.981 30.3295 8.8155 30.654 8.23263C30.0598 7.776 29.2684 7.52563 28.3479 7.52563C26.0248 7.52563 24.2255 9.06143 24.2255 11.2193C24.2255 13.4047 25.9167 14.9048 28.3479 14.8595C29.0275 14.8339 29.965 14.5919 30.5364 14.2197L29.6442 12.5463Z" fill="black"/>
<path d="M0 6.09467L3.34418 12.1555V15.8524L0.00391213 21.9014L0 6.09467Z" fill="#5B57A2"/>
<path d="M12.8403 9.95005L15.974 8.00265L22.3871 7.99658L12.8403 13.9265V9.95005Z" fill="#D90751"/>
<path d="M12.8226 6.05897L12.8403 14.0833L9.48828 11.995V0L12.8228 6.05897H12.8226Z" fill="#FAB718"/>
<path d="M22.387 7.99657L15.9737 8.00263L12.8226 6.05897L9.48828 0L22.3868 7.99657H22.387Z" fill="#ED6F26"/>
<path d="M12.8403 21.935V18.0418L9.48828 15.9932L9.49012 28L12.8403 21.935Z" fill="#63B22F"/>
<path d="M15.9661 20.0053L3.34395 12.1555L0 6.09467L22.3735 19.9974L15.9659 20.0053H15.9661Z" fill="#1487C9"/>
<path d="M9.49036 28L12.8401 21.935L15.9659 20.0053L22.3732 19.9974L9.49036 28Z" fill="#017F36"/>
<path d="M0.00390625 21.9014L9.51568 15.9934L6.31786 14.004L3.34418 15.8524L0.00390625 21.9014Z" fill="#984995"/>
<path d="M26.3766 19.4452C26.303 19.5404 26.2061 19.6123 26.0899 19.6608C25.9706 19.71 25.843 19.7351 25.7143 19.7345C25.5863 19.7363 25.459 19.7146 25.3385 19.6706C25.2303 19.6308 25.1314 19.5686 25.0481 19.4881C24.9658 19.4075 24.9012 19.3102 24.8585 19.2025C24.8122 19.0846 24.7892 18.9587 24.7906 18.8318C24.7906 18.7058 24.812 18.5891 24.8564 18.4785C24.899 18.3677 24.9609 18.2727 25.0384 18.1929C25.116 18.1115 25.209 18.0494 25.3134 18.0009C25.42 17.9542 25.5362 17.929 25.6639 17.929C25.8015 17.929 25.9292 17.9465 26.0455 17.9813C26.1617 18.0163 26.2604 18.0746 26.3416 18.1563L26.2003 18.3989C26.132 18.3361 26.0515 18.2885 25.964 18.2589C25.8808 18.2318 25.7939 18.2181 25.7065 18.2183C25.6292 18.2183 25.5555 18.2337 25.484 18.2629C25.4134 18.2917 25.349 18.3339 25.2941 18.3873C25.238 18.4421 25.1938 18.5082 25.1643 18.5814C25.1314 18.657 25.116 18.7405 25.116 18.8336C25.116 18.9288 25.1332 19.0142 25.1662 19.088C25.1993 19.1638 25.2437 19.228 25.2999 19.2821C25.356 19.3367 25.4218 19.3773 25.4973 19.4046C25.573 19.4338 25.6524 19.4473 25.7376 19.4473C25.842 19.4473 25.9371 19.4258 26.0183 19.385C26.0988 19.3456 26.1711 19.2909 26.2314 19.224L26.3766 19.4452ZM26.7754 19.6937V17.9659H27.0815V19.2532L28.0768 17.9659H28.3828V19.6939H28.0768V18.4066L27.0815 19.6939H26.7754V19.6937ZM30.4103 19.4452C30.335 19.5412 30.2362 19.6155 30.1237 19.6608C30.0044 19.71 29.8768 19.735 29.748 19.7345C29.62 19.7363 29.4928 19.7146 29.3724 19.6706C29.2641 19.6308 29.1652 19.5686 29.0817 19.4881C28.9994 19.4075 28.9348 19.3102 28.8921 19.2025C28.8459 19.0846 28.8228 18.9587 28.8242 18.8318C28.8242 18.7058 28.8456 18.5891 28.89 18.4785C28.9328 18.3677 28.9948 18.2727 29.0721 18.1929C29.1496 18.1115 29.2426 18.0494 29.3471 18.0009C29.4574 17.9516 29.577 17.9271 29.6976 17.929C29.8352 17.929 29.9629 17.9465 30.0791 17.9813C30.1953 18.0163 30.294 18.0746 30.3755 18.1563L30.234 18.3989C30.1658 18.3361 30.0853 18.2884 29.9979 18.2589C29.9147 18.2318 29.8278 18.2181 29.7404 18.2183C29.5865 18.2188 29.4388 18.2793 29.3277 18.3873C29.2721 18.4425 29.228 18.5086 29.198 18.5814C29.165 18.657 29.1496 18.7405 29.1496 18.8336C29.1496 18.9288 29.1671 19.0142 29.2 19.088C29.2329 19.1638 29.2773 19.228 29.3335 19.2821C29.3896 19.3367 29.4557 19.3773 29.5312 19.4046C29.6067 19.4317 29.686 19.4473 29.7712 19.4473C29.8759 19.4473 29.9689 19.4258 30.0519 19.385C30.1324 19.3456 30.2048 19.2909 30.265 19.224L30.4103 19.4452ZM30.5672 17.9659H32.1376V18.2727H31.5063V19.6937H31.2003V18.2727H30.569V17.9659H30.5672Z" fill="black"/>
<path fill-rule="evenodd" clip-rule="evenodd" d="M33.567 19.6764C33.6832 19.6396 33.7819 19.5831 33.8671 19.5056L33.7741 19.2648C33.7179 19.3155 33.6425 19.3582 33.5516 19.3932C33.4604 19.4282 33.3578 19.4454 33.2455 19.4454C33.077 19.4454 32.9376 19.4009 32.8271 19.3096C32.7169 19.2182 32.6568 19.0903 32.6433 18.927H33.9679C33.9814 18.8668 33.9872 18.7989 33.9872 18.7193C33.9872 18.6008 33.9658 18.4941 33.9232 18.3971C33.8836 18.3028 33.8257 18.2176 33.7529 18.1465C33.6792 18.076 33.5922 18.0213 33.4972 17.9855C33.3978 17.9464 33.2921 17.9266 33.1854 17.9271C33.0421 17.9271 32.9162 17.9523 32.806 17.999C32.7017 18.0435 32.6075 18.1089 32.5289 18.1913C32.4526 18.2732 32.3939 18.3704 32.3567 18.4766C32.3158 18.5897 32.2955 18.7094 32.2967 18.8299C32.2967 18.9659 32.3199 19.0901 32.3625 19.2009C32.4039 19.3083 32.4673 19.4055 32.5484 19.4863C32.6278 19.5656 32.7245 19.626 32.8389 19.6687C32.9613 19.7128 33.0905 19.7344 33.2204 19.7327C33.3381 19.7319 33.4549 19.7131 33.567 19.6767V19.6764ZM32.7924 18.3464C32.8872 18.2592 33.0131 18.2165 33.1719 18.2165C33.321 18.2165 33.4411 18.2573 33.5283 18.339C33.6155 18.4204 33.6618 18.5331 33.6696 18.6766H32.6239C32.6387 18.5495 32.6986 18.4323 32.7924 18.3467V18.3464Z" fill="black"/>
<path d="M34.4034 17.9659H34.6824L35.3447 18.8222L35.972 17.9659H36.2431V19.6939H35.9372V18.4339L35.3407 19.2357H35.329L34.7095 18.4337V19.6937H34.4034V17.9659Z" fill="black"/>
<path fill-rule="evenodd" clip-rule="evenodd" d="M37.0757 17.9717C36.9828 17.9963 36.8941 18.0349 36.8124 18.0861L36.8937 18.3311C36.9634 18.2961 37.0331 18.2669 37.1029 18.2417C37.1726 18.2163 37.2617 18.2046 37.3682 18.2046C37.4534 18.2046 37.5212 18.2184 37.5735 18.2454C37.6257 18.2706 37.6644 18.3096 37.6915 18.3563C37.7187 18.4029 37.7362 18.461 37.7458 18.5289C37.7555 18.5968 37.7594 18.6706 37.7594 18.7504C37.6968 18.7061 37.6254 18.6763 37.5502 18.6629C37.4775 18.6482 37.4037 18.6404 37.3295 18.6395C37.2384 18.6395 37.1533 18.6533 37.0718 18.6764C36.9906 18.6997 36.9208 18.7347 36.8647 18.7814C36.8074 18.828 36.7611 18.887 36.7291 18.9541C36.695 19.0275 36.6778 19.1079 36.6787 19.189C36.6787 19.358 36.7273 19.49 36.824 19.5834C36.9208 19.6765 37.0486 19.7229 37.2073 19.7229C37.3507 19.7229 37.4651 19.6977 37.5521 19.6473C37.6393 19.5967 37.709 19.5386 37.7594 19.4725V19.6958H38.0459V18.6358C38.0459 18.4104 37.9976 18.2359 37.8989 18.1134C37.802 17.9911 37.6296 17.929 37.3857 17.929C37.2771 17.929 37.1744 17.9444 37.0757 17.9717ZM37.5873 19.3717C37.5176 19.4221 37.4264 19.4452 37.3141 19.4452C37.2154 19.4452 37.1378 19.42 37.0838 19.3715C37.0295 19.3211 37.0023 19.2551 37.0023 19.1734C37.0023 19.1251 37.012 19.0843 37.0334 19.0474C37.0548 19.0105 37.0838 18.9814 37.1167 18.958C37.1527 18.9336 37.1926 18.9159 37.2347 18.9055C37.2794 18.8939 37.3238 18.888 37.3703 18.888C37.5215 18.888 37.651 18.9249 37.7576 19.0026V19.2219C37.7074 19.279 37.6501 19.3292 37.5873 19.3715V19.3717ZM40.7476 17.3581C40.8095 17.3291 40.8675 17.2806 40.9218 17.2087L40.7552 16.9661C40.7126 17.0244 40.6643 17.065 40.61 17.0865C40.5524 17.1093 40.4928 17.1262 40.4319 17.1369L40.3739 17.1474C40.3235 17.1562 40.2694 17.166 40.2112 17.1758C40.1178 17.1933 40.0268 17.222 39.9401 17.2612C39.8025 17.3214 39.6922 17.4029 39.6089 17.5058C39.5256 17.6087 39.4598 17.7251 39.4152 17.8534C39.3699 17.9834 39.3395 18.1182 39.3243 18.2552C39.3086 18.3952 39.301 18.5289 39.301 18.657C39.301 18.8222 39.3222 18.9716 39.3648 19.1055C39.4076 19.2397 39.4674 19.3521 39.5468 19.4434C39.6262 19.5367 39.7212 19.6067 39.8335 19.6571C39.9458 19.7075 40.0717 19.7327 40.213 19.7327C40.3428 19.7327 40.4629 19.7075 40.5713 19.6608C40.6758 19.616 40.7706 19.5507 40.8502 19.4688C40.9276 19.389 40.9897 19.2938 41.0323 19.1872C41.0767 19.0803 41.0981 18.9657 41.0981 18.8453C41.0981 18.7154 41.0787 18.5971 41.0419 18.4921C41.008 18.392 40.9539 18.3001 40.8831 18.2223C40.8122 18.1459 40.7255 18.0861 40.6293 18.0473C40.5233 18.005 40.4102 17.9839 40.2963 17.9853C40.2227 17.9853 40.1511 17.9951 40.0814 18.0144C40.0136 18.0338 39.9484 18.0619 39.8876 18.098C39.8286 18.1322 39.7745 18.1746 39.727 18.224C39.6805 18.2727 39.6418 18.3271 39.6147 18.3892H39.6069C39.6128 18.3096 39.6225 18.2282 39.6398 18.1446C39.6573 18.0611 39.6823 17.9813 39.7155 17.9057C39.7484 17.8301 39.791 17.762 39.8432 17.6999C39.8992 17.6372 39.9679 17.5876 40.0446 17.5543C40.1289 17.5136 40.2181 17.4842 40.3099 17.467L40.3707 17.4558C40.4312 17.4446 40.4889 17.4339 40.5442 17.4222C40.6178 17.4068 40.6855 17.3872 40.7476 17.3583V17.3581ZM39.6708 19.0182C39.6409 18.9202 39.6265 18.818 39.6283 18.7154C39.6412 18.6565 39.6649 18.6005 39.698 18.5504C39.7309 18.4979 39.7735 18.4515 39.8239 18.4104C39.9376 18.3201 40.0782 18.2715 40.2227 18.2727C40.4029 18.2727 40.5384 18.329 40.6332 18.4398C40.7283 18.5523 40.7748 18.692 40.7748 18.861C40.7748 18.9445 40.7591 19.0203 40.7322 19.0901C40.706 19.1589 40.6665 19.2217 40.6159 19.2747C40.5654 19.3278 40.5048 19.37 40.4378 19.3988C40.3681 19.4298 40.2924 19.4455 40.2073 19.4455C40.1221 19.4455 40.0446 19.428 39.973 19.393C39.9019 19.3587 39.839 19.309 39.7889 19.2474C39.7364 19.1787 39.6964 19.1011 39.6708 19.0182ZM43.4451 17.9659H43.1391V19.694H43.4451V17.9659ZM41.5395 17.9659H41.8455V18.4844H42.1284C42.2618 18.4844 42.3702 18.5019 42.4574 18.5348C42.5446 18.5679 42.6144 18.6125 42.6666 18.6668C42.7189 18.7212 42.7557 18.7854 42.7771 18.857C42.7982 18.9289 42.81 19.0026 42.81 19.0803C42.81 19.158 42.7982 19.232 42.7732 19.3057C42.7499 19.3794 42.7092 19.4434 42.6549 19.5017C42.6008 19.56 42.5272 19.6067 42.4342 19.6417C42.3412 19.6765 42.2289 19.6958 42.0934 19.6958H41.5376V17.9659H41.5395ZM41.8455 18.7735V19.4065H42.0683C42.2213 19.4065 42.3297 19.3794 42.3916 19.3248C42.4537 19.2705 42.4846 19.193 42.4846 19.0901C42.4846 18.9851 42.4517 18.9058 42.3898 18.8512C42.3258 18.7968 42.2192 18.7695 42.0722 18.7695H41.8455V18.7735Z" fill="black"/>
<path d="M45.4688 19.4452C45.3951 19.5404 45.2983 19.6123 45.182 19.6608C45.0628 19.71 44.9352 19.735 44.8065 19.7345C44.6784 19.7363 44.5511 19.7146 44.4307 19.6706C44.3225 19.6308 44.2236 19.5687 44.1403 19.4881C44.058 19.4075 43.9933 19.3102 43.9504 19.2025C43.9044 19.0846 43.8814 18.9586 43.8827 18.8318C43.8827 18.7058 43.9039 18.5891 43.9486 18.4785C43.9911 18.3677 44.053 18.2727 44.1306 18.1929C44.2081 18.1115 44.3009 18.0494 44.4056 18.0009C44.5159 17.9516 44.6355 17.9271 44.7561 17.929C44.8935 17.929 45.0214 17.9465 45.1376 17.9813C45.2538 18.0163 45.3526 18.0746 45.4338 18.1563L45.2925 18.3989C45.2242 18.3361 45.1437 18.2885 45.0562 18.2589C44.973 18.2318 44.8861 18.2181 44.7987 18.2183C44.7213 18.2183 44.6477 18.2337 44.5759 18.2629C44.5054 18.2917 44.4411 18.3339 44.3863 18.3873C44.3306 18.4425 44.2864 18.5085 44.2565 18.5814C44.2236 18.657 44.2081 18.7405 44.2081 18.8336C44.2081 18.9288 44.2254 19.0142 44.2583 19.088C44.2912 19.1638 44.3359 19.228 44.392 19.2821C44.4482 19.3367 44.514 19.3773 44.5895 19.4046C44.6652 19.4317 44.7446 19.4473 44.8297 19.4473C44.9342 19.4473 45.0272 19.4258 45.1105 19.385C45.191 19.3456 45.2633 19.2909 45.3236 19.224L45.4688 19.4452ZM45.6255 17.9659H47.1961V18.2727H46.5646V19.6937H46.2588V18.2727H45.6276V17.9659H45.6255Z" fill="black"/>
<path fill-rule="evenodd" clip-rule="evenodd" d="M47.8352 17.9662H47.5292V20.4628H47.8352V19.6144C47.8971 19.6553 47.9708 19.6844 48.0559 19.7038C48.1411 19.7232 48.2301 19.7327 48.3213 19.7327C48.4568 19.7327 48.5788 19.7075 48.6892 19.6611C48.7952 19.6151 48.8912 19.5485 48.9718 19.4651C49.0512 19.3813 49.1113 19.2843 49.1539 19.1697C49.1964 19.0554 49.2178 18.9329 49.2178 18.8029C49.2178 18.6746 49.1985 18.5563 49.1617 18.4494C49.127 18.3479 49.0731 18.2543 49.0029 18.1738C48.934 18.0953 48.8486 18.0336 48.753 17.9932C48.6485 17.9477 48.5356 17.9252 48.4218 17.9272C48.3019 17.9272 48.1896 17.9505 48.0831 17.9972C47.9765 18.0439 47.8932 18.0999 47.8352 18.1699V17.9662ZM48.0483 18.2865C48.1356 18.2399 48.2304 18.2165 48.333 18.2165C48.4221 18.2165 48.5015 18.2301 48.5733 18.2592C48.643 18.2884 48.701 18.3292 48.7495 18.3836C48.7979 18.438 48.8347 18.5003 48.8579 18.5738C48.883 18.6475 48.8947 18.7273 48.8947 18.8146C48.8947 18.9079 48.8791 18.9912 48.8522 19.0689C48.8268 19.1426 48.7865 19.21 48.7339 19.267C48.681 19.3233 48.617 19.3676 48.5461 19.397C48.467 19.4305 48.3819 19.4471 48.2962 19.4455C48.2131 19.4455 48.1356 19.4359 48.0619 19.4166C47.9813 19.3943 47.9048 19.3588 47.8355 19.3116V18.4552C47.8896 18.3894 47.9614 18.3332 48.0483 18.2865ZM51.5649 17.9659H51.2588V19.694H51.5649V17.9659ZM49.6574 17.9659H49.9634V18.4844H50.246C50.3797 18.4844 50.4881 18.5019 50.5753 18.5348C50.6626 18.5679 50.7323 18.6125 50.7845 18.6669C50.8368 18.7212 50.8736 18.7854 50.8948 18.857C50.9162 18.9289 50.9277 19.0026 50.9277 19.0803C50.9277 19.158 50.9162 19.232 50.8911 19.3057C50.8678 19.3795 50.8271 19.4434 50.7728 19.5017C50.7187 19.5601 50.6451 19.6067 50.5521 19.6417C50.4591 19.6765 50.3468 19.6959 50.2113 19.6959H49.6555V17.9659H49.6574ZM49.9655 18.7735V19.4065H50.1883C50.3411 19.4065 50.4497 19.3795 50.5116 19.3249C50.5735 19.2705 50.6046 19.193 50.6046 19.0901C50.6046 18.9851 50.5717 18.9058 50.5098 18.8512C50.4458 18.7968 50.3392 18.7695 50.1922 18.7695H49.9655V18.7735Z" fill="black"/>
<path d="M53.0328 18.7989L53.6873 19.6939H53.3117L52.8061 18.9949L52.293 19.6939H51.9367L52.5873 18.8143L51.9754 17.9659H52.3512L52.8179 18.6183L53.2922 17.9659H53.6486L53.0328 18.7989ZM26.1502 21.8296H25.2111V23.2702H24.905V21.5424H26.4561V23.2702H26.1502V21.8296ZM28.1931 21.849H27.589L27.5694 22.1402C27.5483 22.3868 27.5193 22.5849 27.4785 22.7361C27.4378 22.8878 27.3874 23.0042 27.3294 23.0857C27.2714 23.1673 27.2035 23.2236 27.126 23.2509C27.046 23.2803 26.9614 23.2948 26.8763 23.2936L26.853 22.9944C26.886 22.9963 26.9246 22.9886 26.9672 22.9692C27.01 22.9499 27.0526 22.9072 27.0931 22.8432C27.1338 22.777 27.1706 22.6839 27.2035 22.5635C27.2364 22.4412 27.2578 22.2821 27.2693 22.0819L27.3004 21.544H28.4991V23.2721H28.1931V21.8488V21.849Z" fill="black"/>
<path fill-rule="evenodd" clip-rule="evenodd" d="M29.3241 21.5464C29.2252 21.5735 29.1361 21.6122 29.0606 21.6608L29.1421 21.9055C29.2118 21.8705 29.2816 21.8414 29.3511 21.8162C29.4208 21.791 29.5101 21.7793 29.6164 21.7793C29.7018 21.7793 29.7694 21.7928 29.8217 21.8199C29.8741 21.8453 29.9128 21.8841 29.9399 21.9307C29.9669 21.9774 29.9844 22.0357 29.994 22.1034C30.0037 22.1715 30.0076 22.2453 30.0076 22.3248C29.945 22.2806 29.8736 22.2509 29.7984 22.2376C29.7257 22.2229 29.6518 22.2151 29.5777 22.2142C29.4868 22.2142 29.4015 22.2278 29.3202 22.2511C29.2388 22.2744 29.169 22.3094 29.1129 22.3561C29.0556 22.4027 29.0092 22.4617 28.9773 22.5288C28.9433 22.6022 28.9261 22.6826 28.9272 22.7637C28.9272 22.9324 28.9755 23.0647 29.0724 23.1578C29.169 23.2509 29.297 23.2976 29.4558 23.2976C29.5991 23.2976 29.7133 23.2724 29.8005 23.2218C29.8875 23.1714 29.9572 23.113 30.0076 23.047V23.2703H30.2943V22.2103C30.2943 21.9851 30.2458 21.8103 30.1471 21.6881C30.0502 21.5656 29.8778 21.5037 29.6339 21.5037C29.5292 21.5038 29.4251 21.5181 29.3241 21.5462V21.5464ZM29.8373 22.946C29.7678 22.9966 29.6767 23.0199 29.5644 23.0199C29.4636 23.0199 29.3881 22.9947 29.334 22.946C29.2797 22.8956 29.2526 22.8295 29.2526 22.7481C29.2526 22.6996 29.2622 22.6587 29.2836 22.6219C29.3048 22.585 29.334 22.5558 29.3669 22.5325C29.3998 22.5092 29.4403 22.4917 29.485 22.48C29.5293 22.4684 29.5748 22.4626 29.6205 22.4627C29.7715 22.4627 29.9013 22.4996 30.0078 22.5771V22.7964C29.9575 22.8534 29.9002 22.9037 29.8373 22.946Z" fill="black"/>
<path d="M30.5942 21.5424H32.1648V21.849H31.5334V23.2703H31.2275V21.8493H30.5963V21.5424H30.5942Z" fill="black"/>
<path fill-rule="evenodd" clip-rule="evenodd" d="M33.594 23.2528C33.7103 23.2159 33.809 23.1595 33.8941 23.082L33.8012 22.8412C33.745 22.8918 33.6695 22.9345 33.5784 22.9695C33.4875 23.0045 33.3849 23.0218 33.2726 23.0218C33.1041 23.0218 32.9647 22.9772 32.8542 22.886C32.7437 22.7948 32.6839 22.6667 32.6703 22.5033H33.9949C34.0083 22.4434 34.0143 22.3752 34.0143 22.2957C34.0143 22.1774 33.9929 22.0705 33.9503 21.9734C33.9106 21.8792 33.8526 21.794 33.7798 21.7231C33.7062 21.6525 33.6193 21.5976 33.5243 21.5618C33.4249 21.5227 33.3191 21.5029 33.2125 21.5035C33.0691 21.5035 32.9433 21.5287 32.833 21.5754C32.7288 21.6197 32.6345 21.6851 32.556 21.7676C32.4797 21.8496 32.421 21.9468 32.3836 22.053C32.3428 22.1661 32.3224 22.2858 32.3235 22.4063C32.3235 22.5423 32.3468 22.6664 32.3893 22.7773C32.4321 22.8879 32.4959 22.9831 32.5753 23.0626C32.6547 23.1422 32.7516 23.2024 32.8659 23.2451C32.9883 23.2892 33.1174 23.3109 33.2473 23.3093C33.3616 23.3093 33.4778 23.2897 33.594 23.2528ZM32.8176 21.9209C32.9124 21.8337 33.0383 21.791 33.1971 21.791C33.3483 21.791 33.4663 21.8337 33.5535 21.9132C33.6405 21.9949 33.687 22.1074 33.6948 22.2511H32.6492C32.6639 22.124 32.7238 22.0066 32.8176 21.9209ZM34.1634 21.5425H34.5507L35.1412 22.3755L34.51 23.2703H34.1344L34.7965 22.3752L34.1634 21.5422V21.5425ZM35.2167 21.5425H35.5227V23.2703H35.2167V21.5425ZM36.6168 23.2703L35.9429 22.3752L36.5723 21.5422H36.1926L35.5982 22.3752L36.2373 23.2703H36.6168ZM38.015 23.2528C38.1312 23.2159 38.2299 23.1595 38.3151 23.082L38.2221 22.8412C38.166 22.8918 38.0905 22.9345 37.9996 22.9695C37.9084 23.0045 37.8058 23.0218 37.6935 23.0218C37.5251 23.0218 37.3856 22.9772 37.2751 22.886C37.1649 22.7948 37.1048 22.6667 37.0913 22.5033H38.4159C38.4294 22.4434 38.4352 22.3752 38.4352 22.2957C38.4352 22.1774 38.414 22.0705 38.3712 21.9734C38.3316 21.8792 38.2737 21.7941 38.2009 21.7231C38.1272 21.6525 38.0403 21.5976 37.9453 21.5618C37.8459 21.5227 37.7401 21.5029 37.6334 21.5035C37.4903 21.5035 37.3644 21.5287 37.254 21.5754C37.1498 21.6198 37.0556 21.6852 36.9771 21.7676C36.9007 21.8495 36.842 21.9467 36.8048 22.053C36.7639 22.1661 36.7435 22.2858 36.7447 22.4063C36.7447 22.5423 36.7679 22.6664 36.8105 22.7773C36.8531 22.8879 36.9171 22.9831 36.9965 23.0626C37.0759 23.1422 37.1725 23.2024 37.2869 23.2451C37.4093 23.2892 37.5385 23.3109 37.6684 23.3093C37.7861 23.3084 37.903 23.2893 38.015 23.2528ZM37.2385 21.9209C37.3336 21.8337 37.4595 21.791 37.6183 21.791C37.7674 21.791 37.8873 21.8337 37.9745 21.9132C38.0617 21.9949 38.1082 22.1074 38.1158 22.2511H37.0701C37.0849 22.124 37.1447 22.0066 37.2385 21.9209ZM39.6767 20.9619C39.4965 20.9619 39.3978 20.8609 39.3824 20.6591H39.0938C39.0938 20.7365 39.1074 20.8065 39.1325 20.8726C39.1578 20.9386 39.1946 20.9948 39.2429 21.0415C39.2913 21.0882 39.3534 21.125 39.425 21.154C39.4965 21.1831 39.5798 21.1967 39.6747 21.1967C39.7619 21.1967 39.8394 21.1831 39.9092 21.154C39.9789 21.1269 40.0369 21.0882 40.0873 21.0415C40.1356 20.9948 40.1745 20.9386 40.2014 20.8726C40.2286 20.8065 40.2421 20.7365 40.2421 20.6591H39.9556C39.9421 20.8609 39.847 20.9619 39.6767 20.9619ZM38.8497 21.5422V23.2703H39.1557L40.151 21.983V23.2703H40.4571V21.5422H40.151L39.1557 22.8295V21.5422H38.8497Z" fill="black"/>
</g>
<defs>
<clipPath id="clip0_143_499">
<rect width="55" height="28" fill="white"/>
</clipPath>
</defs>
</svg>
