<svg width="40" height="40" viewBox="0 0 40 40" fill="none" xmlns="http://www.w3.org/2000/svg">
<path d="M18.4375 13.75L12.1875 20L18.4375 13.75ZM12.1875 20L18.4375 26.25L12.1875 20ZM12.1875 20L27.8125 20L12.1875 20ZM1.25 20C1.25 17.5377 1.73498 15.0995 2.67726 12.8247C3.61954 10.5498 5.00065 8.48285 6.74175 6.74175C8.48285 5.00065 10.5498 3.61953 12.8247 2.67726C15.0995 1.73498 17.5377 1.25 20 1.25C22.4623 1.25 24.9005 1.73498 27.1753 2.67726C29.4502 3.61953 31.5172 5.00065 33.2583 6.74175C34.9994 8.48285 36.3805 10.5498 37.3227 12.8247C38.265 15.0995 38.75 17.5377 38.75 20C38.75 24.9728 36.7746 29.7419 33.2583 33.2583C29.7419 36.7746 24.9728 38.75 20 38.75C15.0272 38.75 10.2581 36.7746 6.74175 33.2582C3.22545 29.7419 1.25 24.9728 1.25 20Z" fill="#71717A"/>
<path d="M18.4375 13.75L12.1875 20M12.1875 20L18.4375 26.25M12.1875 20L27.8125 20M1.25 20C1.25 17.5377 1.73498 15.0995 2.67726 12.8247C3.61954 10.5498 5.00065 8.48285 6.74175 6.74175C8.48285 5.00065 10.5498 3.61953 12.8247 2.67726C15.0995 1.73498 17.5377 1.25 20 1.25C22.4623 1.25 24.9005 1.73498 27.1753 2.67726C29.4502 3.61953 31.5172 5.00065 33.2583 6.74175C34.9994 8.48285 36.3805 10.5498 37.3227 12.8247C38.265 15.0995 38.75 17.5377 38.75 20C38.75 24.9728 36.7746 29.7419 33.2583 33.2583C29.7419 36.7746 24.9728 38.75 20 38.75C15.0272 38.75 10.2581 36.7746 6.74175 33.2582C3.22544 29.7419 1.25 24.9728 1.25 20Z" stroke="white" stroke-width="1.5" stroke-linecap="round" stroke-linejoin="round"/>
</svg>
