<svg width="20" height="18" viewBox="0 0 20 18" fill="none" xmlns="http://www.w3.org/2000/svg">
<path d="M10 14.5C11.25 14.5 12.3127 14.0623 13.188 13.187C14.0633 12.3117 14.5007 11.2493 14.5 10C14.5 8.75001 14.0623 7.68734 13.187 6.81201C12.3117 5.93667 11.2493 5.49934 10 5.50001C8.75 5.50001 7.68734 5.93767 6.812 6.81301C5.93667 7.68834 5.49934 8.75067 5.5 10C5.5 11.25 5.93767 12.3127 6.813 13.188C7.68833 14.0633 8.75067 14.5007 10 14.5ZM2 18C1.45 18 0.979002 17.804 0.587002 17.412C0.195002 17.02 -0.000664969 16.5493 1.69779e-06 16V4.00001C1.69779e-06 3.45001 0.196002 2.97901 0.588002 2.58701C0.980002 2.19501 1.45067 1.99934 2 2.00001H5.15L6.4 0.650006C6.58333 0.43334 6.80434 0.270673 7.063 0.162006C7.32167 0.0533394 7.592 -0.000660569 7.874 6.09757e-06H12.124C12.4073 6.09757e-06 12.6783 0.0543395 12.937 0.163006C13.1957 0.271673 13.4163 0.434006 13.599 0.650006L14.85 2.00001H18C18.55 2.00001 19.021 2.19601 19.413 2.58801C19.805 2.98001 20.0007 3.45067 20 4.00001V16C20 16.55 19.804 17.021 19.412 17.413C19.02 17.805 18.5493 18.0007 18 18H2Z" fill="black"/>
</svg>
