<svg width="32" height="32" viewBox="0 0 32 32" fill="none" xmlns="http://www.w3.org/2000/svg">
<path d="M16.5939 8.12177C16.8326 7.08856 18.3039 7.08856 18.5426 8.12177L19.2596 11.2252C19.3901 11.7899 19.9718 12.1258 20.5262 11.9564L23.5723 11.0256C24.5864 10.7158 25.322 11.9899 24.5466 12.7132L22.2175 14.8859C21.7936 15.2812 21.7936 15.953 22.2175 16.3484L24.5466 18.521C25.322 19.2443 24.5864 20.5185 23.5723 20.2086L20.5262 19.2778C19.9718 19.1084 19.3901 19.4443 19.2596 20.009L18.5426 23.1125C18.3039 24.1457 16.8326 24.1457 16.5939 23.1125L15.877 20.009C15.7465 19.4443 15.1647 19.1084 14.6104 19.2778L11.5643 20.2086C10.5502 20.5185 9.81452 19.2443 10.59 18.521L12.9191 16.3484C13.343 15.953 13.343 15.2812 12.9191 14.8859L10.59 12.7132C9.81452 11.9899 10.5502 10.7158 11.5643 11.0256L14.6104 11.9564C15.1647 12.1258 15.7465 11.7899 15.877 11.2252L16.5939 8.12177Z" fill="#F93326"/>
<path d="M22.0039 11.4085C23.018 11.0986 23.7537 12.3728 22.9782 13.0961L20.6491 15.2687C20.2252 15.6641 20.2252 16.3359 20.6491 16.7313L22.9782 18.9039C23.7537 19.6272 23.018 20.9014 22.0039 20.5915L18.9578 19.6607C18.4035 19.4913 17.8217 19.8272 17.6912 20.3919L16.9743 23.4953C16.7356 24.5286 15.2643 24.5286 15.0256 23.4953L14.3086 20.3919C14.1781 19.8272 13.5964 19.4913 13.0421 19.6607L9.99593 20.5915C8.9818 20.9014 8.24616 19.6272 9.02159 18.9039L11.3508 16.7313C11.7746 16.3359 11.7746 15.6641 11.3508 15.2687L9.02159 13.0961C8.24616 12.3728 8.9818 11.0986 9.99593 11.4085L13.0421 12.3393C13.5964 12.5087 14.1781 12.1728 14.3086 11.6081L15.0256 8.50466C15.2643 7.47145 16.7356 7.47145 16.9743 8.50466L17.6912 11.6081C17.8217 12.1728 18.4035 12.5087 18.9578 12.3393L22.0039 11.4085Z" fill="#FF8227"/>
<path d="M13.6662 9.09784C13.9049 8.06463 15.3762 8.06463 15.6149 9.09784L16.3318 12.2013C16.4623 12.766 17.0441 13.1019 17.5984 12.9325L20.6445 12.0017C21.6587 11.6918 22.3943 12.966 21.6189 13.6893L19.2897 15.8619C18.8659 16.2573 18.8659 16.9291 19.2897 17.3244L21.6189 19.4971C22.3943 20.2204 21.6587 21.4945 20.6445 21.1847L17.5984 20.2539C17.0441 20.0845 16.4623 20.4204 16.3319 20.9851L15.6149 24.0885C15.3762 25.1217 13.9049 25.1217 13.6662 24.0885L12.9492 20.9851C12.8188 20.4204 12.237 20.0845 11.6827 20.2539L8.63656 21.1847C7.62243 21.4945 6.88679 20.2204 7.66222 19.4971L9.99138 17.3244C10.4152 16.9291 10.4152 16.2573 9.99138 15.8619L7.66222 13.6893C6.88679 12.966 7.62243 11.6918 8.63656 12.0017L11.6827 12.9325C12.237 13.1019 12.8188 12.766 12.9492 12.2013L13.6662 9.09784Z" fill="#FFD43C"/>
</svg>
