<svg width="41" height="41" viewBox="0 0 41 41" fill="none" xmlns="http://www.w3.org/2000/svg">
<path d="M21.5411 9.56285C21.7817 8.53277 23.2481 8.53277 23.4886 9.56285L24.7485 14.957C24.8799 15.5193 25.4589 15.8539 26.0116 15.6868L31.345 14.0748C32.3614 13.7676 33.0928 15.047 32.3125 15.767L28.2638 19.5025C27.8346 19.8985 27.8346 20.5764 28.2638 20.9724L32.3125 24.708C33.0928 25.428 32.3614 26.7074 31.345 26.4002L26.0116 24.7882C25.4589 24.6211 24.8799 24.9556 24.7485 25.518L23.4886 30.9121C23.2481 31.9422 21.7817 31.9422 21.5411 30.9121L20.2812 25.518C20.1499 24.9556 19.5709 24.6211 19.0181 24.7882L13.6847 26.4002C12.6684 26.7074 11.9369 25.428 12.7172 24.708L16.766 20.9724C17.1951 20.5764 17.1951 19.8985 16.766 19.5025L12.7172 15.767C11.9369 15.047 12.6684 13.7676 13.6847 14.0748L19.0181 15.6868C19.5709 15.8539 20.1499 15.5193 20.2812 14.957L21.5411 9.56285Z" fill="#F93326"/>
<path d="M29.321 14.5626C30.3394 14.2548 31.0823 15.5276 30.3036 16.2461L26.24 19.9953C25.8141 20.3883 25.8158 21.0589 26.2437 21.4537L30.3146 25.2097C31.0956 25.9303 30.3633 27.198 29.3441 26.8899L24.0008 25.2749C23.4454 25.1071 22.8648 25.4387 22.734 25.9984L21.4764 31.383C21.2365 32.4101 19.7604 32.4035 19.52 31.3742L18.2669 26.009C18.1352 25.445 17.549 25.1083 16.9919 25.2767L11.6775 26.883C10.6591 27.1908 9.91617 25.918 10.6949 25.1995L14.7585 21.4502C15.1844 21.0573 15.1827 20.3867 14.7547 19.9919L10.6838 16.2359C9.90287 15.5153 10.6352 14.2476 11.6544 14.5557L16.9976 16.1706C17.553 16.3385 18.1337 16.0069 18.2644 15.4472L19.5221 10.0626C19.762 9.03551 21.238 9.04209 21.4784 10.0713L22.7315 15.4365C22.8633 16.0005 23.4495 16.3373 24.0065 16.1689L29.321 14.5626Z" fill="#FF8227"/>
<path d="M17.7911 10.7999C18.0317 9.76977 19.4981 9.76977 19.7386 10.7999L20.9985 16.194C21.1299 16.7563 21.7089 17.0909 22.2616 16.9238L27.595 15.3118C28.6114 15.0046 29.3428 16.284 28.5625 17.004L24.5138 20.7395C24.0846 21.1355 24.0846 21.8134 24.5138 22.2094L28.5625 25.945C29.3428 26.665 28.6114 27.9444 27.595 27.6372L22.2616 26.0252C21.7089 25.8581 21.1299 26.1926 20.9985 26.755L19.7386 32.1491C19.4981 33.1792 18.0317 33.1792 17.7911 32.1491L16.5312 26.755C16.3999 26.1926 15.8209 25.8581 15.2681 26.0252L9.93468 27.6372C8.91835 27.9444 8.18692 26.665 8.96725 25.945L13.016 22.2094C13.4451 21.8134 13.4451 21.1355 13.016 20.7395L8.96725 17.004C8.18692 16.284 8.91836 15.0046 9.93468 15.3118L15.2681 16.9238C15.8209 17.0909 16.3999 16.7563 16.5312 16.194L17.7911 10.7999Z" fill="#FFD43C"/>
</svg>
