<svg width="24" height="18" viewBox="0 0 24 18" fill="none" xmlns="http://www.w3.org/2000/svg">
<path d="M23.3893 3.02055C23.2908 2.64177 23.098 2.29154 22.8274 1.99988C22.5569 1.70821 22.2166 1.4838 21.8357 1.34589C18.1714 -0.0102719 12.3214 2.28879e-06 12 2.28879e-06C11.6786 2.28879e-06 5.82857 -0.0102719 2.16429 1.34589C1.78344 1.4838 1.44314 1.70821 1.17256 1.99988C0.901982 2.29154 0.709192 2.64177 0.610714 3.02055C0.332143 4.03767 0 5.90754 0 9C0 12.0925 0.332143 13.9623 0.610714 14.9795C0.709192 15.3582 0.901982 15.7085 1.17256 16.0001C1.44314 16.2918 1.78344 16.5162 2.16429 16.6541C5.67857 17.9589 11.1857 18 11.925 18H12.075C12.8143 18 18.3214 17.9589 21.8357 16.6541C22.2166 16.5162 22.5569 16.2918 22.8274 16.0001C23.098 15.7085 23.2908 15.3582 23.3893 14.9795C23.6679 13.9623 24 12.0925 24 9C24 5.90754 23.6679 4.03767 23.3893 3.02055ZM15.6643 9.33904L10.5214 12.6267C10.4532 12.6748 10.3704 12.7001 10.2857 12.6986C10.2147 12.6961 10.1452 12.6786 10.0821 12.6473C10.0137 12.6131 9.95638 12.5614 9.91667 12.4979C9.87695 12.4345 9.85635 12.3617 9.85714 12.2877V5.71233C9.85635 5.63831 9.87695 5.56553 9.91667 5.50206C9.95638 5.43858 10.0137 5.3869 10.0821 5.35274C10.1505 5.31779 10.2274 5.30124 10.3047 5.30486C10.3821 5.30848 10.457 5.33213 10.5214 5.37329L15.6643 8.66096C15.724 8.69705 15.7733 8.74708 15.8074 8.80637C15.8415 8.86566 15.8595 8.93228 15.8595 9C15.8595 9.06772 15.8415 9.13434 15.8074 9.19363C15.7733 9.25292 15.724 9.30295 15.6643 9.33904Z" fill="#F93326"/>
</svg>
