<svg width="36" height="36" viewBox="0 0 36 36" fill="none" xmlns="http://www.w3.org/2000/svg">
<path d="M12.76 14.34V24H10.632V17.154C10.632 16.9767 10.6367 16.804 10.646 16.636C10.6553 16.4587 10.6787 16.2813 10.716 16.104L8.42 16.692L8.168 15.306L10.632 14.34H12.76ZM18.019 14.172C18.691 14.172 19.2696 14.2327 19.755 14.354C20.2403 14.466 20.6183 14.6853 20.889 15.012C21.1596 15.3387 21.295 15.81 21.295 16.426C21.295 16.79 21.2483 17.1307 21.155 17.448C21.071 17.756 20.9123 18.078 20.679 18.414C20.455 18.75 20.1283 19.1467 19.699 19.604L17.165 22.222C17.3983 22.1847 17.6316 22.1613 17.865 22.152C18.1076 22.1333 18.3503 22.124 18.593 22.124H21.575V24H14.659V22.852C14.659 22.684 14.6823 22.53 14.729 22.39C14.7756 22.2407 14.8503 22.1053 14.953 21.984L17.361 19.408C17.9303 18.82 18.3643 18.2973 18.663 17.84C18.971 17.3827 19.1203 16.986 19.111 16.65C19.1016 16.4447 19.0456 16.2953 18.943 16.202C18.8496 16.1087 18.705 16.048 18.509 16.02C18.313 15.992 18.0703 15.978 17.781 15.978C17.4543 15.978 17.1463 15.9827 16.857 15.992C16.577 15.992 16.2736 16.0013 15.947 16.02C15.6296 16.0387 15.2563 16.0667 14.827 16.104L14.743 14.508C15.2003 14.4053 15.611 14.3307 15.975 14.284C16.3483 14.2373 16.6983 14.2093 17.025 14.2C17.361 14.1813 17.6923 14.172 18.019 14.172ZM29.1217 19.016V20.556H22.7517V19.016H29.1217ZM26.6997 16.678V22.894H25.1737L25.1597 16.678H26.6997Z" fill="#F9FAFB"/>
<circle cx="18" cy="18" r="17.5" stroke="#F9FAFB"/>
</svg>
