<svg width="10" height="7" viewBox="0 0 10 7" fill="none" xmlns="http://www.w3.org/2000/svg">
<path fill-rule="evenodd" clip-rule="evenodd" d="M0.229673 1.20941C0.372716 1.07193 0.564547 0.996814 0.76301 1.00055C0.961473 1.0043 1.15033 1.08659 1.28808 1.22935L4.99251 5.15712L8.69694 1.22935C8.76427 1.1552 8.84582 1.09531 8.93676 1.05322C9.02769 1.01112 9.12616 0.987694 9.22633 0.984313C9.32649 0.980933 9.42632 0.99767 9.51989 1.03353C9.61346 1.0694 9.69887 1.12366 9.77106 1.1931C9.84326 1.26254 9.90076 1.34575 9.94017 1.4378C9.97958 1.52985 10.0001 1.62887 10.0005 1.72898C10.0009 1.82909 9.98115 1.92826 9.94248 2.02062C9.9038 2.11298 9.84696 2.19664 9.77532 2.26665L5.5317 6.75496C5.46184 6.82736 5.37809 6.88495 5.28545 6.92428C5.1928 6.96361 5.09317 6.98389 4.99251 6.98389C4.89185 6.98389 4.79222 6.96361 4.69957 6.92428C4.60693 6.88495 4.52318 6.82736 4.45332 6.75496L0.209703 2.26665C0.0720795 2.12377 -0.00312287 1.93215 0.000621711 1.7339C0.0043663 1.53566 0.0867515 1.34701 0.229673 1.20941Z" fill="white"/>
</svg>
