<svg width="31" height="26" viewBox="0 0 31 26" fill="none" xmlns="http://www.w3.org/2000/svg">
<path d="M30.4403 8.57419C30.2274 6.6263 29.4343 4.79328 28.1693 3.32514C26.9887 1.83476 25.3818 0.762891 23.5756 0.260961C22.0367 -0.124479 20.4171 0.0216604 18.9673 0.67675C17.5175 1.33184 16.3185 2.45934 15.556 3.88468C15.0393 2.9225 14.3214 2.08986 13.4538 1.44666C12.6545 0.849324 11.7461 0.423492 10.7829 0.194593C9.81973 -0.0343057 8.8215 -0.0615715 7.84783 0.114418C6.02194 0.536755 4.36771 1.52783 3.11134 2.95211C1.7826 4.36204 0.90827 6.15731 0.606847 8.09459C0.272476 10.5693 0.727747 13.0886 1.90452 15.2754C3.22864 17.5206 5.05748 19.4073 7.23792 20.7776C10.7935 23.0957 15.4781 26 15.4781 26C15.4781 26 19.5658 23.0158 23.2642 20.8708C25.5244 19.6405 27.4611 17.867 28.909 15.7017C30.1529 13.5568 30.6899 11.0573 30.4403 8.57419Z" fill="white"/>
</svg>
